M48
; DRILL file {KiCad 9.0.3} date 2025-09-24T15:53:59+0200
; FORMAT={-:-/ absolute / metric / decimal}
; #@! TF.CreationDate,2025-09-24T15:53:59+02:00
; #@! TF.GenerationSoftware,Kicad,Pcbnew,9.0.3
; #@! TF.FileFunction,Plated,1,2,PTH
FMAT,2
METRIC
; #@! TA.AperFunction,Plated,PTH,ViaDrill
T1C0.300
; #@! TA.AperFunction,Plated,PTH,ComponentDrill
T2C0.800
; #@! TA.AperFunction,Plated,PTH,ComponentDrill
T3C0.900
; #@! TA.AperFunction,Plated,PTH,ComponentDrill
T4C0.950
%
G90
G05
T1
X115.8Y-78.5
X119.4Y-77.4
T2
X88.95Y-96.2
X90.12Y-89.7
X92.12Y-89.7
X96.12Y-85.89
X96.12Y-93.51
X96.57Y-96.2
X101.45Y-96.2
X102.62Y-89.7
X104.62Y-89.7
X108.62Y-85.89
X108.62Y-93.51
X108.7Y-75.39
X108.7Y-83.01
X109.07Y-96.2
X111.24Y-75.39
X111.24Y-83.01
X113.78Y-75.39
X113.78Y-83.01
X113.95Y-96.2
X115.12Y-89.7
X116.32Y-75.39
X116.32Y-83.01
X117.12Y-89.7
X118.86Y-75.39
X118.86Y-83.01
X121.12Y-85.89
X121.12Y-93.51
X121.4Y-75.39
X121.4Y-83.01
X121.57Y-96.2
X123.94Y-75.39
X123.94Y-83.01
X126.45Y-96.2
X126.48Y-75.39
X126.48Y-83.01
X127.62Y-89.7
X129.62Y-89.7
X130.01Y-83.03
X132.51Y-83.03
X133.62Y-85.89
X133.62Y-93.51
X134.07Y-96.2
X138.95Y-96.2
X140.075Y-89.7
X142.075Y-89.7
X146.12Y-85.89
X146.12Y-93.51
X146.57Y-96.2
X151.45Y-96.2
X152.62Y-89.7
X154.62Y-89.7
X158.62Y-85.89
X158.62Y-93.51
X159.07Y-96.2
X162.9Y-77.7
X163.95Y-96.2
X164.9Y-77.7
X165.12Y-89.7
X167.12Y-89.7
X171.12Y-85.89
X171.12Y-93.51
X171.2Y-75.39
X171.2Y-83.01
X171.57Y-96.2
X173.74Y-75.39
X173.74Y-83.01
X176.28Y-75.39
X176.28Y-83.01
X176.45Y-96.2
X177.575Y-89.7
X178.82Y-75.39
X178.82Y-83.01
X179.575Y-89.7
X181.36Y-75.39
X181.36Y-83.01
X183.62Y-85.89
X183.62Y-93.51
X183.9Y-75.39
X183.9Y-83.01
X184.07Y-96.2
X186.44Y-75.39
X186.44Y-83.01
X188.95Y-96.2
X188.98Y-75.39
X188.98Y-83.01
X190.12Y-89.7
X192.12Y-89.7
X192.58Y-83.03
X195.08Y-83.03
X196.12Y-85.89
X196.12Y-93.51
X196.57Y-96.2
X201.45Y-96.2
X202.575Y-89.7
X204.575Y-89.7
X208.62Y-85.89
X208.62Y-93.51
X209.07Y-96.2
T4
X142.9Y-77.77
X145.4Y-77.77
X147.9Y-77.77
X150.4Y-77.77
X152.9Y-77.77
X155.4Y-77.77
X157.9Y-77.77
T3
G00X88.9Y-100.15
M15
G01X88.9Y-101.25
M16
G05
G00X91.4Y-100.15
M15
G01X91.4Y-101.25
M16
G05
G00X93.35Y-105.7
M15
G01X94.45Y-105.7
M16
G05
G00X96.4Y-100.15
M15
G01X96.4Y-101.25
M16
G05
G00X98.9Y-100.15
M15
G01X98.9Y-101.25
M16
G05
G00X101.39Y-100.15
M15
G01X101.39Y-101.25
M16
G05
G00X103.89Y-100.15
M15
G01X103.89Y-101.25
M16
G05
G00X105.84Y-105.7
M15
G01X106.94Y-105.7
M16
G05
G00X108.89Y-100.15
M15
G01X108.89Y-101.25
M16
G05
G00X111.39Y-100.15
M15
G01X111.39Y-101.25
M16
G05
G00X113.9Y-100.15
M15
G01X113.9Y-101.25
M16
G05
G00X116.4Y-100.15
M15
G01X116.4Y-101.25
M16
G05
G00X118.35Y-105.7
M15
G01X119.45Y-105.7
M16
G05
G00X121.4Y-100.15
M15
G01X121.4Y-101.25
M16
G05
G00X123.9Y-100.15
M15
G01X123.9Y-101.25
M16
G05
G00X126.4Y-100.15
M15
G01X126.4Y-101.25
M16
G05
G00X128.9Y-100.15
M15
G01X128.9Y-101.25
M16
G05
G00X130.85Y-105.7
M15
G01X131.95Y-105.7
M16
G05
G00X133.9Y-100.15
M15
G01X133.9Y-101.25
M16
G05
G00X136.4Y-100.15
M15
G01X136.4Y-101.25
M16
G05
G00X138.9Y-100.15
M15
G01X138.9Y-101.25
M16
G05
G00X141.4Y-100.15
M15
G01X141.4Y-101.25
M16
G05
G00X143.35Y-105.7
M15
G01X144.45Y-105.7
M16
G05
G00X146.4Y-100.15
M15
G01X146.4Y-101.25
M16
G05
G00X148.9Y-100.15
M15
G01X148.9Y-101.25
M16
G05
G00X151.4Y-100.15
M15
G01X151.4Y-101.25
M16
G05
G00X153.9Y-100.15
M15
G01X153.9Y-101.25
M16
G05
G00X155.85Y-105.7
M15
G01X156.95Y-105.7
M16
G05
G00X158.9Y-100.15
M15
G01X158.9Y-101.25
M16
G05
G00X161.4Y-100.15
M15
G01X161.4Y-101.25
M16
G05
G00X163.9Y-100.15
M15
G01X163.9Y-101.25
M16
G05
G00X166.4Y-100.15
M15
G01X166.4Y-101.25
M16
G05
G00X168.35Y-105.7
M15
G01X169.45Y-105.7
M16
G05
G00X171.4Y-100.15
M15
G01X171.4Y-101.25
M16
G05
G00X173.9Y-100.15
M15
G01X173.9Y-101.25
M16
G05
G00X176.4Y-100.15
M15
G01X176.4Y-101.25
M16
G05
G00X178.9Y-100.15
M15
G01X178.9Y-101.25
M16
G05
G00X180.85Y-105.7
M15
G01X181.95Y-105.7
M16
G05
G00X183.9Y-100.15
M15
G01X183.9Y-101.25
M16
G05
G00X186.4Y-100.15
M15
G01X186.4Y-101.25
M16
G05
G00X188.9Y-100.15
M15
G01X188.9Y-101.25
M16
G05
G00X191.4Y-100.15
M15
G01X191.4Y-101.25
M16
G05
G00X193.35Y-105.7
M15
G01X194.45Y-105.7
M16
G05
G00X196.4Y-100.15
M15
G01X196.4Y-101.25
M16
G05
G00X198.9Y-100.15
M15
G01X198.9Y-101.25
M16
G05
G00X201.4Y-100.15
M15
G01X201.4Y-101.25
M16
G05
G00X203.9Y-100.15
M15
G01X203.9Y-101.25
M16
G05
G00X205.85Y-105.7
M15
G01X206.95Y-105.7
M16
G05
G00X208.9Y-100.15
M15
G01X208.9Y-101.25
M16
G05
G00X211.4Y-100.15
M15
G01X211.4Y-101.25
M16
G05
M30
