%TF.GenerationSoftware,KiCad,Pcbnew,9.0.3*%
%TF.CreationDate,2025-09-24T15:53:13+02:00*%
%TF.ProjectId,Suncommander-SensorsModule,53756e63-6f6d-46d6-916e-6465722d5365,rev?*%
%TF.SameCoordinates,Original*%
%TF.FileFunction,Soldermask,Bot*%
%TF.FilePolarity,Negative*%
%FSLAX46Y46*%
G04 Gerber Fmt 4.6, Leading zero omitted, Abs format (unit mm)*
G04 Created by KiCad (PCBNEW 9.0.3) date 2025-09-24 15:53:13*
%MOMM*%
%LPD*%
G01*
G04 APERTURE LIST*
G04 Aperture macros list*
%AMRoundRect*
0 Rectangle with rounded corners*
0 $1 Rounding radius*
0 $2 $3 $4 $5 $6 $7 $8 $9 X,Y pos of 4 corners*
0 Add a 4 corners polygon primitive as box body*
4,1,4,$2,$3,$4,$5,$6,$7,$8,$9,$2,$3,0*
0 Add four circle primitives for the rounded corners*
1,1,$1+$1,$2,$3*
1,1,$1+$1,$4,$5*
1,1,$1+$1,$6,$7*
1,1,$1+$1,$8,$9*
0 Add four rect primitives between the rounded corners*
20,1,$1+$1,$2,$3,$4,$5,0*
20,1,$1+$1,$4,$5,$6,$7,0*
20,1,$1+$1,$6,$7,$8,$9,0*
20,1,$1+$1,$8,$9,$2,$3,0*%
G04 Aperture macros list end*
%ADD10C,3.200000*%
%ADD11C,1.600000*%
%ADD12RoundRect,0.250000X0.550000X0.550000X-0.550000X0.550000X-0.550000X-0.550000X0.550000X-0.550000X0*%
%ADD13O,1.600000X2.700000*%
%ADD14O,2.700000X1.600000*%
%ADD15RoundRect,0.250000X-0.550000X0.550000X-0.550000X-0.550000X0.550000X-0.550000X0.550000X0.550000X0*%
%ADD16RoundRect,0.250000X-0.550000X-0.550000X0.550000X-0.550000X0.550000X0.550000X-0.550000X0.550000X0*%
%ADD17RoundRect,0.250000X0.600000X0.725000X-0.600000X0.725000X-0.600000X-0.725000X0.600000X-0.725000X0*%
%ADD18O,1.700000X1.950000*%
G04 APERTURE END LIST*
D10*
%TO.C,REF\u002A\u002A*%
X91500000Y-77500000D03*
%TD*%
D11*
%TO.C,R10*%
X146570000Y-96200000D03*
X138950000Y-96200000D03*
%TD*%
D12*
%TO.C,C5*%
X142075113Y-89700000D03*
D11*
X140075113Y-89700000D03*
%TD*%
%TO.C,R16*%
X184070000Y-96200000D03*
X176450000Y-96200000D03*
%TD*%
D10*
%TO.C,REF\u002A\u002A*%
X209000000Y-77500000D03*
%TD*%
D11*
%TO.C,R11*%
X158620000Y-85890000D03*
X158620000Y-93510000D03*
%TD*%
%TO.C,R12*%
X159070000Y-96200000D03*
X151450000Y-96200000D03*
%TD*%
D13*
%TO.C,J5*%
X138900000Y-100700000D03*
X141400000Y-100700000D03*
X146400000Y-100700000D03*
D14*
X143900000Y-105700000D03*
D13*
X148900000Y-100700000D03*
%TD*%
D11*
%TO.C,R9*%
X146120000Y-85890000D03*
X146120000Y-93510000D03*
%TD*%
%TO.C,R18*%
X196570000Y-96200000D03*
X188950000Y-96200000D03*
%TD*%
D13*
%TO.C,J9*%
X188900000Y-100700000D03*
X191400000Y-100700000D03*
X196400000Y-100700000D03*
D14*
X193900000Y-105700000D03*
D13*
X198900000Y-100700000D03*
%TD*%
D11*
%TO.C,R14*%
X171570000Y-96200000D03*
X163950000Y-96200000D03*
%TD*%
D12*
%TO.C,C4*%
X129620000Y-89700000D03*
D11*
X127620000Y-89700000D03*
%TD*%
D12*
%TO.C,C1*%
X92120000Y-89700000D03*
D11*
X90120000Y-89700000D03*
%TD*%
%TO.C,R1*%
X96120000Y-85890000D03*
X96120000Y-93510000D03*
%TD*%
D12*
%TO.C,C10*%
X204575113Y-89700000D03*
D11*
X202575113Y-89700000D03*
%TD*%
%TO.C,R2*%
X96570000Y-96200000D03*
X88950000Y-96200000D03*
%TD*%
D15*
%TO.C,U2*%
X188980000Y-75390000D03*
D11*
X186440000Y-75390000D03*
X183900000Y-75390000D03*
X181360000Y-75390000D03*
X178820000Y-75390000D03*
X176280000Y-75390000D03*
X173740000Y-75390000D03*
X171200000Y-75390000D03*
X171200000Y-83010000D03*
X173740000Y-83010000D03*
X176280000Y-83010000D03*
X178820000Y-83010000D03*
X181360000Y-83010000D03*
X183900000Y-83010000D03*
X186440000Y-83010000D03*
X188980000Y-83010000D03*
%TD*%
%TO.C,R20*%
X209070000Y-96200000D03*
X201450000Y-96200000D03*
%TD*%
%TO.C,R4*%
X109070000Y-96200000D03*
X101450000Y-96200000D03*
%TD*%
D12*
%TO.C,C6*%
X154620000Y-89700000D03*
D11*
X152620000Y-89700000D03*
%TD*%
D13*
%TO.C,J8*%
X176400000Y-100700000D03*
X178900000Y-100700000D03*
X183900000Y-100700000D03*
D14*
X181400000Y-105700000D03*
D13*
X186400000Y-100700000D03*
%TD*%
D16*
%TO.C,C11*%
X162900000Y-77700000D03*
D11*
X164900000Y-77700000D03*
%TD*%
D12*
%TO.C,C3*%
X117120000Y-89700000D03*
D11*
X115120000Y-89700000D03*
%TD*%
%TO.C,R3*%
X108620000Y-85890000D03*
X108620000Y-93510000D03*
%TD*%
D13*
%TO.C,J6*%
X151400000Y-100700000D03*
X153900000Y-100700000D03*
X158900000Y-100700000D03*
D14*
X156400000Y-105700000D03*
D13*
X161400000Y-100700000D03*
%TD*%
D11*
%TO.C,R8*%
X134070000Y-96200000D03*
X126450000Y-96200000D03*
%TD*%
D15*
%TO.C,U1*%
X126480000Y-75390000D03*
D11*
X123940000Y-75390000D03*
X121400000Y-75390000D03*
X118860000Y-75390000D03*
X116320000Y-75390000D03*
X113780000Y-75390000D03*
X111240000Y-75390000D03*
X108700000Y-75390000D03*
X108700000Y-83010000D03*
X111240000Y-83010000D03*
X113780000Y-83010000D03*
X116320000Y-83010000D03*
X118860000Y-83010000D03*
X121400000Y-83010000D03*
X123940000Y-83010000D03*
X126480000Y-83010000D03*
%TD*%
%TO.C,C12*%
X130010000Y-83030000D03*
X132510000Y-83030000D03*
%TD*%
D17*
%TO.C,J11*%
X157900000Y-77770000D03*
D18*
X155400000Y-77770000D03*
X152900000Y-77770000D03*
X150400000Y-77770000D03*
X147900000Y-77770000D03*
X145400000Y-77770000D03*
X142900000Y-77770000D03*
%TD*%
D13*
%TO.C,J3*%
X113900000Y-100700000D03*
X116400000Y-100700000D03*
X121400000Y-100700000D03*
D14*
X118900000Y-105700000D03*
D13*
X123900000Y-100700000D03*
%TD*%
%TO.C,J4*%
X126400000Y-100700000D03*
X128900000Y-100700000D03*
X133900000Y-100700000D03*
D14*
X131400000Y-105700000D03*
D13*
X136400000Y-100700000D03*
%TD*%
D11*
%TO.C,R7*%
X133620000Y-85890000D03*
X133620000Y-93510000D03*
%TD*%
%TO.C,R17*%
X196120000Y-85890000D03*
X196120000Y-93510000D03*
%TD*%
D12*
%TO.C,C9*%
X192120000Y-89700000D03*
D11*
X190120000Y-89700000D03*
%TD*%
%TO.C,R19*%
X208620000Y-85890000D03*
X208620000Y-93510000D03*
%TD*%
D13*
%TO.C,J7*%
X163900000Y-100700000D03*
X166400000Y-100700000D03*
X171400000Y-100700000D03*
D14*
X168900000Y-105700000D03*
D13*
X173900000Y-100700000D03*
%TD*%
%TO.C,J10*%
X201400000Y-100700000D03*
X203900000Y-100700000D03*
X208900000Y-100700000D03*
D14*
X206400000Y-105700000D03*
D13*
X211400000Y-100700000D03*
%TD*%
%TO.C,J1*%
X88900000Y-100700000D03*
X91400000Y-100700000D03*
X96400000Y-100700000D03*
D14*
X93900000Y-105700000D03*
D13*
X98900000Y-100700000D03*
%TD*%
D11*
%TO.C,C13*%
X192580000Y-83030000D03*
X195080000Y-83030000D03*
%TD*%
D12*
%TO.C,C2*%
X104620000Y-89700000D03*
D11*
X102620000Y-89700000D03*
%TD*%
%TO.C,R5*%
X121120000Y-85890000D03*
X121120000Y-93510000D03*
%TD*%
%TO.C,R13*%
X171120000Y-85890000D03*
X171120000Y-93510000D03*
%TD*%
D12*
%TO.C,C8*%
X179575113Y-89700000D03*
D11*
X177575113Y-89700000D03*
%TD*%
%TO.C,R15*%
X183620000Y-85890000D03*
X183620000Y-93510000D03*
%TD*%
D13*
%TO.C,J2*%
X101390000Y-100700000D03*
X103890000Y-100700000D03*
X108890000Y-100700000D03*
D14*
X106390000Y-105700000D03*
D13*
X111390000Y-100700000D03*
%TD*%
D12*
%TO.C,C7*%
X167120000Y-89700000D03*
D11*
X165120000Y-89700000D03*
%TD*%
%TO.C,R6*%
X121570000Y-96200000D03*
X113950000Y-96200000D03*
%TD*%
M02*
