%TF.GenerationSoftware,KiCad,Pcbnew,9.0.3*%
%TF.CreationDate,2025-09-24T15:53:13+02:00*%
%TF.ProjectId,Suncommander-SensorsModule,53756e63-6f6d-46d6-916e-6465722d5365,rev?*%
%TF.SameCoordinates,Original*%
%TF.FileFunction,Legend,Top*%
%TF.FilePolarity,Positive*%
%FSLAX46Y46*%
G04 Gerber Fmt 4.6, Leading zero omitted, Abs format (unit mm)*
G04 Created by KiCad (PCBNEW 9.0.3) date 2025-09-24 15:53:13*
%MOMM*%
%LPD*%
G01*
G04 APERTURE LIST*
%ADD10C,0.150000*%
%ADD11C,0.120000*%
%ADD12C,0.100000*%
G04 APERTURE END LIST*
D10*
X89289160Y-82212256D02*
X89432017Y-82259875D01*
X89432017Y-82259875D02*
X89670112Y-82259875D01*
X89670112Y-82259875D02*
X89765350Y-82212256D01*
X89765350Y-82212256D02*
X89812969Y-82164636D01*
X89812969Y-82164636D02*
X89860588Y-82069398D01*
X89860588Y-82069398D02*
X89860588Y-81974160D01*
X89860588Y-81974160D02*
X89812969Y-81878922D01*
X89812969Y-81878922D02*
X89765350Y-81831303D01*
X89765350Y-81831303D02*
X89670112Y-81783684D01*
X89670112Y-81783684D02*
X89479636Y-81736065D01*
X89479636Y-81736065D02*
X89384398Y-81688446D01*
X89384398Y-81688446D02*
X89336779Y-81640827D01*
X89336779Y-81640827D02*
X89289160Y-81545589D01*
X89289160Y-81545589D02*
X89289160Y-81450351D01*
X89289160Y-81450351D02*
X89336779Y-81355113D01*
X89336779Y-81355113D02*
X89384398Y-81307494D01*
X89384398Y-81307494D02*
X89479636Y-81259875D01*
X89479636Y-81259875D02*
X89717731Y-81259875D01*
X89717731Y-81259875D02*
X89860588Y-81307494D01*
X90860588Y-82164636D02*
X90812969Y-82212256D01*
X90812969Y-82212256D02*
X90670112Y-82259875D01*
X90670112Y-82259875D02*
X90574874Y-82259875D01*
X90574874Y-82259875D02*
X90432017Y-82212256D01*
X90432017Y-82212256D02*
X90336779Y-82117017D01*
X90336779Y-82117017D02*
X90289160Y-82021779D01*
X90289160Y-82021779D02*
X90241541Y-81831303D01*
X90241541Y-81831303D02*
X90241541Y-81688446D01*
X90241541Y-81688446D02*
X90289160Y-81497970D01*
X90289160Y-81497970D02*
X90336779Y-81402732D01*
X90336779Y-81402732D02*
X90432017Y-81307494D01*
X90432017Y-81307494D02*
X90574874Y-81259875D01*
X90574874Y-81259875D02*
X90670112Y-81259875D01*
X90670112Y-81259875D02*
X90812969Y-81307494D01*
X90812969Y-81307494D02*
X90860588Y-81355113D01*
X91289160Y-81878922D02*
X92051065Y-81878922D01*
X92479636Y-82212256D02*
X92622493Y-82259875D01*
X92622493Y-82259875D02*
X92860588Y-82259875D01*
X92860588Y-82259875D02*
X92955826Y-82212256D01*
X92955826Y-82212256D02*
X93003445Y-82164636D01*
X93003445Y-82164636D02*
X93051064Y-82069398D01*
X93051064Y-82069398D02*
X93051064Y-81974160D01*
X93051064Y-81974160D02*
X93003445Y-81878922D01*
X93003445Y-81878922D02*
X92955826Y-81831303D01*
X92955826Y-81831303D02*
X92860588Y-81783684D01*
X92860588Y-81783684D02*
X92670112Y-81736065D01*
X92670112Y-81736065D02*
X92574874Y-81688446D01*
X92574874Y-81688446D02*
X92527255Y-81640827D01*
X92527255Y-81640827D02*
X92479636Y-81545589D01*
X92479636Y-81545589D02*
X92479636Y-81450351D01*
X92479636Y-81450351D02*
X92527255Y-81355113D01*
X92527255Y-81355113D02*
X92574874Y-81307494D01*
X92574874Y-81307494D02*
X92670112Y-81259875D01*
X92670112Y-81259875D02*
X92908207Y-81259875D01*
X92908207Y-81259875D02*
X93051064Y-81307494D01*
X94051064Y-82259875D02*
X93717731Y-81783684D01*
X93479636Y-82259875D02*
X93479636Y-81259875D01*
X93479636Y-81259875D02*
X93860588Y-81259875D01*
X93860588Y-81259875D02*
X93955826Y-81307494D01*
X93955826Y-81307494D02*
X94003445Y-81355113D01*
X94003445Y-81355113D02*
X94051064Y-81450351D01*
X94051064Y-81450351D02*
X94051064Y-81593208D01*
X94051064Y-81593208D02*
X94003445Y-81688446D01*
X94003445Y-81688446D02*
X93955826Y-81736065D01*
X93955826Y-81736065D02*
X93860588Y-81783684D01*
X93860588Y-81783684D02*
X93479636Y-81783684D01*
X94479636Y-82259875D02*
X94479636Y-81259875D01*
X94479636Y-81259875D02*
X94812969Y-81974160D01*
X94812969Y-81974160D02*
X95146302Y-81259875D01*
X95146302Y-81259875D02*
X95146302Y-82259875D01*
X96241541Y-81259875D02*
X96574874Y-82259875D01*
X96574874Y-82259875D02*
X96908207Y-81259875D01*
X97765350Y-82259875D02*
X97193922Y-82259875D01*
X97479636Y-82259875D02*
X97479636Y-81259875D01*
X97479636Y-81259875D02*
X97384398Y-81402732D01*
X97384398Y-81402732D02*
X97289160Y-81497970D01*
X97289160Y-81497970D02*
X97193922Y-81545589D01*
X89336779Y-83869819D02*
X89336779Y-82869819D01*
X89336779Y-82869819D02*
X89574874Y-82869819D01*
X89574874Y-82869819D02*
X89717731Y-82917438D01*
X89717731Y-82917438D02*
X89812969Y-83012676D01*
X89812969Y-83012676D02*
X89860588Y-83107914D01*
X89860588Y-83107914D02*
X89908207Y-83298390D01*
X89908207Y-83298390D02*
X89908207Y-83441247D01*
X89908207Y-83441247D02*
X89860588Y-83631723D01*
X89860588Y-83631723D02*
X89812969Y-83726961D01*
X89812969Y-83726961D02*
X89717731Y-83822200D01*
X89717731Y-83822200D02*
X89574874Y-83869819D01*
X89574874Y-83869819D02*
X89336779Y-83869819D01*
X90717731Y-83822200D02*
X90622493Y-83869819D01*
X90622493Y-83869819D02*
X90432017Y-83869819D01*
X90432017Y-83869819D02*
X90336779Y-83822200D01*
X90336779Y-83822200D02*
X90289160Y-83726961D01*
X90289160Y-83726961D02*
X90289160Y-83346009D01*
X90289160Y-83346009D02*
X90336779Y-83250771D01*
X90336779Y-83250771D02*
X90432017Y-83203152D01*
X90432017Y-83203152D02*
X90622493Y-83203152D01*
X90622493Y-83203152D02*
X90717731Y-83250771D01*
X90717731Y-83250771D02*
X90765350Y-83346009D01*
X90765350Y-83346009D02*
X90765350Y-83441247D01*
X90765350Y-83441247D02*
X90289160Y-83536485D01*
X91146303Y-83822200D02*
X91241541Y-83869819D01*
X91241541Y-83869819D02*
X91432017Y-83869819D01*
X91432017Y-83869819D02*
X91527255Y-83822200D01*
X91527255Y-83822200D02*
X91574874Y-83726961D01*
X91574874Y-83726961D02*
X91574874Y-83679342D01*
X91574874Y-83679342D02*
X91527255Y-83584104D01*
X91527255Y-83584104D02*
X91432017Y-83536485D01*
X91432017Y-83536485D02*
X91289160Y-83536485D01*
X91289160Y-83536485D02*
X91193922Y-83488866D01*
X91193922Y-83488866D02*
X91146303Y-83393628D01*
X91146303Y-83393628D02*
X91146303Y-83346009D01*
X91146303Y-83346009D02*
X91193922Y-83250771D01*
X91193922Y-83250771D02*
X91289160Y-83203152D01*
X91289160Y-83203152D02*
X91432017Y-83203152D01*
X91432017Y-83203152D02*
X91527255Y-83250771D01*
X92003446Y-83869819D02*
X92003446Y-83203152D01*
X92003446Y-82869819D02*
X91955827Y-82917438D01*
X91955827Y-82917438D02*
X92003446Y-82965057D01*
X92003446Y-82965057D02*
X92051065Y-82917438D01*
X92051065Y-82917438D02*
X92003446Y-82869819D01*
X92003446Y-82869819D02*
X92003446Y-82965057D01*
X92908207Y-83203152D02*
X92908207Y-84012676D01*
X92908207Y-84012676D02*
X92860588Y-84107914D01*
X92860588Y-84107914D02*
X92812969Y-84155533D01*
X92812969Y-84155533D02*
X92717731Y-84203152D01*
X92717731Y-84203152D02*
X92574874Y-84203152D01*
X92574874Y-84203152D02*
X92479636Y-84155533D01*
X92908207Y-83822200D02*
X92812969Y-83869819D01*
X92812969Y-83869819D02*
X92622493Y-83869819D01*
X92622493Y-83869819D02*
X92527255Y-83822200D01*
X92527255Y-83822200D02*
X92479636Y-83774580D01*
X92479636Y-83774580D02*
X92432017Y-83679342D01*
X92432017Y-83679342D02*
X92432017Y-83393628D01*
X92432017Y-83393628D02*
X92479636Y-83298390D01*
X92479636Y-83298390D02*
X92527255Y-83250771D01*
X92527255Y-83250771D02*
X92622493Y-83203152D01*
X92622493Y-83203152D02*
X92812969Y-83203152D01*
X92812969Y-83203152D02*
X92908207Y-83250771D01*
X93384398Y-83203152D02*
X93384398Y-83869819D01*
X93384398Y-83298390D02*
X93432017Y-83250771D01*
X93432017Y-83250771D02*
X93527255Y-83203152D01*
X93527255Y-83203152D02*
X93670112Y-83203152D01*
X93670112Y-83203152D02*
X93765350Y-83250771D01*
X93765350Y-83250771D02*
X93812969Y-83346009D01*
X93812969Y-83346009D02*
X93812969Y-83869819D01*
X94670112Y-83822200D02*
X94574874Y-83869819D01*
X94574874Y-83869819D02*
X94384398Y-83869819D01*
X94384398Y-83869819D02*
X94289160Y-83822200D01*
X94289160Y-83822200D02*
X94241541Y-83726961D01*
X94241541Y-83726961D02*
X94241541Y-83346009D01*
X94241541Y-83346009D02*
X94289160Y-83250771D01*
X94289160Y-83250771D02*
X94384398Y-83203152D01*
X94384398Y-83203152D02*
X94574874Y-83203152D01*
X94574874Y-83203152D02*
X94670112Y-83250771D01*
X94670112Y-83250771D02*
X94717731Y-83346009D01*
X94717731Y-83346009D02*
X94717731Y-83441247D01*
X94717731Y-83441247D02*
X94241541Y-83536485D01*
X95574874Y-83869819D02*
X95574874Y-82869819D01*
X95574874Y-83822200D02*
X95479636Y-83869819D01*
X95479636Y-83869819D02*
X95289160Y-83869819D01*
X95289160Y-83869819D02*
X95193922Y-83822200D01*
X95193922Y-83822200D02*
X95146303Y-83774580D01*
X95146303Y-83774580D02*
X95098684Y-83679342D01*
X95098684Y-83679342D02*
X95098684Y-83393628D01*
X95098684Y-83393628D02*
X95146303Y-83298390D01*
X95146303Y-83298390D02*
X95193922Y-83250771D01*
X95193922Y-83250771D02*
X95289160Y-83203152D01*
X95289160Y-83203152D02*
X95479636Y-83203152D01*
X95479636Y-83203152D02*
X95574874Y-83250771D01*
X96812970Y-83869819D02*
X96812970Y-82869819D01*
X96812970Y-83250771D02*
X96908208Y-83203152D01*
X96908208Y-83203152D02*
X97098684Y-83203152D01*
X97098684Y-83203152D02*
X97193922Y-83250771D01*
X97193922Y-83250771D02*
X97241541Y-83298390D01*
X97241541Y-83298390D02*
X97289160Y-83393628D01*
X97289160Y-83393628D02*
X97289160Y-83679342D01*
X97289160Y-83679342D02*
X97241541Y-83774580D01*
X97241541Y-83774580D02*
X97193922Y-83822200D01*
X97193922Y-83822200D02*
X97098684Y-83869819D01*
X97098684Y-83869819D02*
X96908208Y-83869819D01*
X96908208Y-83869819D02*
X96812970Y-83822200D01*
X97622494Y-83203152D02*
X97860589Y-83869819D01*
X98098684Y-83203152D02*
X97860589Y-83869819D01*
X97860589Y-83869819D02*
X97765351Y-84107914D01*
X97765351Y-84107914D02*
X97717732Y-84155533D01*
X97717732Y-84155533D02*
X97622494Y-84203152D01*
X99241542Y-83869819D02*
X99241542Y-83203152D01*
X99241542Y-83298390D02*
X99289161Y-83250771D01*
X99289161Y-83250771D02*
X99384399Y-83203152D01*
X99384399Y-83203152D02*
X99527256Y-83203152D01*
X99527256Y-83203152D02*
X99622494Y-83250771D01*
X99622494Y-83250771D02*
X99670113Y-83346009D01*
X99670113Y-83346009D02*
X99670113Y-83869819D01*
X99670113Y-83346009D02*
X99717732Y-83250771D01*
X99717732Y-83250771D02*
X99812970Y-83203152D01*
X99812970Y-83203152D02*
X99955827Y-83203152D01*
X99955827Y-83203152D02*
X100051066Y-83250771D01*
X100051066Y-83250771D02*
X100098685Y-83346009D01*
X100098685Y-83346009D02*
X100098685Y-83869819D01*
X101003446Y-83203152D02*
X101003446Y-83869819D01*
X100765351Y-82822200D02*
X100527256Y-83536485D01*
X100527256Y-83536485D02*
X101146303Y-83536485D01*
X101432018Y-82869819D02*
X102098684Y-82869819D01*
X102098684Y-82869819D02*
X101670113Y-83869819D01*
X102860589Y-83822200D02*
X102765351Y-83869819D01*
X102765351Y-83869819D02*
X102574875Y-83869819D01*
X102574875Y-83869819D02*
X102479637Y-83822200D01*
X102479637Y-83822200D02*
X102432018Y-83726961D01*
X102432018Y-83726961D02*
X102432018Y-83346009D01*
X102432018Y-83346009D02*
X102479637Y-83250771D01*
X102479637Y-83250771D02*
X102574875Y-83203152D01*
X102574875Y-83203152D02*
X102765351Y-83203152D01*
X102765351Y-83203152D02*
X102860589Y-83250771D01*
X102860589Y-83250771D02*
X102908208Y-83346009D01*
X102908208Y-83346009D02*
X102908208Y-83441247D01*
X102908208Y-83441247D02*
X102432018Y-83536485D01*
X103765351Y-83203152D02*
X103765351Y-83869819D01*
X103336780Y-83203152D02*
X103336780Y-83726961D01*
X103336780Y-83726961D02*
X103384399Y-83822200D01*
X103384399Y-83822200D02*
X103479637Y-83869819D01*
X103479637Y-83869819D02*
X103622494Y-83869819D01*
X103622494Y-83869819D02*
X103717732Y-83822200D01*
X103717732Y-83822200D02*
X103765351Y-83774580D01*
X104193923Y-83822200D02*
X104289161Y-83869819D01*
X104289161Y-83869819D02*
X104479637Y-83869819D01*
X104479637Y-83869819D02*
X104574875Y-83822200D01*
X104574875Y-83822200D02*
X104622494Y-83726961D01*
X104622494Y-83726961D02*
X104622494Y-83679342D01*
X104622494Y-83679342D02*
X104574875Y-83584104D01*
X104574875Y-83584104D02*
X104479637Y-83536485D01*
X104479637Y-83536485D02*
X104336780Y-83536485D01*
X104336780Y-83536485D02*
X104241542Y-83488866D01*
X104241542Y-83488866D02*
X104193923Y-83393628D01*
X104193923Y-83393628D02*
X104193923Y-83346009D01*
X104193923Y-83346009D02*
X104241542Y-83250771D01*
X104241542Y-83250771D02*
X104336780Y-83203152D01*
X104336780Y-83203152D02*
X104479637Y-83203152D01*
X104479637Y-83203152D02*
X104574875Y-83250771D01*
X105003447Y-82965057D02*
X105051066Y-82917438D01*
X105051066Y-82917438D02*
X105146304Y-82869819D01*
X105146304Y-82869819D02*
X105384399Y-82869819D01*
X105384399Y-82869819D02*
X105479637Y-82917438D01*
X105479637Y-82917438D02*
X105527256Y-82965057D01*
X105527256Y-82965057D02*
X105574875Y-83060295D01*
X105574875Y-83060295D02*
X105574875Y-83155533D01*
X105574875Y-83155533D02*
X105527256Y-83298390D01*
X105527256Y-83298390D02*
X104955828Y-83869819D01*
X104955828Y-83869819D02*
X105574875Y-83869819D01*
X142117142Y-94154819D02*
X141783809Y-93678628D01*
X141545714Y-94154819D02*
X141545714Y-93154819D01*
X141545714Y-93154819D02*
X141926666Y-93154819D01*
X141926666Y-93154819D02*
X142021904Y-93202438D01*
X142021904Y-93202438D02*
X142069523Y-93250057D01*
X142069523Y-93250057D02*
X142117142Y-93345295D01*
X142117142Y-93345295D02*
X142117142Y-93488152D01*
X142117142Y-93488152D02*
X142069523Y-93583390D01*
X142069523Y-93583390D02*
X142021904Y-93631009D01*
X142021904Y-93631009D02*
X141926666Y-93678628D01*
X141926666Y-93678628D02*
X141545714Y-93678628D01*
X143069523Y-94154819D02*
X142498095Y-94154819D01*
X142783809Y-94154819D02*
X142783809Y-93154819D01*
X142783809Y-93154819D02*
X142688571Y-93297676D01*
X142688571Y-93297676D02*
X142593333Y-93392914D01*
X142593333Y-93392914D02*
X142498095Y-93440533D01*
X143688571Y-93154819D02*
X143783809Y-93154819D01*
X143783809Y-93154819D02*
X143879047Y-93202438D01*
X143879047Y-93202438D02*
X143926666Y-93250057D01*
X143926666Y-93250057D02*
X143974285Y-93345295D01*
X143974285Y-93345295D02*
X144021904Y-93535771D01*
X144021904Y-93535771D02*
X144021904Y-93773866D01*
X144021904Y-93773866D02*
X143974285Y-93964342D01*
X143974285Y-93964342D02*
X143926666Y-94059580D01*
X143926666Y-94059580D02*
X143879047Y-94107200D01*
X143879047Y-94107200D02*
X143783809Y-94154819D01*
X143783809Y-94154819D02*
X143688571Y-94154819D01*
X143688571Y-94154819D02*
X143593333Y-94107200D01*
X143593333Y-94107200D02*
X143545714Y-94059580D01*
X143545714Y-94059580D02*
X143498095Y-93964342D01*
X143498095Y-93964342D02*
X143450476Y-93773866D01*
X143450476Y-93773866D02*
X143450476Y-93535771D01*
X143450476Y-93535771D02*
X143498095Y-93345295D01*
X143498095Y-93345295D02*
X143545714Y-93250057D01*
X143545714Y-93250057D02*
X143593333Y-93202438D01*
X143593333Y-93202438D02*
X143688571Y-93154819D01*
X140953333Y-86559580D02*
X140905714Y-86607200D01*
X140905714Y-86607200D02*
X140762857Y-86654819D01*
X140762857Y-86654819D02*
X140667619Y-86654819D01*
X140667619Y-86654819D02*
X140524762Y-86607200D01*
X140524762Y-86607200D02*
X140429524Y-86511961D01*
X140429524Y-86511961D02*
X140381905Y-86416723D01*
X140381905Y-86416723D02*
X140334286Y-86226247D01*
X140334286Y-86226247D02*
X140334286Y-86083390D01*
X140334286Y-86083390D02*
X140381905Y-85892914D01*
X140381905Y-85892914D02*
X140429524Y-85797676D01*
X140429524Y-85797676D02*
X140524762Y-85702438D01*
X140524762Y-85702438D02*
X140667619Y-85654819D01*
X140667619Y-85654819D02*
X140762857Y-85654819D01*
X140762857Y-85654819D02*
X140905714Y-85702438D01*
X140905714Y-85702438D02*
X140953333Y-85750057D01*
X141858095Y-85654819D02*
X141381905Y-85654819D01*
X141381905Y-85654819D02*
X141334286Y-86131009D01*
X141334286Y-86131009D02*
X141381905Y-86083390D01*
X141381905Y-86083390D02*
X141477143Y-86035771D01*
X141477143Y-86035771D02*
X141715238Y-86035771D01*
X141715238Y-86035771D02*
X141810476Y-86083390D01*
X141810476Y-86083390D02*
X141858095Y-86131009D01*
X141858095Y-86131009D02*
X141905714Y-86226247D01*
X141905714Y-86226247D02*
X141905714Y-86464342D01*
X141905714Y-86464342D02*
X141858095Y-86559580D01*
X141858095Y-86559580D02*
X141810476Y-86607200D01*
X141810476Y-86607200D02*
X141715238Y-86654819D01*
X141715238Y-86654819D02*
X141477143Y-86654819D01*
X141477143Y-86654819D02*
X141381905Y-86607200D01*
X141381905Y-86607200D02*
X141334286Y-86559580D01*
X179617142Y-94154819D02*
X179283809Y-93678628D01*
X179045714Y-94154819D02*
X179045714Y-93154819D01*
X179045714Y-93154819D02*
X179426666Y-93154819D01*
X179426666Y-93154819D02*
X179521904Y-93202438D01*
X179521904Y-93202438D02*
X179569523Y-93250057D01*
X179569523Y-93250057D02*
X179617142Y-93345295D01*
X179617142Y-93345295D02*
X179617142Y-93488152D01*
X179617142Y-93488152D02*
X179569523Y-93583390D01*
X179569523Y-93583390D02*
X179521904Y-93631009D01*
X179521904Y-93631009D02*
X179426666Y-93678628D01*
X179426666Y-93678628D02*
X179045714Y-93678628D01*
X180569523Y-94154819D02*
X179998095Y-94154819D01*
X180283809Y-94154819D02*
X180283809Y-93154819D01*
X180283809Y-93154819D02*
X180188571Y-93297676D01*
X180188571Y-93297676D02*
X180093333Y-93392914D01*
X180093333Y-93392914D02*
X179998095Y-93440533D01*
X181426666Y-93154819D02*
X181236190Y-93154819D01*
X181236190Y-93154819D02*
X181140952Y-93202438D01*
X181140952Y-93202438D02*
X181093333Y-93250057D01*
X181093333Y-93250057D02*
X180998095Y-93392914D01*
X180998095Y-93392914D02*
X180950476Y-93583390D01*
X180950476Y-93583390D02*
X180950476Y-93964342D01*
X180950476Y-93964342D02*
X180998095Y-94059580D01*
X180998095Y-94059580D02*
X181045714Y-94107200D01*
X181045714Y-94107200D02*
X181140952Y-94154819D01*
X181140952Y-94154819D02*
X181331428Y-94154819D01*
X181331428Y-94154819D02*
X181426666Y-94107200D01*
X181426666Y-94107200D02*
X181474285Y-94059580D01*
X181474285Y-94059580D02*
X181521904Y-93964342D01*
X181521904Y-93964342D02*
X181521904Y-93726247D01*
X181521904Y-93726247D02*
X181474285Y-93631009D01*
X181474285Y-93631009D02*
X181426666Y-93583390D01*
X181426666Y-93583390D02*
X181331428Y-93535771D01*
X181331428Y-93535771D02*
X181140952Y-93535771D01*
X181140952Y-93535771D02*
X181045714Y-93583390D01*
X181045714Y-93583390D02*
X180998095Y-93631009D01*
X180998095Y-93631009D02*
X180950476Y-93726247D01*
X161444819Y-90342857D02*
X160968628Y-90676190D01*
X161444819Y-90914285D02*
X160444819Y-90914285D01*
X160444819Y-90914285D02*
X160444819Y-90533333D01*
X160444819Y-90533333D02*
X160492438Y-90438095D01*
X160492438Y-90438095D02*
X160540057Y-90390476D01*
X160540057Y-90390476D02*
X160635295Y-90342857D01*
X160635295Y-90342857D02*
X160778152Y-90342857D01*
X160778152Y-90342857D02*
X160873390Y-90390476D01*
X160873390Y-90390476D02*
X160921009Y-90438095D01*
X160921009Y-90438095D02*
X160968628Y-90533333D01*
X160968628Y-90533333D02*
X160968628Y-90914285D01*
X161444819Y-89390476D02*
X161444819Y-89961904D01*
X161444819Y-89676190D02*
X160444819Y-89676190D01*
X160444819Y-89676190D02*
X160587676Y-89771428D01*
X160587676Y-89771428D02*
X160682914Y-89866666D01*
X160682914Y-89866666D02*
X160730533Y-89961904D01*
X161444819Y-88438095D02*
X161444819Y-89009523D01*
X161444819Y-88723809D02*
X160444819Y-88723809D01*
X160444819Y-88723809D02*
X160587676Y-88819047D01*
X160587676Y-88819047D02*
X160682914Y-88914285D01*
X160682914Y-88914285D02*
X160730533Y-89009523D01*
X154617142Y-94154819D02*
X154283809Y-93678628D01*
X154045714Y-94154819D02*
X154045714Y-93154819D01*
X154045714Y-93154819D02*
X154426666Y-93154819D01*
X154426666Y-93154819D02*
X154521904Y-93202438D01*
X154521904Y-93202438D02*
X154569523Y-93250057D01*
X154569523Y-93250057D02*
X154617142Y-93345295D01*
X154617142Y-93345295D02*
X154617142Y-93488152D01*
X154617142Y-93488152D02*
X154569523Y-93583390D01*
X154569523Y-93583390D02*
X154521904Y-93631009D01*
X154521904Y-93631009D02*
X154426666Y-93678628D01*
X154426666Y-93678628D02*
X154045714Y-93678628D01*
X155569523Y-94154819D02*
X154998095Y-94154819D01*
X155283809Y-94154819D02*
X155283809Y-93154819D01*
X155283809Y-93154819D02*
X155188571Y-93297676D01*
X155188571Y-93297676D02*
X155093333Y-93392914D01*
X155093333Y-93392914D02*
X154998095Y-93440533D01*
X155950476Y-93250057D02*
X155998095Y-93202438D01*
X155998095Y-93202438D02*
X156093333Y-93154819D01*
X156093333Y-93154819D02*
X156331428Y-93154819D01*
X156331428Y-93154819D02*
X156426666Y-93202438D01*
X156426666Y-93202438D02*
X156474285Y-93250057D01*
X156474285Y-93250057D02*
X156521904Y-93345295D01*
X156521904Y-93345295D02*
X156521904Y-93440533D01*
X156521904Y-93440533D02*
X156474285Y-93583390D01*
X156474285Y-93583390D02*
X155902857Y-94154819D01*
X155902857Y-94154819D02*
X156521904Y-94154819D01*
X148666666Y-96954819D02*
X148666666Y-97669104D01*
X148666666Y-97669104D02*
X148619047Y-97811961D01*
X148619047Y-97811961D02*
X148523809Y-97907200D01*
X148523809Y-97907200D02*
X148380952Y-97954819D01*
X148380952Y-97954819D02*
X148285714Y-97954819D01*
X149619047Y-96954819D02*
X149142857Y-96954819D01*
X149142857Y-96954819D02*
X149095238Y-97431009D01*
X149095238Y-97431009D02*
X149142857Y-97383390D01*
X149142857Y-97383390D02*
X149238095Y-97335771D01*
X149238095Y-97335771D02*
X149476190Y-97335771D01*
X149476190Y-97335771D02*
X149571428Y-97383390D01*
X149571428Y-97383390D02*
X149619047Y-97431009D01*
X149619047Y-97431009D02*
X149666666Y-97526247D01*
X149666666Y-97526247D02*
X149666666Y-97764342D01*
X149666666Y-97764342D02*
X149619047Y-97859580D01*
X149619047Y-97859580D02*
X149571428Y-97907200D01*
X149571428Y-97907200D02*
X149476190Y-97954819D01*
X149476190Y-97954819D02*
X149238095Y-97954819D01*
X149238095Y-97954819D02*
X149142857Y-97907200D01*
X149142857Y-97907200D02*
X149095238Y-97859580D01*
X148944819Y-89866666D02*
X148468628Y-90199999D01*
X148944819Y-90438094D02*
X147944819Y-90438094D01*
X147944819Y-90438094D02*
X147944819Y-90057142D01*
X147944819Y-90057142D02*
X147992438Y-89961904D01*
X147992438Y-89961904D02*
X148040057Y-89914285D01*
X148040057Y-89914285D02*
X148135295Y-89866666D01*
X148135295Y-89866666D02*
X148278152Y-89866666D01*
X148278152Y-89866666D02*
X148373390Y-89914285D01*
X148373390Y-89914285D02*
X148421009Y-89961904D01*
X148421009Y-89961904D02*
X148468628Y-90057142D01*
X148468628Y-90057142D02*
X148468628Y-90438094D01*
X148944819Y-89390475D02*
X148944819Y-89199999D01*
X148944819Y-89199999D02*
X148897200Y-89104761D01*
X148897200Y-89104761D02*
X148849580Y-89057142D01*
X148849580Y-89057142D02*
X148706723Y-88961904D01*
X148706723Y-88961904D02*
X148516247Y-88914285D01*
X148516247Y-88914285D02*
X148135295Y-88914285D01*
X148135295Y-88914285D02*
X148040057Y-88961904D01*
X148040057Y-88961904D02*
X147992438Y-89009523D01*
X147992438Y-89009523D02*
X147944819Y-89104761D01*
X147944819Y-89104761D02*
X147944819Y-89295237D01*
X147944819Y-89295237D02*
X147992438Y-89390475D01*
X147992438Y-89390475D02*
X148040057Y-89438094D01*
X148040057Y-89438094D02*
X148135295Y-89485713D01*
X148135295Y-89485713D02*
X148373390Y-89485713D01*
X148373390Y-89485713D02*
X148468628Y-89438094D01*
X148468628Y-89438094D02*
X148516247Y-89390475D01*
X148516247Y-89390475D02*
X148563866Y-89295237D01*
X148563866Y-89295237D02*
X148563866Y-89104761D01*
X148563866Y-89104761D02*
X148516247Y-89009523D01*
X148516247Y-89009523D02*
X148468628Y-88961904D01*
X148468628Y-88961904D02*
X148373390Y-88914285D01*
X192117142Y-94154819D02*
X191783809Y-93678628D01*
X191545714Y-94154819D02*
X191545714Y-93154819D01*
X191545714Y-93154819D02*
X191926666Y-93154819D01*
X191926666Y-93154819D02*
X192021904Y-93202438D01*
X192021904Y-93202438D02*
X192069523Y-93250057D01*
X192069523Y-93250057D02*
X192117142Y-93345295D01*
X192117142Y-93345295D02*
X192117142Y-93488152D01*
X192117142Y-93488152D02*
X192069523Y-93583390D01*
X192069523Y-93583390D02*
X192021904Y-93631009D01*
X192021904Y-93631009D02*
X191926666Y-93678628D01*
X191926666Y-93678628D02*
X191545714Y-93678628D01*
X193069523Y-94154819D02*
X192498095Y-94154819D01*
X192783809Y-94154819D02*
X192783809Y-93154819D01*
X192783809Y-93154819D02*
X192688571Y-93297676D01*
X192688571Y-93297676D02*
X192593333Y-93392914D01*
X192593333Y-93392914D02*
X192498095Y-93440533D01*
X193640952Y-93583390D02*
X193545714Y-93535771D01*
X193545714Y-93535771D02*
X193498095Y-93488152D01*
X193498095Y-93488152D02*
X193450476Y-93392914D01*
X193450476Y-93392914D02*
X193450476Y-93345295D01*
X193450476Y-93345295D02*
X193498095Y-93250057D01*
X193498095Y-93250057D02*
X193545714Y-93202438D01*
X193545714Y-93202438D02*
X193640952Y-93154819D01*
X193640952Y-93154819D02*
X193831428Y-93154819D01*
X193831428Y-93154819D02*
X193926666Y-93202438D01*
X193926666Y-93202438D02*
X193974285Y-93250057D01*
X193974285Y-93250057D02*
X194021904Y-93345295D01*
X194021904Y-93345295D02*
X194021904Y-93392914D01*
X194021904Y-93392914D02*
X193974285Y-93488152D01*
X193974285Y-93488152D02*
X193926666Y-93535771D01*
X193926666Y-93535771D02*
X193831428Y-93583390D01*
X193831428Y-93583390D02*
X193640952Y-93583390D01*
X193640952Y-93583390D02*
X193545714Y-93631009D01*
X193545714Y-93631009D02*
X193498095Y-93678628D01*
X193498095Y-93678628D02*
X193450476Y-93773866D01*
X193450476Y-93773866D02*
X193450476Y-93964342D01*
X193450476Y-93964342D02*
X193498095Y-94059580D01*
X193498095Y-94059580D02*
X193545714Y-94107200D01*
X193545714Y-94107200D02*
X193640952Y-94154819D01*
X193640952Y-94154819D02*
X193831428Y-94154819D01*
X193831428Y-94154819D02*
X193926666Y-94107200D01*
X193926666Y-94107200D02*
X193974285Y-94059580D01*
X193974285Y-94059580D02*
X194021904Y-93964342D01*
X194021904Y-93964342D02*
X194021904Y-93773866D01*
X194021904Y-93773866D02*
X193974285Y-93678628D01*
X193974285Y-93678628D02*
X193926666Y-93631009D01*
X193926666Y-93631009D02*
X193831428Y-93583390D01*
X198666666Y-96954819D02*
X198666666Y-97669104D01*
X198666666Y-97669104D02*
X198619047Y-97811961D01*
X198619047Y-97811961D02*
X198523809Y-97907200D01*
X198523809Y-97907200D02*
X198380952Y-97954819D01*
X198380952Y-97954819D02*
X198285714Y-97954819D01*
X199190476Y-97954819D02*
X199380952Y-97954819D01*
X199380952Y-97954819D02*
X199476190Y-97907200D01*
X199476190Y-97907200D02*
X199523809Y-97859580D01*
X199523809Y-97859580D02*
X199619047Y-97716723D01*
X199619047Y-97716723D02*
X199666666Y-97526247D01*
X199666666Y-97526247D02*
X199666666Y-97145295D01*
X199666666Y-97145295D02*
X199619047Y-97050057D01*
X199619047Y-97050057D02*
X199571428Y-97002438D01*
X199571428Y-97002438D02*
X199476190Y-96954819D01*
X199476190Y-96954819D02*
X199285714Y-96954819D01*
X199285714Y-96954819D02*
X199190476Y-97002438D01*
X199190476Y-97002438D02*
X199142857Y-97050057D01*
X199142857Y-97050057D02*
X199095238Y-97145295D01*
X199095238Y-97145295D02*
X199095238Y-97383390D01*
X199095238Y-97383390D02*
X199142857Y-97478628D01*
X199142857Y-97478628D02*
X199190476Y-97526247D01*
X199190476Y-97526247D02*
X199285714Y-97573866D01*
X199285714Y-97573866D02*
X199476190Y-97573866D01*
X199476190Y-97573866D02*
X199571428Y-97526247D01*
X199571428Y-97526247D02*
X199619047Y-97478628D01*
X199619047Y-97478628D02*
X199666666Y-97383390D01*
X167117142Y-94154819D02*
X166783809Y-93678628D01*
X166545714Y-94154819D02*
X166545714Y-93154819D01*
X166545714Y-93154819D02*
X166926666Y-93154819D01*
X166926666Y-93154819D02*
X167021904Y-93202438D01*
X167021904Y-93202438D02*
X167069523Y-93250057D01*
X167069523Y-93250057D02*
X167117142Y-93345295D01*
X167117142Y-93345295D02*
X167117142Y-93488152D01*
X167117142Y-93488152D02*
X167069523Y-93583390D01*
X167069523Y-93583390D02*
X167021904Y-93631009D01*
X167021904Y-93631009D02*
X166926666Y-93678628D01*
X166926666Y-93678628D02*
X166545714Y-93678628D01*
X168069523Y-94154819D02*
X167498095Y-94154819D01*
X167783809Y-94154819D02*
X167783809Y-93154819D01*
X167783809Y-93154819D02*
X167688571Y-93297676D01*
X167688571Y-93297676D02*
X167593333Y-93392914D01*
X167593333Y-93392914D02*
X167498095Y-93440533D01*
X168926666Y-93488152D02*
X168926666Y-94154819D01*
X168688571Y-93107200D02*
X168450476Y-93821485D01*
X168450476Y-93821485D02*
X169069523Y-93821485D01*
X128453333Y-86559580D02*
X128405714Y-86607200D01*
X128405714Y-86607200D02*
X128262857Y-86654819D01*
X128262857Y-86654819D02*
X128167619Y-86654819D01*
X128167619Y-86654819D02*
X128024762Y-86607200D01*
X128024762Y-86607200D02*
X127929524Y-86511961D01*
X127929524Y-86511961D02*
X127881905Y-86416723D01*
X127881905Y-86416723D02*
X127834286Y-86226247D01*
X127834286Y-86226247D02*
X127834286Y-86083390D01*
X127834286Y-86083390D02*
X127881905Y-85892914D01*
X127881905Y-85892914D02*
X127929524Y-85797676D01*
X127929524Y-85797676D02*
X128024762Y-85702438D01*
X128024762Y-85702438D02*
X128167619Y-85654819D01*
X128167619Y-85654819D02*
X128262857Y-85654819D01*
X128262857Y-85654819D02*
X128405714Y-85702438D01*
X128405714Y-85702438D02*
X128453333Y-85750057D01*
X129310476Y-85988152D02*
X129310476Y-86654819D01*
X129072381Y-85607200D02*
X128834286Y-86321485D01*
X128834286Y-86321485D02*
X129453333Y-86321485D01*
X90998220Y-86559580D02*
X90950601Y-86607200D01*
X90950601Y-86607200D02*
X90807744Y-86654819D01*
X90807744Y-86654819D02*
X90712506Y-86654819D01*
X90712506Y-86654819D02*
X90569649Y-86607200D01*
X90569649Y-86607200D02*
X90474411Y-86511961D01*
X90474411Y-86511961D02*
X90426792Y-86416723D01*
X90426792Y-86416723D02*
X90379173Y-86226247D01*
X90379173Y-86226247D02*
X90379173Y-86083390D01*
X90379173Y-86083390D02*
X90426792Y-85892914D01*
X90426792Y-85892914D02*
X90474411Y-85797676D01*
X90474411Y-85797676D02*
X90569649Y-85702438D01*
X90569649Y-85702438D02*
X90712506Y-85654819D01*
X90712506Y-85654819D02*
X90807744Y-85654819D01*
X90807744Y-85654819D02*
X90950601Y-85702438D01*
X90950601Y-85702438D02*
X90998220Y-85750057D01*
X91950601Y-86654819D02*
X91379173Y-86654819D01*
X91664887Y-86654819D02*
X91664887Y-85654819D01*
X91664887Y-85654819D02*
X91569649Y-85797676D01*
X91569649Y-85797676D02*
X91474411Y-85892914D01*
X91474411Y-85892914D02*
X91379173Y-85940533D01*
X98944819Y-89866666D02*
X98468628Y-90199999D01*
X98944819Y-90438094D02*
X97944819Y-90438094D01*
X97944819Y-90438094D02*
X97944819Y-90057142D01*
X97944819Y-90057142D02*
X97992438Y-89961904D01*
X97992438Y-89961904D02*
X98040057Y-89914285D01*
X98040057Y-89914285D02*
X98135295Y-89866666D01*
X98135295Y-89866666D02*
X98278152Y-89866666D01*
X98278152Y-89866666D02*
X98373390Y-89914285D01*
X98373390Y-89914285D02*
X98421009Y-89961904D01*
X98421009Y-89961904D02*
X98468628Y-90057142D01*
X98468628Y-90057142D02*
X98468628Y-90438094D01*
X98944819Y-88914285D02*
X98944819Y-89485713D01*
X98944819Y-89199999D02*
X97944819Y-89199999D01*
X97944819Y-89199999D02*
X98087676Y-89295237D01*
X98087676Y-89295237D02*
X98182914Y-89390475D01*
X98182914Y-89390475D02*
X98230533Y-89485713D01*
X202977142Y-86559580D02*
X202929523Y-86607200D01*
X202929523Y-86607200D02*
X202786666Y-86654819D01*
X202786666Y-86654819D02*
X202691428Y-86654819D01*
X202691428Y-86654819D02*
X202548571Y-86607200D01*
X202548571Y-86607200D02*
X202453333Y-86511961D01*
X202453333Y-86511961D02*
X202405714Y-86416723D01*
X202405714Y-86416723D02*
X202358095Y-86226247D01*
X202358095Y-86226247D02*
X202358095Y-86083390D01*
X202358095Y-86083390D02*
X202405714Y-85892914D01*
X202405714Y-85892914D02*
X202453333Y-85797676D01*
X202453333Y-85797676D02*
X202548571Y-85702438D01*
X202548571Y-85702438D02*
X202691428Y-85654819D01*
X202691428Y-85654819D02*
X202786666Y-85654819D01*
X202786666Y-85654819D02*
X202929523Y-85702438D01*
X202929523Y-85702438D02*
X202977142Y-85750057D01*
X203929523Y-86654819D02*
X203358095Y-86654819D01*
X203643809Y-86654819D02*
X203643809Y-85654819D01*
X203643809Y-85654819D02*
X203548571Y-85797676D01*
X203548571Y-85797676D02*
X203453333Y-85892914D01*
X203453333Y-85892914D02*
X203358095Y-85940533D01*
X204548571Y-85654819D02*
X204643809Y-85654819D01*
X204643809Y-85654819D02*
X204739047Y-85702438D01*
X204739047Y-85702438D02*
X204786666Y-85750057D01*
X204786666Y-85750057D02*
X204834285Y-85845295D01*
X204834285Y-85845295D02*
X204881904Y-86035771D01*
X204881904Y-86035771D02*
X204881904Y-86273866D01*
X204881904Y-86273866D02*
X204834285Y-86464342D01*
X204834285Y-86464342D02*
X204786666Y-86559580D01*
X204786666Y-86559580D02*
X204739047Y-86607200D01*
X204739047Y-86607200D02*
X204643809Y-86654819D01*
X204643809Y-86654819D02*
X204548571Y-86654819D01*
X204548571Y-86654819D02*
X204453333Y-86607200D01*
X204453333Y-86607200D02*
X204405714Y-86559580D01*
X204405714Y-86559580D02*
X204358095Y-86464342D01*
X204358095Y-86464342D02*
X204310476Y-86273866D01*
X204310476Y-86273866D02*
X204310476Y-86035771D01*
X204310476Y-86035771D02*
X204358095Y-85845295D01*
X204358095Y-85845295D02*
X204405714Y-85750057D01*
X204405714Y-85750057D02*
X204453333Y-85702438D01*
X204453333Y-85702438D02*
X204548571Y-85654819D01*
X92953333Y-94154819D02*
X92620000Y-93678628D01*
X92381905Y-94154819D02*
X92381905Y-93154819D01*
X92381905Y-93154819D02*
X92762857Y-93154819D01*
X92762857Y-93154819D02*
X92858095Y-93202438D01*
X92858095Y-93202438D02*
X92905714Y-93250057D01*
X92905714Y-93250057D02*
X92953333Y-93345295D01*
X92953333Y-93345295D02*
X92953333Y-93488152D01*
X92953333Y-93488152D02*
X92905714Y-93583390D01*
X92905714Y-93583390D02*
X92858095Y-93631009D01*
X92858095Y-93631009D02*
X92762857Y-93678628D01*
X92762857Y-93678628D02*
X92381905Y-93678628D01*
X93334286Y-93250057D02*
X93381905Y-93202438D01*
X93381905Y-93202438D02*
X93477143Y-93154819D01*
X93477143Y-93154819D02*
X93715238Y-93154819D01*
X93715238Y-93154819D02*
X93810476Y-93202438D01*
X93810476Y-93202438D02*
X93858095Y-93250057D01*
X93858095Y-93250057D02*
X93905714Y-93345295D01*
X93905714Y-93345295D02*
X93905714Y-93440533D01*
X93905714Y-93440533D02*
X93858095Y-93583390D01*
X93858095Y-93583390D02*
X93286667Y-94154819D01*
X93286667Y-94154819D02*
X93905714Y-94154819D01*
X190764819Y-79961904D02*
X191574342Y-79961904D01*
X191574342Y-79961904D02*
X191669580Y-79914285D01*
X191669580Y-79914285D02*
X191717200Y-79866666D01*
X191717200Y-79866666D02*
X191764819Y-79771428D01*
X191764819Y-79771428D02*
X191764819Y-79580952D01*
X191764819Y-79580952D02*
X191717200Y-79485714D01*
X191717200Y-79485714D02*
X191669580Y-79438095D01*
X191669580Y-79438095D02*
X191574342Y-79390476D01*
X191574342Y-79390476D02*
X190764819Y-79390476D01*
X190860057Y-78961904D02*
X190812438Y-78914285D01*
X190812438Y-78914285D02*
X190764819Y-78819047D01*
X190764819Y-78819047D02*
X190764819Y-78580952D01*
X190764819Y-78580952D02*
X190812438Y-78485714D01*
X190812438Y-78485714D02*
X190860057Y-78438095D01*
X190860057Y-78438095D02*
X190955295Y-78390476D01*
X190955295Y-78390476D02*
X191050533Y-78390476D01*
X191050533Y-78390476D02*
X191193390Y-78438095D01*
X191193390Y-78438095D02*
X191764819Y-79009523D01*
X191764819Y-79009523D02*
X191764819Y-78390476D01*
X204617142Y-94154819D02*
X204283809Y-93678628D01*
X204045714Y-94154819D02*
X204045714Y-93154819D01*
X204045714Y-93154819D02*
X204426666Y-93154819D01*
X204426666Y-93154819D02*
X204521904Y-93202438D01*
X204521904Y-93202438D02*
X204569523Y-93250057D01*
X204569523Y-93250057D02*
X204617142Y-93345295D01*
X204617142Y-93345295D02*
X204617142Y-93488152D01*
X204617142Y-93488152D02*
X204569523Y-93583390D01*
X204569523Y-93583390D02*
X204521904Y-93631009D01*
X204521904Y-93631009D02*
X204426666Y-93678628D01*
X204426666Y-93678628D02*
X204045714Y-93678628D01*
X204998095Y-93250057D02*
X205045714Y-93202438D01*
X205045714Y-93202438D02*
X205140952Y-93154819D01*
X205140952Y-93154819D02*
X205379047Y-93154819D01*
X205379047Y-93154819D02*
X205474285Y-93202438D01*
X205474285Y-93202438D02*
X205521904Y-93250057D01*
X205521904Y-93250057D02*
X205569523Y-93345295D01*
X205569523Y-93345295D02*
X205569523Y-93440533D01*
X205569523Y-93440533D02*
X205521904Y-93583390D01*
X205521904Y-93583390D02*
X204950476Y-94154819D01*
X204950476Y-94154819D02*
X205569523Y-94154819D01*
X206188571Y-93154819D02*
X206283809Y-93154819D01*
X206283809Y-93154819D02*
X206379047Y-93202438D01*
X206379047Y-93202438D02*
X206426666Y-93250057D01*
X206426666Y-93250057D02*
X206474285Y-93345295D01*
X206474285Y-93345295D02*
X206521904Y-93535771D01*
X206521904Y-93535771D02*
X206521904Y-93773866D01*
X206521904Y-93773866D02*
X206474285Y-93964342D01*
X206474285Y-93964342D02*
X206426666Y-94059580D01*
X206426666Y-94059580D02*
X206379047Y-94107200D01*
X206379047Y-94107200D02*
X206283809Y-94154819D01*
X206283809Y-94154819D02*
X206188571Y-94154819D01*
X206188571Y-94154819D02*
X206093333Y-94107200D01*
X206093333Y-94107200D02*
X206045714Y-94059580D01*
X206045714Y-94059580D02*
X205998095Y-93964342D01*
X205998095Y-93964342D02*
X205950476Y-93773866D01*
X205950476Y-93773866D02*
X205950476Y-93535771D01*
X205950476Y-93535771D02*
X205998095Y-93345295D01*
X205998095Y-93345295D02*
X206045714Y-93250057D01*
X206045714Y-93250057D02*
X206093333Y-93202438D01*
X206093333Y-93202438D02*
X206188571Y-93154819D01*
X105453333Y-94154819D02*
X105120000Y-93678628D01*
X104881905Y-94154819D02*
X104881905Y-93154819D01*
X104881905Y-93154819D02*
X105262857Y-93154819D01*
X105262857Y-93154819D02*
X105358095Y-93202438D01*
X105358095Y-93202438D02*
X105405714Y-93250057D01*
X105405714Y-93250057D02*
X105453333Y-93345295D01*
X105453333Y-93345295D02*
X105453333Y-93488152D01*
X105453333Y-93488152D02*
X105405714Y-93583390D01*
X105405714Y-93583390D02*
X105358095Y-93631009D01*
X105358095Y-93631009D02*
X105262857Y-93678628D01*
X105262857Y-93678628D02*
X104881905Y-93678628D01*
X106310476Y-93488152D02*
X106310476Y-94154819D01*
X106072381Y-93107200D02*
X105834286Y-93821485D01*
X105834286Y-93821485D02*
X106453333Y-93821485D01*
X153453333Y-86559580D02*
X153405714Y-86607200D01*
X153405714Y-86607200D02*
X153262857Y-86654819D01*
X153262857Y-86654819D02*
X153167619Y-86654819D01*
X153167619Y-86654819D02*
X153024762Y-86607200D01*
X153024762Y-86607200D02*
X152929524Y-86511961D01*
X152929524Y-86511961D02*
X152881905Y-86416723D01*
X152881905Y-86416723D02*
X152834286Y-86226247D01*
X152834286Y-86226247D02*
X152834286Y-86083390D01*
X152834286Y-86083390D02*
X152881905Y-85892914D01*
X152881905Y-85892914D02*
X152929524Y-85797676D01*
X152929524Y-85797676D02*
X153024762Y-85702438D01*
X153024762Y-85702438D02*
X153167619Y-85654819D01*
X153167619Y-85654819D02*
X153262857Y-85654819D01*
X153262857Y-85654819D02*
X153405714Y-85702438D01*
X153405714Y-85702438D02*
X153453333Y-85750057D01*
X154310476Y-85654819D02*
X154120000Y-85654819D01*
X154120000Y-85654819D02*
X154024762Y-85702438D01*
X154024762Y-85702438D02*
X153977143Y-85750057D01*
X153977143Y-85750057D02*
X153881905Y-85892914D01*
X153881905Y-85892914D02*
X153834286Y-86083390D01*
X153834286Y-86083390D02*
X153834286Y-86464342D01*
X153834286Y-86464342D02*
X153881905Y-86559580D01*
X153881905Y-86559580D02*
X153929524Y-86607200D01*
X153929524Y-86607200D02*
X154024762Y-86654819D01*
X154024762Y-86654819D02*
X154215238Y-86654819D01*
X154215238Y-86654819D02*
X154310476Y-86607200D01*
X154310476Y-86607200D02*
X154358095Y-86559580D01*
X154358095Y-86559580D02*
X154405714Y-86464342D01*
X154405714Y-86464342D02*
X154405714Y-86226247D01*
X154405714Y-86226247D02*
X154358095Y-86131009D01*
X154358095Y-86131009D02*
X154310476Y-86083390D01*
X154310476Y-86083390D02*
X154215238Y-86035771D01*
X154215238Y-86035771D02*
X154024762Y-86035771D01*
X154024762Y-86035771D02*
X153929524Y-86083390D01*
X153929524Y-86083390D02*
X153881905Y-86131009D01*
X153881905Y-86131009D02*
X153834286Y-86226247D01*
X186166666Y-96954819D02*
X186166666Y-97669104D01*
X186166666Y-97669104D02*
X186119047Y-97811961D01*
X186119047Y-97811961D02*
X186023809Y-97907200D01*
X186023809Y-97907200D02*
X185880952Y-97954819D01*
X185880952Y-97954819D02*
X185785714Y-97954819D01*
X186785714Y-97383390D02*
X186690476Y-97335771D01*
X186690476Y-97335771D02*
X186642857Y-97288152D01*
X186642857Y-97288152D02*
X186595238Y-97192914D01*
X186595238Y-97192914D02*
X186595238Y-97145295D01*
X186595238Y-97145295D02*
X186642857Y-97050057D01*
X186642857Y-97050057D02*
X186690476Y-97002438D01*
X186690476Y-97002438D02*
X186785714Y-96954819D01*
X186785714Y-96954819D02*
X186976190Y-96954819D01*
X186976190Y-96954819D02*
X187071428Y-97002438D01*
X187071428Y-97002438D02*
X187119047Y-97050057D01*
X187119047Y-97050057D02*
X187166666Y-97145295D01*
X187166666Y-97145295D02*
X187166666Y-97192914D01*
X187166666Y-97192914D02*
X187119047Y-97288152D01*
X187119047Y-97288152D02*
X187071428Y-97335771D01*
X187071428Y-97335771D02*
X186976190Y-97383390D01*
X186976190Y-97383390D02*
X186785714Y-97383390D01*
X186785714Y-97383390D02*
X186690476Y-97431009D01*
X186690476Y-97431009D02*
X186642857Y-97478628D01*
X186642857Y-97478628D02*
X186595238Y-97573866D01*
X186595238Y-97573866D02*
X186595238Y-97764342D01*
X186595238Y-97764342D02*
X186642857Y-97859580D01*
X186642857Y-97859580D02*
X186690476Y-97907200D01*
X186690476Y-97907200D02*
X186785714Y-97954819D01*
X186785714Y-97954819D02*
X186976190Y-97954819D01*
X186976190Y-97954819D02*
X187071428Y-97907200D01*
X187071428Y-97907200D02*
X187119047Y-97859580D01*
X187119047Y-97859580D02*
X187166666Y-97764342D01*
X187166666Y-97764342D02*
X187166666Y-97573866D01*
X187166666Y-97573866D02*
X187119047Y-97478628D01*
X187119047Y-97478628D02*
X187071428Y-97431009D01*
X187071428Y-97431009D02*
X186976190Y-97383390D01*
X166257142Y-75059580D02*
X166209523Y-75107200D01*
X166209523Y-75107200D02*
X166066666Y-75154819D01*
X166066666Y-75154819D02*
X165971428Y-75154819D01*
X165971428Y-75154819D02*
X165828571Y-75107200D01*
X165828571Y-75107200D02*
X165733333Y-75011961D01*
X165733333Y-75011961D02*
X165685714Y-74916723D01*
X165685714Y-74916723D02*
X165638095Y-74726247D01*
X165638095Y-74726247D02*
X165638095Y-74583390D01*
X165638095Y-74583390D02*
X165685714Y-74392914D01*
X165685714Y-74392914D02*
X165733333Y-74297676D01*
X165733333Y-74297676D02*
X165828571Y-74202438D01*
X165828571Y-74202438D02*
X165971428Y-74154819D01*
X165971428Y-74154819D02*
X166066666Y-74154819D01*
X166066666Y-74154819D02*
X166209523Y-74202438D01*
X166209523Y-74202438D02*
X166257142Y-74250057D01*
X167209523Y-75154819D02*
X166638095Y-75154819D01*
X166923809Y-75154819D02*
X166923809Y-74154819D01*
X166923809Y-74154819D02*
X166828571Y-74297676D01*
X166828571Y-74297676D02*
X166733333Y-74392914D01*
X166733333Y-74392914D02*
X166638095Y-74440533D01*
X168161904Y-75154819D02*
X167590476Y-75154819D01*
X167876190Y-75154819D02*
X167876190Y-74154819D01*
X167876190Y-74154819D02*
X167780952Y-74297676D01*
X167780952Y-74297676D02*
X167685714Y-74392914D01*
X167685714Y-74392914D02*
X167590476Y-74440533D01*
X115998220Y-86559580D02*
X115950601Y-86607200D01*
X115950601Y-86607200D02*
X115807744Y-86654819D01*
X115807744Y-86654819D02*
X115712506Y-86654819D01*
X115712506Y-86654819D02*
X115569649Y-86607200D01*
X115569649Y-86607200D02*
X115474411Y-86511961D01*
X115474411Y-86511961D02*
X115426792Y-86416723D01*
X115426792Y-86416723D02*
X115379173Y-86226247D01*
X115379173Y-86226247D02*
X115379173Y-86083390D01*
X115379173Y-86083390D02*
X115426792Y-85892914D01*
X115426792Y-85892914D02*
X115474411Y-85797676D01*
X115474411Y-85797676D02*
X115569649Y-85702438D01*
X115569649Y-85702438D02*
X115712506Y-85654819D01*
X115712506Y-85654819D02*
X115807744Y-85654819D01*
X115807744Y-85654819D02*
X115950601Y-85702438D01*
X115950601Y-85702438D02*
X115998220Y-85750057D01*
X116331554Y-85654819D02*
X116950601Y-85654819D01*
X116950601Y-85654819D02*
X116617268Y-86035771D01*
X116617268Y-86035771D02*
X116760125Y-86035771D01*
X116760125Y-86035771D02*
X116855363Y-86083390D01*
X116855363Y-86083390D02*
X116902982Y-86131009D01*
X116902982Y-86131009D02*
X116950601Y-86226247D01*
X116950601Y-86226247D02*
X116950601Y-86464342D01*
X116950601Y-86464342D02*
X116902982Y-86559580D01*
X116902982Y-86559580D02*
X116855363Y-86607200D01*
X116855363Y-86607200D02*
X116760125Y-86654819D01*
X116760125Y-86654819D02*
X116474411Y-86654819D01*
X116474411Y-86654819D02*
X116379173Y-86607200D01*
X116379173Y-86607200D02*
X116331554Y-86559580D01*
X111444819Y-89866666D02*
X110968628Y-90199999D01*
X111444819Y-90438094D02*
X110444819Y-90438094D01*
X110444819Y-90438094D02*
X110444819Y-90057142D01*
X110444819Y-90057142D02*
X110492438Y-89961904D01*
X110492438Y-89961904D02*
X110540057Y-89914285D01*
X110540057Y-89914285D02*
X110635295Y-89866666D01*
X110635295Y-89866666D02*
X110778152Y-89866666D01*
X110778152Y-89866666D02*
X110873390Y-89914285D01*
X110873390Y-89914285D02*
X110921009Y-89961904D01*
X110921009Y-89961904D02*
X110968628Y-90057142D01*
X110968628Y-90057142D02*
X110968628Y-90438094D01*
X110444819Y-89533332D02*
X110444819Y-88914285D01*
X110444819Y-88914285D02*
X110825771Y-89247618D01*
X110825771Y-89247618D02*
X110825771Y-89104761D01*
X110825771Y-89104761D02*
X110873390Y-89009523D01*
X110873390Y-89009523D02*
X110921009Y-88961904D01*
X110921009Y-88961904D02*
X111016247Y-88914285D01*
X111016247Y-88914285D02*
X111254342Y-88914285D01*
X111254342Y-88914285D02*
X111349580Y-88961904D01*
X111349580Y-88961904D02*
X111397200Y-89009523D01*
X111397200Y-89009523D02*
X111444819Y-89104761D01*
X111444819Y-89104761D02*
X111444819Y-89390475D01*
X111444819Y-89390475D02*
X111397200Y-89485713D01*
X111397200Y-89485713D02*
X111349580Y-89533332D01*
X161166666Y-96954819D02*
X161166666Y-97669104D01*
X161166666Y-97669104D02*
X161119047Y-97811961D01*
X161119047Y-97811961D02*
X161023809Y-97907200D01*
X161023809Y-97907200D02*
X160880952Y-97954819D01*
X160880952Y-97954819D02*
X160785714Y-97954819D01*
X162071428Y-96954819D02*
X161880952Y-96954819D01*
X161880952Y-96954819D02*
X161785714Y-97002438D01*
X161785714Y-97002438D02*
X161738095Y-97050057D01*
X161738095Y-97050057D02*
X161642857Y-97192914D01*
X161642857Y-97192914D02*
X161595238Y-97383390D01*
X161595238Y-97383390D02*
X161595238Y-97764342D01*
X161595238Y-97764342D02*
X161642857Y-97859580D01*
X161642857Y-97859580D02*
X161690476Y-97907200D01*
X161690476Y-97907200D02*
X161785714Y-97954819D01*
X161785714Y-97954819D02*
X161976190Y-97954819D01*
X161976190Y-97954819D02*
X162071428Y-97907200D01*
X162071428Y-97907200D02*
X162119047Y-97859580D01*
X162119047Y-97859580D02*
X162166666Y-97764342D01*
X162166666Y-97764342D02*
X162166666Y-97526247D01*
X162166666Y-97526247D02*
X162119047Y-97431009D01*
X162119047Y-97431009D02*
X162071428Y-97383390D01*
X162071428Y-97383390D02*
X161976190Y-97335771D01*
X161976190Y-97335771D02*
X161785714Y-97335771D01*
X161785714Y-97335771D02*
X161690476Y-97383390D01*
X161690476Y-97383390D02*
X161642857Y-97431009D01*
X161642857Y-97431009D02*
X161595238Y-97526247D01*
X130453333Y-94154819D02*
X130120000Y-93678628D01*
X129881905Y-94154819D02*
X129881905Y-93154819D01*
X129881905Y-93154819D02*
X130262857Y-93154819D01*
X130262857Y-93154819D02*
X130358095Y-93202438D01*
X130358095Y-93202438D02*
X130405714Y-93250057D01*
X130405714Y-93250057D02*
X130453333Y-93345295D01*
X130453333Y-93345295D02*
X130453333Y-93488152D01*
X130453333Y-93488152D02*
X130405714Y-93583390D01*
X130405714Y-93583390D02*
X130358095Y-93631009D01*
X130358095Y-93631009D02*
X130262857Y-93678628D01*
X130262857Y-93678628D02*
X129881905Y-93678628D01*
X131024762Y-93583390D02*
X130929524Y-93535771D01*
X130929524Y-93535771D02*
X130881905Y-93488152D01*
X130881905Y-93488152D02*
X130834286Y-93392914D01*
X130834286Y-93392914D02*
X130834286Y-93345295D01*
X130834286Y-93345295D02*
X130881905Y-93250057D01*
X130881905Y-93250057D02*
X130929524Y-93202438D01*
X130929524Y-93202438D02*
X131024762Y-93154819D01*
X131024762Y-93154819D02*
X131215238Y-93154819D01*
X131215238Y-93154819D02*
X131310476Y-93202438D01*
X131310476Y-93202438D02*
X131358095Y-93250057D01*
X131358095Y-93250057D02*
X131405714Y-93345295D01*
X131405714Y-93345295D02*
X131405714Y-93392914D01*
X131405714Y-93392914D02*
X131358095Y-93488152D01*
X131358095Y-93488152D02*
X131310476Y-93535771D01*
X131310476Y-93535771D02*
X131215238Y-93583390D01*
X131215238Y-93583390D02*
X131024762Y-93583390D01*
X131024762Y-93583390D02*
X130929524Y-93631009D01*
X130929524Y-93631009D02*
X130881905Y-93678628D01*
X130881905Y-93678628D02*
X130834286Y-93773866D01*
X130834286Y-93773866D02*
X130834286Y-93964342D01*
X130834286Y-93964342D02*
X130881905Y-94059580D01*
X130881905Y-94059580D02*
X130929524Y-94107200D01*
X130929524Y-94107200D02*
X131024762Y-94154819D01*
X131024762Y-94154819D02*
X131215238Y-94154819D01*
X131215238Y-94154819D02*
X131310476Y-94107200D01*
X131310476Y-94107200D02*
X131358095Y-94059580D01*
X131358095Y-94059580D02*
X131405714Y-93964342D01*
X131405714Y-93964342D02*
X131405714Y-93773866D01*
X131405714Y-93773866D02*
X131358095Y-93678628D01*
X131358095Y-93678628D02*
X131310476Y-93631009D01*
X131310476Y-93631009D02*
X131215238Y-93583390D01*
X128264819Y-79961904D02*
X129074342Y-79961904D01*
X129074342Y-79961904D02*
X129169580Y-79914285D01*
X129169580Y-79914285D02*
X129217200Y-79866666D01*
X129217200Y-79866666D02*
X129264819Y-79771428D01*
X129264819Y-79771428D02*
X129264819Y-79580952D01*
X129264819Y-79580952D02*
X129217200Y-79485714D01*
X129217200Y-79485714D02*
X129169580Y-79438095D01*
X129169580Y-79438095D02*
X129074342Y-79390476D01*
X129074342Y-79390476D02*
X128264819Y-79390476D01*
X129264819Y-78390476D02*
X129264819Y-78961904D01*
X129264819Y-78676190D02*
X128264819Y-78676190D01*
X128264819Y-78676190D02*
X128407676Y-78771428D01*
X128407676Y-78771428D02*
X128502914Y-78866666D01*
X128502914Y-78866666D02*
X128550533Y-78961904D01*
X130617142Y-80889580D02*
X130569523Y-80937200D01*
X130569523Y-80937200D02*
X130426666Y-80984819D01*
X130426666Y-80984819D02*
X130331428Y-80984819D01*
X130331428Y-80984819D02*
X130188571Y-80937200D01*
X130188571Y-80937200D02*
X130093333Y-80841961D01*
X130093333Y-80841961D02*
X130045714Y-80746723D01*
X130045714Y-80746723D02*
X129998095Y-80556247D01*
X129998095Y-80556247D02*
X129998095Y-80413390D01*
X129998095Y-80413390D02*
X130045714Y-80222914D01*
X130045714Y-80222914D02*
X130093333Y-80127676D01*
X130093333Y-80127676D02*
X130188571Y-80032438D01*
X130188571Y-80032438D02*
X130331428Y-79984819D01*
X130331428Y-79984819D02*
X130426666Y-79984819D01*
X130426666Y-79984819D02*
X130569523Y-80032438D01*
X130569523Y-80032438D02*
X130617142Y-80080057D01*
X131569523Y-80984819D02*
X130998095Y-80984819D01*
X131283809Y-80984819D02*
X131283809Y-79984819D01*
X131283809Y-79984819D02*
X131188571Y-80127676D01*
X131188571Y-80127676D02*
X131093333Y-80222914D01*
X131093333Y-80222914D02*
X130998095Y-80270533D01*
X131950476Y-80080057D02*
X131998095Y-80032438D01*
X131998095Y-80032438D02*
X132093333Y-79984819D01*
X132093333Y-79984819D02*
X132331428Y-79984819D01*
X132331428Y-79984819D02*
X132426666Y-80032438D01*
X132426666Y-80032438D02*
X132474285Y-80080057D01*
X132474285Y-80080057D02*
X132521904Y-80175295D01*
X132521904Y-80175295D02*
X132521904Y-80270533D01*
X132521904Y-80270533D02*
X132474285Y-80413390D01*
X132474285Y-80413390D02*
X131902857Y-80984819D01*
X131902857Y-80984819D02*
X132521904Y-80984819D01*
X149590476Y-80774819D02*
X149590476Y-81489104D01*
X149590476Y-81489104D02*
X149542857Y-81631961D01*
X149542857Y-81631961D02*
X149447619Y-81727200D01*
X149447619Y-81727200D02*
X149304762Y-81774819D01*
X149304762Y-81774819D02*
X149209524Y-81774819D01*
X150590476Y-81774819D02*
X150019048Y-81774819D01*
X150304762Y-81774819D02*
X150304762Y-80774819D01*
X150304762Y-80774819D02*
X150209524Y-80917676D01*
X150209524Y-80917676D02*
X150114286Y-81012914D01*
X150114286Y-81012914D02*
X150019048Y-81060533D01*
X151542857Y-81774819D02*
X150971429Y-81774819D01*
X151257143Y-81774819D02*
X151257143Y-80774819D01*
X151257143Y-80774819D02*
X151161905Y-80917676D01*
X151161905Y-80917676D02*
X151066667Y-81012914D01*
X151066667Y-81012914D02*
X150971429Y-81060533D01*
X123666666Y-96954819D02*
X123666666Y-97669104D01*
X123666666Y-97669104D02*
X123619047Y-97811961D01*
X123619047Y-97811961D02*
X123523809Y-97907200D01*
X123523809Y-97907200D02*
X123380952Y-97954819D01*
X123380952Y-97954819D02*
X123285714Y-97954819D01*
X124047619Y-96954819D02*
X124666666Y-96954819D01*
X124666666Y-96954819D02*
X124333333Y-97335771D01*
X124333333Y-97335771D02*
X124476190Y-97335771D01*
X124476190Y-97335771D02*
X124571428Y-97383390D01*
X124571428Y-97383390D02*
X124619047Y-97431009D01*
X124619047Y-97431009D02*
X124666666Y-97526247D01*
X124666666Y-97526247D02*
X124666666Y-97764342D01*
X124666666Y-97764342D02*
X124619047Y-97859580D01*
X124619047Y-97859580D02*
X124571428Y-97907200D01*
X124571428Y-97907200D02*
X124476190Y-97954819D01*
X124476190Y-97954819D02*
X124190476Y-97954819D01*
X124190476Y-97954819D02*
X124095238Y-97907200D01*
X124095238Y-97907200D02*
X124047619Y-97859580D01*
X136166666Y-96954819D02*
X136166666Y-97669104D01*
X136166666Y-97669104D02*
X136119047Y-97811961D01*
X136119047Y-97811961D02*
X136023809Y-97907200D01*
X136023809Y-97907200D02*
X135880952Y-97954819D01*
X135880952Y-97954819D02*
X135785714Y-97954819D01*
X137071428Y-97288152D02*
X137071428Y-97954819D01*
X136833333Y-96907200D02*
X136595238Y-97621485D01*
X136595238Y-97621485D02*
X137214285Y-97621485D01*
X136444819Y-89866666D02*
X135968628Y-90199999D01*
X136444819Y-90438094D02*
X135444819Y-90438094D01*
X135444819Y-90438094D02*
X135444819Y-90057142D01*
X135444819Y-90057142D02*
X135492438Y-89961904D01*
X135492438Y-89961904D02*
X135540057Y-89914285D01*
X135540057Y-89914285D02*
X135635295Y-89866666D01*
X135635295Y-89866666D02*
X135778152Y-89866666D01*
X135778152Y-89866666D02*
X135873390Y-89914285D01*
X135873390Y-89914285D02*
X135921009Y-89961904D01*
X135921009Y-89961904D02*
X135968628Y-90057142D01*
X135968628Y-90057142D02*
X135968628Y-90438094D01*
X135444819Y-89533332D02*
X135444819Y-88866666D01*
X135444819Y-88866666D02*
X136444819Y-89295237D01*
X198944819Y-90342857D02*
X198468628Y-90676190D01*
X198944819Y-90914285D02*
X197944819Y-90914285D01*
X197944819Y-90914285D02*
X197944819Y-90533333D01*
X197944819Y-90533333D02*
X197992438Y-90438095D01*
X197992438Y-90438095D02*
X198040057Y-90390476D01*
X198040057Y-90390476D02*
X198135295Y-90342857D01*
X198135295Y-90342857D02*
X198278152Y-90342857D01*
X198278152Y-90342857D02*
X198373390Y-90390476D01*
X198373390Y-90390476D02*
X198421009Y-90438095D01*
X198421009Y-90438095D02*
X198468628Y-90533333D01*
X198468628Y-90533333D02*
X198468628Y-90914285D01*
X198944819Y-89390476D02*
X198944819Y-89961904D01*
X198944819Y-89676190D02*
X197944819Y-89676190D01*
X197944819Y-89676190D02*
X198087676Y-89771428D01*
X198087676Y-89771428D02*
X198182914Y-89866666D01*
X198182914Y-89866666D02*
X198230533Y-89961904D01*
X197944819Y-89057142D02*
X197944819Y-88390476D01*
X197944819Y-88390476D02*
X198944819Y-88819047D01*
X190998220Y-86559580D02*
X190950601Y-86607200D01*
X190950601Y-86607200D02*
X190807744Y-86654819D01*
X190807744Y-86654819D02*
X190712506Y-86654819D01*
X190712506Y-86654819D02*
X190569649Y-86607200D01*
X190569649Y-86607200D02*
X190474411Y-86511961D01*
X190474411Y-86511961D02*
X190426792Y-86416723D01*
X190426792Y-86416723D02*
X190379173Y-86226247D01*
X190379173Y-86226247D02*
X190379173Y-86083390D01*
X190379173Y-86083390D02*
X190426792Y-85892914D01*
X190426792Y-85892914D02*
X190474411Y-85797676D01*
X190474411Y-85797676D02*
X190569649Y-85702438D01*
X190569649Y-85702438D02*
X190712506Y-85654819D01*
X190712506Y-85654819D02*
X190807744Y-85654819D01*
X190807744Y-85654819D02*
X190950601Y-85702438D01*
X190950601Y-85702438D02*
X190998220Y-85750057D01*
X191474411Y-86654819D02*
X191664887Y-86654819D01*
X191664887Y-86654819D02*
X191760125Y-86607200D01*
X191760125Y-86607200D02*
X191807744Y-86559580D01*
X191807744Y-86559580D02*
X191902982Y-86416723D01*
X191902982Y-86416723D02*
X191950601Y-86226247D01*
X191950601Y-86226247D02*
X191950601Y-85845295D01*
X191950601Y-85845295D02*
X191902982Y-85750057D01*
X191902982Y-85750057D02*
X191855363Y-85702438D01*
X191855363Y-85702438D02*
X191760125Y-85654819D01*
X191760125Y-85654819D02*
X191569649Y-85654819D01*
X191569649Y-85654819D02*
X191474411Y-85702438D01*
X191474411Y-85702438D02*
X191426792Y-85750057D01*
X191426792Y-85750057D02*
X191379173Y-85845295D01*
X191379173Y-85845295D02*
X191379173Y-86083390D01*
X191379173Y-86083390D02*
X191426792Y-86178628D01*
X191426792Y-86178628D02*
X191474411Y-86226247D01*
X191474411Y-86226247D02*
X191569649Y-86273866D01*
X191569649Y-86273866D02*
X191760125Y-86273866D01*
X191760125Y-86273866D02*
X191855363Y-86226247D01*
X191855363Y-86226247D02*
X191902982Y-86178628D01*
X191902982Y-86178628D02*
X191950601Y-86083390D01*
X211444819Y-90342857D02*
X210968628Y-90676190D01*
X211444819Y-90914285D02*
X210444819Y-90914285D01*
X210444819Y-90914285D02*
X210444819Y-90533333D01*
X210444819Y-90533333D02*
X210492438Y-90438095D01*
X210492438Y-90438095D02*
X210540057Y-90390476D01*
X210540057Y-90390476D02*
X210635295Y-90342857D01*
X210635295Y-90342857D02*
X210778152Y-90342857D01*
X210778152Y-90342857D02*
X210873390Y-90390476D01*
X210873390Y-90390476D02*
X210921009Y-90438095D01*
X210921009Y-90438095D02*
X210968628Y-90533333D01*
X210968628Y-90533333D02*
X210968628Y-90914285D01*
X211444819Y-89390476D02*
X211444819Y-89961904D01*
X211444819Y-89676190D02*
X210444819Y-89676190D01*
X210444819Y-89676190D02*
X210587676Y-89771428D01*
X210587676Y-89771428D02*
X210682914Y-89866666D01*
X210682914Y-89866666D02*
X210730533Y-89961904D01*
X211444819Y-88914285D02*
X211444819Y-88723809D01*
X211444819Y-88723809D02*
X211397200Y-88628571D01*
X211397200Y-88628571D02*
X211349580Y-88580952D01*
X211349580Y-88580952D02*
X211206723Y-88485714D01*
X211206723Y-88485714D02*
X211016247Y-88438095D01*
X211016247Y-88438095D02*
X210635295Y-88438095D01*
X210635295Y-88438095D02*
X210540057Y-88485714D01*
X210540057Y-88485714D02*
X210492438Y-88533333D01*
X210492438Y-88533333D02*
X210444819Y-88628571D01*
X210444819Y-88628571D02*
X210444819Y-88819047D01*
X210444819Y-88819047D02*
X210492438Y-88914285D01*
X210492438Y-88914285D02*
X210540057Y-88961904D01*
X210540057Y-88961904D02*
X210635295Y-89009523D01*
X210635295Y-89009523D02*
X210873390Y-89009523D01*
X210873390Y-89009523D02*
X210968628Y-88961904D01*
X210968628Y-88961904D02*
X211016247Y-88914285D01*
X211016247Y-88914285D02*
X211063866Y-88819047D01*
X211063866Y-88819047D02*
X211063866Y-88628571D01*
X211063866Y-88628571D02*
X211016247Y-88533333D01*
X211016247Y-88533333D02*
X210968628Y-88485714D01*
X210968628Y-88485714D02*
X210873390Y-88438095D01*
X173666666Y-96954819D02*
X173666666Y-97669104D01*
X173666666Y-97669104D02*
X173619047Y-97811961D01*
X173619047Y-97811961D02*
X173523809Y-97907200D01*
X173523809Y-97907200D02*
X173380952Y-97954819D01*
X173380952Y-97954819D02*
X173285714Y-97954819D01*
X174047619Y-96954819D02*
X174714285Y-96954819D01*
X174714285Y-96954819D02*
X174285714Y-97954819D01*
X210190476Y-96954819D02*
X210190476Y-97669104D01*
X210190476Y-97669104D02*
X210142857Y-97811961D01*
X210142857Y-97811961D02*
X210047619Y-97907200D01*
X210047619Y-97907200D02*
X209904762Y-97954819D01*
X209904762Y-97954819D02*
X209809524Y-97954819D01*
X211190476Y-97954819D02*
X210619048Y-97954819D01*
X210904762Y-97954819D02*
X210904762Y-96954819D01*
X210904762Y-96954819D02*
X210809524Y-97097676D01*
X210809524Y-97097676D02*
X210714286Y-97192914D01*
X210714286Y-97192914D02*
X210619048Y-97240533D01*
X211809524Y-96954819D02*
X211904762Y-96954819D01*
X211904762Y-96954819D02*
X212000000Y-97002438D01*
X212000000Y-97002438D02*
X212047619Y-97050057D01*
X212047619Y-97050057D02*
X212095238Y-97145295D01*
X212095238Y-97145295D02*
X212142857Y-97335771D01*
X212142857Y-97335771D02*
X212142857Y-97573866D01*
X212142857Y-97573866D02*
X212095238Y-97764342D01*
X212095238Y-97764342D02*
X212047619Y-97859580D01*
X212047619Y-97859580D02*
X212000000Y-97907200D01*
X212000000Y-97907200D02*
X211904762Y-97954819D01*
X211904762Y-97954819D02*
X211809524Y-97954819D01*
X211809524Y-97954819D02*
X211714286Y-97907200D01*
X211714286Y-97907200D02*
X211666667Y-97859580D01*
X211666667Y-97859580D02*
X211619048Y-97764342D01*
X211619048Y-97764342D02*
X211571429Y-97573866D01*
X211571429Y-97573866D02*
X211571429Y-97335771D01*
X211571429Y-97335771D02*
X211619048Y-97145295D01*
X211619048Y-97145295D02*
X211666667Y-97050057D01*
X211666667Y-97050057D02*
X211714286Y-97002438D01*
X211714286Y-97002438D02*
X211809524Y-96954819D01*
X98666666Y-96954819D02*
X98666666Y-97669104D01*
X98666666Y-97669104D02*
X98619047Y-97811961D01*
X98619047Y-97811961D02*
X98523809Y-97907200D01*
X98523809Y-97907200D02*
X98380952Y-97954819D01*
X98380952Y-97954819D02*
X98285714Y-97954819D01*
X99666666Y-97954819D02*
X99095238Y-97954819D01*
X99380952Y-97954819D02*
X99380952Y-96954819D01*
X99380952Y-96954819D02*
X99285714Y-97097676D01*
X99285714Y-97097676D02*
X99190476Y-97192914D01*
X99190476Y-97192914D02*
X99095238Y-97240533D01*
X193187142Y-80889580D02*
X193139523Y-80937200D01*
X193139523Y-80937200D02*
X192996666Y-80984819D01*
X192996666Y-80984819D02*
X192901428Y-80984819D01*
X192901428Y-80984819D02*
X192758571Y-80937200D01*
X192758571Y-80937200D02*
X192663333Y-80841961D01*
X192663333Y-80841961D02*
X192615714Y-80746723D01*
X192615714Y-80746723D02*
X192568095Y-80556247D01*
X192568095Y-80556247D02*
X192568095Y-80413390D01*
X192568095Y-80413390D02*
X192615714Y-80222914D01*
X192615714Y-80222914D02*
X192663333Y-80127676D01*
X192663333Y-80127676D02*
X192758571Y-80032438D01*
X192758571Y-80032438D02*
X192901428Y-79984819D01*
X192901428Y-79984819D02*
X192996666Y-79984819D01*
X192996666Y-79984819D02*
X193139523Y-80032438D01*
X193139523Y-80032438D02*
X193187142Y-80080057D01*
X194139523Y-80984819D02*
X193568095Y-80984819D01*
X193853809Y-80984819D02*
X193853809Y-79984819D01*
X193853809Y-79984819D02*
X193758571Y-80127676D01*
X193758571Y-80127676D02*
X193663333Y-80222914D01*
X193663333Y-80222914D02*
X193568095Y-80270533D01*
X194472857Y-79984819D02*
X195091904Y-79984819D01*
X195091904Y-79984819D02*
X194758571Y-80365771D01*
X194758571Y-80365771D02*
X194901428Y-80365771D01*
X194901428Y-80365771D02*
X194996666Y-80413390D01*
X194996666Y-80413390D02*
X195044285Y-80461009D01*
X195044285Y-80461009D02*
X195091904Y-80556247D01*
X195091904Y-80556247D02*
X195091904Y-80794342D01*
X195091904Y-80794342D02*
X195044285Y-80889580D01*
X195044285Y-80889580D02*
X194996666Y-80937200D01*
X194996666Y-80937200D02*
X194901428Y-80984819D01*
X194901428Y-80984819D02*
X194615714Y-80984819D01*
X194615714Y-80984819D02*
X194520476Y-80937200D01*
X194520476Y-80937200D02*
X194472857Y-80889580D01*
X103453333Y-86559580D02*
X103405714Y-86607200D01*
X103405714Y-86607200D02*
X103262857Y-86654819D01*
X103262857Y-86654819D02*
X103167619Y-86654819D01*
X103167619Y-86654819D02*
X103024762Y-86607200D01*
X103024762Y-86607200D02*
X102929524Y-86511961D01*
X102929524Y-86511961D02*
X102881905Y-86416723D01*
X102881905Y-86416723D02*
X102834286Y-86226247D01*
X102834286Y-86226247D02*
X102834286Y-86083390D01*
X102834286Y-86083390D02*
X102881905Y-85892914D01*
X102881905Y-85892914D02*
X102929524Y-85797676D01*
X102929524Y-85797676D02*
X103024762Y-85702438D01*
X103024762Y-85702438D02*
X103167619Y-85654819D01*
X103167619Y-85654819D02*
X103262857Y-85654819D01*
X103262857Y-85654819D02*
X103405714Y-85702438D01*
X103405714Y-85702438D02*
X103453333Y-85750057D01*
X103834286Y-85750057D02*
X103881905Y-85702438D01*
X103881905Y-85702438D02*
X103977143Y-85654819D01*
X103977143Y-85654819D02*
X104215238Y-85654819D01*
X104215238Y-85654819D02*
X104310476Y-85702438D01*
X104310476Y-85702438D02*
X104358095Y-85750057D01*
X104358095Y-85750057D02*
X104405714Y-85845295D01*
X104405714Y-85845295D02*
X104405714Y-85940533D01*
X104405714Y-85940533D02*
X104358095Y-86083390D01*
X104358095Y-86083390D02*
X103786667Y-86654819D01*
X103786667Y-86654819D02*
X104405714Y-86654819D01*
X123944819Y-89866666D02*
X123468628Y-90199999D01*
X123944819Y-90438094D02*
X122944819Y-90438094D01*
X122944819Y-90438094D02*
X122944819Y-90057142D01*
X122944819Y-90057142D02*
X122992438Y-89961904D01*
X122992438Y-89961904D02*
X123040057Y-89914285D01*
X123040057Y-89914285D02*
X123135295Y-89866666D01*
X123135295Y-89866666D02*
X123278152Y-89866666D01*
X123278152Y-89866666D02*
X123373390Y-89914285D01*
X123373390Y-89914285D02*
X123421009Y-89961904D01*
X123421009Y-89961904D02*
X123468628Y-90057142D01*
X123468628Y-90057142D02*
X123468628Y-90438094D01*
X122944819Y-88961904D02*
X122944819Y-89438094D01*
X122944819Y-89438094D02*
X123421009Y-89485713D01*
X123421009Y-89485713D02*
X123373390Y-89438094D01*
X123373390Y-89438094D02*
X123325771Y-89342856D01*
X123325771Y-89342856D02*
X123325771Y-89104761D01*
X123325771Y-89104761D02*
X123373390Y-89009523D01*
X123373390Y-89009523D02*
X123421009Y-88961904D01*
X123421009Y-88961904D02*
X123516247Y-88914285D01*
X123516247Y-88914285D02*
X123754342Y-88914285D01*
X123754342Y-88914285D02*
X123849580Y-88961904D01*
X123849580Y-88961904D02*
X123897200Y-89009523D01*
X123897200Y-89009523D02*
X123944819Y-89104761D01*
X123944819Y-89104761D02*
X123944819Y-89342856D01*
X123944819Y-89342856D02*
X123897200Y-89438094D01*
X123897200Y-89438094D02*
X123849580Y-89485713D01*
X173944819Y-90342857D02*
X173468628Y-90676190D01*
X173944819Y-90914285D02*
X172944819Y-90914285D01*
X172944819Y-90914285D02*
X172944819Y-90533333D01*
X172944819Y-90533333D02*
X172992438Y-90438095D01*
X172992438Y-90438095D02*
X173040057Y-90390476D01*
X173040057Y-90390476D02*
X173135295Y-90342857D01*
X173135295Y-90342857D02*
X173278152Y-90342857D01*
X173278152Y-90342857D02*
X173373390Y-90390476D01*
X173373390Y-90390476D02*
X173421009Y-90438095D01*
X173421009Y-90438095D02*
X173468628Y-90533333D01*
X173468628Y-90533333D02*
X173468628Y-90914285D01*
X173944819Y-89390476D02*
X173944819Y-89961904D01*
X173944819Y-89676190D02*
X172944819Y-89676190D01*
X172944819Y-89676190D02*
X173087676Y-89771428D01*
X173087676Y-89771428D02*
X173182914Y-89866666D01*
X173182914Y-89866666D02*
X173230533Y-89961904D01*
X172944819Y-89057142D02*
X172944819Y-88438095D01*
X172944819Y-88438095D02*
X173325771Y-88771428D01*
X173325771Y-88771428D02*
X173325771Y-88628571D01*
X173325771Y-88628571D02*
X173373390Y-88533333D01*
X173373390Y-88533333D02*
X173421009Y-88485714D01*
X173421009Y-88485714D02*
X173516247Y-88438095D01*
X173516247Y-88438095D02*
X173754342Y-88438095D01*
X173754342Y-88438095D02*
X173849580Y-88485714D01*
X173849580Y-88485714D02*
X173897200Y-88533333D01*
X173897200Y-88533333D02*
X173944819Y-88628571D01*
X173944819Y-88628571D02*
X173944819Y-88914285D01*
X173944819Y-88914285D02*
X173897200Y-89009523D01*
X173897200Y-89009523D02*
X173849580Y-89057142D01*
X178453333Y-86559580D02*
X178405714Y-86607200D01*
X178405714Y-86607200D02*
X178262857Y-86654819D01*
X178262857Y-86654819D02*
X178167619Y-86654819D01*
X178167619Y-86654819D02*
X178024762Y-86607200D01*
X178024762Y-86607200D02*
X177929524Y-86511961D01*
X177929524Y-86511961D02*
X177881905Y-86416723D01*
X177881905Y-86416723D02*
X177834286Y-86226247D01*
X177834286Y-86226247D02*
X177834286Y-86083390D01*
X177834286Y-86083390D02*
X177881905Y-85892914D01*
X177881905Y-85892914D02*
X177929524Y-85797676D01*
X177929524Y-85797676D02*
X178024762Y-85702438D01*
X178024762Y-85702438D02*
X178167619Y-85654819D01*
X178167619Y-85654819D02*
X178262857Y-85654819D01*
X178262857Y-85654819D02*
X178405714Y-85702438D01*
X178405714Y-85702438D02*
X178453333Y-85750057D01*
X179024762Y-86083390D02*
X178929524Y-86035771D01*
X178929524Y-86035771D02*
X178881905Y-85988152D01*
X178881905Y-85988152D02*
X178834286Y-85892914D01*
X178834286Y-85892914D02*
X178834286Y-85845295D01*
X178834286Y-85845295D02*
X178881905Y-85750057D01*
X178881905Y-85750057D02*
X178929524Y-85702438D01*
X178929524Y-85702438D02*
X179024762Y-85654819D01*
X179024762Y-85654819D02*
X179215238Y-85654819D01*
X179215238Y-85654819D02*
X179310476Y-85702438D01*
X179310476Y-85702438D02*
X179358095Y-85750057D01*
X179358095Y-85750057D02*
X179405714Y-85845295D01*
X179405714Y-85845295D02*
X179405714Y-85892914D01*
X179405714Y-85892914D02*
X179358095Y-85988152D01*
X179358095Y-85988152D02*
X179310476Y-86035771D01*
X179310476Y-86035771D02*
X179215238Y-86083390D01*
X179215238Y-86083390D02*
X179024762Y-86083390D01*
X179024762Y-86083390D02*
X178929524Y-86131009D01*
X178929524Y-86131009D02*
X178881905Y-86178628D01*
X178881905Y-86178628D02*
X178834286Y-86273866D01*
X178834286Y-86273866D02*
X178834286Y-86464342D01*
X178834286Y-86464342D02*
X178881905Y-86559580D01*
X178881905Y-86559580D02*
X178929524Y-86607200D01*
X178929524Y-86607200D02*
X179024762Y-86654819D01*
X179024762Y-86654819D02*
X179215238Y-86654819D01*
X179215238Y-86654819D02*
X179310476Y-86607200D01*
X179310476Y-86607200D02*
X179358095Y-86559580D01*
X179358095Y-86559580D02*
X179405714Y-86464342D01*
X179405714Y-86464342D02*
X179405714Y-86273866D01*
X179405714Y-86273866D02*
X179358095Y-86178628D01*
X179358095Y-86178628D02*
X179310476Y-86131009D01*
X179310476Y-86131009D02*
X179215238Y-86083390D01*
X186444819Y-90342857D02*
X185968628Y-90676190D01*
X186444819Y-90914285D02*
X185444819Y-90914285D01*
X185444819Y-90914285D02*
X185444819Y-90533333D01*
X185444819Y-90533333D02*
X185492438Y-90438095D01*
X185492438Y-90438095D02*
X185540057Y-90390476D01*
X185540057Y-90390476D02*
X185635295Y-90342857D01*
X185635295Y-90342857D02*
X185778152Y-90342857D01*
X185778152Y-90342857D02*
X185873390Y-90390476D01*
X185873390Y-90390476D02*
X185921009Y-90438095D01*
X185921009Y-90438095D02*
X185968628Y-90533333D01*
X185968628Y-90533333D02*
X185968628Y-90914285D01*
X186444819Y-89390476D02*
X186444819Y-89961904D01*
X186444819Y-89676190D02*
X185444819Y-89676190D01*
X185444819Y-89676190D02*
X185587676Y-89771428D01*
X185587676Y-89771428D02*
X185682914Y-89866666D01*
X185682914Y-89866666D02*
X185730533Y-89961904D01*
X185444819Y-88485714D02*
X185444819Y-88961904D01*
X185444819Y-88961904D02*
X185921009Y-89009523D01*
X185921009Y-89009523D02*
X185873390Y-88961904D01*
X185873390Y-88961904D02*
X185825771Y-88866666D01*
X185825771Y-88866666D02*
X185825771Y-88628571D01*
X185825771Y-88628571D02*
X185873390Y-88533333D01*
X185873390Y-88533333D02*
X185921009Y-88485714D01*
X185921009Y-88485714D02*
X186016247Y-88438095D01*
X186016247Y-88438095D02*
X186254342Y-88438095D01*
X186254342Y-88438095D02*
X186349580Y-88485714D01*
X186349580Y-88485714D02*
X186397200Y-88533333D01*
X186397200Y-88533333D02*
X186444819Y-88628571D01*
X186444819Y-88628571D02*
X186444819Y-88866666D01*
X186444819Y-88866666D02*
X186397200Y-88961904D01*
X186397200Y-88961904D02*
X186349580Y-89009523D01*
X111166666Y-96954819D02*
X111166666Y-97669104D01*
X111166666Y-97669104D02*
X111119047Y-97811961D01*
X111119047Y-97811961D02*
X111023809Y-97907200D01*
X111023809Y-97907200D02*
X110880952Y-97954819D01*
X110880952Y-97954819D02*
X110785714Y-97954819D01*
X111595238Y-97050057D02*
X111642857Y-97002438D01*
X111642857Y-97002438D02*
X111738095Y-96954819D01*
X111738095Y-96954819D02*
X111976190Y-96954819D01*
X111976190Y-96954819D02*
X112071428Y-97002438D01*
X112071428Y-97002438D02*
X112119047Y-97050057D01*
X112119047Y-97050057D02*
X112166666Y-97145295D01*
X112166666Y-97145295D02*
X112166666Y-97240533D01*
X112166666Y-97240533D02*
X112119047Y-97383390D01*
X112119047Y-97383390D02*
X111547619Y-97954819D01*
X111547619Y-97954819D02*
X112166666Y-97954819D01*
X165998220Y-86559580D02*
X165950601Y-86607200D01*
X165950601Y-86607200D02*
X165807744Y-86654819D01*
X165807744Y-86654819D02*
X165712506Y-86654819D01*
X165712506Y-86654819D02*
X165569649Y-86607200D01*
X165569649Y-86607200D02*
X165474411Y-86511961D01*
X165474411Y-86511961D02*
X165426792Y-86416723D01*
X165426792Y-86416723D02*
X165379173Y-86226247D01*
X165379173Y-86226247D02*
X165379173Y-86083390D01*
X165379173Y-86083390D02*
X165426792Y-85892914D01*
X165426792Y-85892914D02*
X165474411Y-85797676D01*
X165474411Y-85797676D02*
X165569649Y-85702438D01*
X165569649Y-85702438D02*
X165712506Y-85654819D01*
X165712506Y-85654819D02*
X165807744Y-85654819D01*
X165807744Y-85654819D02*
X165950601Y-85702438D01*
X165950601Y-85702438D02*
X165998220Y-85750057D01*
X166331554Y-85654819D02*
X166998220Y-85654819D01*
X166998220Y-85654819D02*
X166569649Y-86654819D01*
X117953333Y-94154819D02*
X117620000Y-93678628D01*
X117381905Y-94154819D02*
X117381905Y-93154819D01*
X117381905Y-93154819D02*
X117762857Y-93154819D01*
X117762857Y-93154819D02*
X117858095Y-93202438D01*
X117858095Y-93202438D02*
X117905714Y-93250057D01*
X117905714Y-93250057D02*
X117953333Y-93345295D01*
X117953333Y-93345295D02*
X117953333Y-93488152D01*
X117953333Y-93488152D02*
X117905714Y-93583390D01*
X117905714Y-93583390D02*
X117858095Y-93631009D01*
X117858095Y-93631009D02*
X117762857Y-93678628D01*
X117762857Y-93678628D02*
X117381905Y-93678628D01*
X118810476Y-93154819D02*
X118620000Y-93154819D01*
X118620000Y-93154819D02*
X118524762Y-93202438D01*
X118524762Y-93202438D02*
X118477143Y-93250057D01*
X118477143Y-93250057D02*
X118381905Y-93392914D01*
X118381905Y-93392914D02*
X118334286Y-93583390D01*
X118334286Y-93583390D02*
X118334286Y-93964342D01*
X118334286Y-93964342D02*
X118381905Y-94059580D01*
X118381905Y-94059580D02*
X118429524Y-94107200D01*
X118429524Y-94107200D02*
X118524762Y-94154819D01*
X118524762Y-94154819D02*
X118715238Y-94154819D01*
X118715238Y-94154819D02*
X118810476Y-94107200D01*
X118810476Y-94107200D02*
X118858095Y-94059580D01*
X118858095Y-94059580D02*
X118905714Y-93964342D01*
X118905714Y-93964342D02*
X118905714Y-93726247D01*
X118905714Y-93726247D02*
X118858095Y-93631009D01*
X118858095Y-93631009D02*
X118810476Y-93583390D01*
X118810476Y-93583390D02*
X118715238Y-93535771D01*
X118715238Y-93535771D02*
X118524762Y-93535771D01*
X118524762Y-93535771D02*
X118429524Y-93583390D01*
X118429524Y-93583390D02*
X118381905Y-93631009D01*
X118381905Y-93631009D02*
X118334286Y-93726247D01*
D11*
%TO.C,R10*%
X139490000Y-94830000D02*
X139490000Y-95160000D01*
X139490000Y-97570000D02*
X139490000Y-97240000D01*
X146030000Y-94830000D02*
X139490000Y-94830000D01*
X146030000Y-95160000D02*
X146030000Y-94830000D01*
X146030000Y-97240000D02*
X146030000Y-97570000D01*
X146030000Y-97570000D02*
X139490000Y-97570000D01*
%TO.C,C5*%
X138475113Y-89983000D02*
X138475113Y-89417000D01*
X138515113Y-90217000D02*
X138515113Y-89183000D01*
X138555113Y-90377000D02*
X138555113Y-89023000D01*
X138595113Y-90505000D02*
X138595113Y-88895000D01*
X138635113Y-90614000D02*
X138635113Y-88786000D01*
X138675113Y-90711000D02*
X138675113Y-88689000D01*
X138715113Y-90798000D02*
X138715113Y-88602000D01*
X138755113Y-90877000D02*
X138755113Y-88523000D01*
X138795113Y-90951000D02*
X138795113Y-88449000D01*
X138835113Y-91019000D02*
X138835113Y-88381000D01*
X138875113Y-91083000D02*
X138875113Y-88317000D01*
X138915113Y-91143000D02*
X138915113Y-88257000D01*
X138955113Y-91199000D02*
X138955113Y-88201000D01*
X138995113Y-91253000D02*
X138995113Y-88147000D01*
X139035113Y-91304000D02*
X139035113Y-88096000D01*
X139075113Y-88660000D02*
X139075113Y-88048000D01*
X139075113Y-91352000D02*
X139075113Y-90740000D01*
X139115113Y-88660000D02*
X139115113Y-88001000D01*
X139115113Y-91399000D02*
X139115113Y-90740000D01*
X139155113Y-88660000D02*
X139155113Y-87957000D01*
X139155113Y-91443000D02*
X139155113Y-90740000D01*
X139195113Y-88660000D02*
X139195113Y-87915000D01*
X139195113Y-91485000D02*
X139195113Y-90740000D01*
X139235113Y-88660000D02*
X139235113Y-87875000D01*
X139235113Y-91525000D02*
X139235113Y-90740000D01*
X139275113Y-88660000D02*
X139275113Y-87836000D01*
X139275113Y-91564000D02*
X139275113Y-90740000D01*
X139315113Y-88660000D02*
X139315113Y-87799000D01*
X139315113Y-91601000D02*
X139315113Y-90740000D01*
X139355113Y-88660000D02*
X139355113Y-87764000D01*
X139355113Y-91636000D02*
X139355113Y-90740000D01*
X139395113Y-88660000D02*
X139395113Y-87730000D01*
X139395113Y-91670000D02*
X139395113Y-90740000D01*
X139435113Y-88660000D02*
X139435113Y-87697000D01*
X139435113Y-91703000D02*
X139435113Y-90740000D01*
X139475113Y-88660000D02*
X139475113Y-87665000D01*
X139475113Y-91735000D02*
X139475113Y-90740000D01*
X139515113Y-88660000D02*
X139515113Y-87635000D01*
X139515113Y-91765000D02*
X139515113Y-90740000D01*
X139555113Y-88660000D02*
X139555113Y-87606000D01*
X139555113Y-91794000D02*
X139555113Y-90740000D01*
X139595113Y-88660000D02*
X139595113Y-87578000D01*
X139595113Y-91822000D02*
X139595113Y-90740000D01*
X139635113Y-88660000D02*
X139635113Y-87551000D01*
X139635113Y-91849000D02*
X139635113Y-90740000D01*
X139675113Y-88660000D02*
X139675113Y-87525000D01*
X139675113Y-91875000D02*
X139675113Y-90740000D01*
X139715113Y-88660000D02*
X139715113Y-87501000D01*
X139715113Y-91899000D02*
X139715113Y-90740000D01*
X139755113Y-88660000D02*
X139755113Y-87477000D01*
X139755113Y-91923000D02*
X139755113Y-90740000D01*
X139795113Y-88660000D02*
X139795113Y-87454000D01*
X139795113Y-91946000D02*
X139795113Y-90740000D01*
X139835113Y-88660000D02*
X139835113Y-87432000D01*
X139835113Y-91968000D02*
X139835113Y-90740000D01*
X139875113Y-88660000D02*
X139875113Y-87411000D01*
X139875113Y-91989000D02*
X139875113Y-90740000D01*
X139915113Y-88660000D02*
X139915113Y-87391000D01*
X139915113Y-92009000D02*
X139915113Y-90740000D01*
X139955113Y-88660000D02*
X139955113Y-87371000D01*
X139955113Y-92029000D02*
X139955113Y-90740000D01*
X139995113Y-88660000D02*
X139995113Y-87353000D01*
X139995113Y-92047000D02*
X139995113Y-90740000D01*
X140035113Y-88660000D02*
X140035113Y-87335000D01*
X140035113Y-92065000D02*
X140035113Y-90740000D01*
X140075113Y-88660000D02*
X140075113Y-87318000D01*
X140075113Y-92082000D02*
X140075113Y-90740000D01*
X140115113Y-88660000D02*
X140115113Y-87302000D01*
X140115113Y-92098000D02*
X140115113Y-90740000D01*
X140155113Y-88660000D02*
X140155113Y-87287000D01*
X140155113Y-92113000D02*
X140155113Y-90740000D01*
X140195113Y-88660000D02*
X140195113Y-87272000D01*
X140195113Y-92128000D02*
X140195113Y-90740000D01*
X140235113Y-88660000D02*
X140235113Y-87258000D01*
X140235113Y-92142000D02*
X140235113Y-90740000D01*
X140275113Y-88660000D02*
X140275113Y-87245000D01*
X140275113Y-92155000D02*
X140275113Y-90740000D01*
X140315113Y-88660000D02*
X140315113Y-87233000D01*
X140315113Y-92167000D02*
X140315113Y-90740000D01*
X140355113Y-88660000D02*
X140355113Y-87221000D01*
X140355113Y-92179000D02*
X140355113Y-90740000D01*
X140395113Y-88660000D02*
X140395113Y-87210000D01*
X140395113Y-92190000D02*
X140395113Y-90740000D01*
X140435113Y-88660000D02*
X140435113Y-87199000D01*
X140435113Y-92201000D02*
X140435113Y-90740000D01*
X140475113Y-88660000D02*
X140475113Y-87190000D01*
X140475113Y-92210000D02*
X140475113Y-90740000D01*
X140515113Y-88660000D02*
X140515113Y-87181000D01*
X140515113Y-92219000D02*
X140515113Y-90740000D01*
X140555113Y-88660000D02*
X140555113Y-87172000D01*
X140555113Y-92228000D02*
X140555113Y-90740000D01*
X140595113Y-88660000D02*
X140595113Y-87164000D01*
X140595113Y-92236000D02*
X140595113Y-90740000D01*
X140635113Y-88660000D02*
X140635113Y-87157000D01*
X140635113Y-92243000D02*
X140635113Y-90740000D01*
X140675113Y-88660000D02*
X140675113Y-87151000D01*
X140675113Y-92249000D02*
X140675113Y-90740000D01*
X140715113Y-88660000D02*
X140715113Y-87145000D01*
X140715113Y-92255000D02*
X140715113Y-90740000D01*
X140755113Y-88660000D02*
X140755113Y-87140000D01*
X140755113Y-92260000D02*
X140755113Y-90740000D01*
X140795113Y-88660000D02*
X140795113Y-87135000D01*
X140795113Y-92265000D02*
X140795113Y-90740000D01*
X140835113Y-88660000D02*
X140835113Y-87131000D01*
X140835113Y-92269000D02*
X140835113Y-90740000D01*
X140875113Y-88660000D02*
X140875113Y-87128000D01*
X140875113Y-92272000D02*
X140875113Y-90740000D01*
X140915113Y-88660000D02*
X140915113Y-87125000D01*
X140915113Y-92275000D02*
X140915113Y-90740000D01*
X140955113Y-88660000D02*
X140955113Y-87123000D01*
X140955113Y-92277000D02*
X140955113Y-90740000D01*
X140995113Y-88660000D02*
X140995113Y-87121000D01*
X140995113Y-92279000D02*
X140995113Y-90740000D01*
X141035113Y-88660000D02*
X141035113Y-87120000D01*
X141035113Y-92280000D02*
X141035113Y-90740000D01*
X141075113Y-88660000D02*
X141075113Y-87120000D01*
X141075113Y-92280000D02*
X141075113Y-90740000D01*
X143629888Y-91425000D02*
X143629888Y-90925000D01*
X143879888Y-91175000D02*
X143379888Y-91175000D01*
X143695113Y-89700000D02*
G75*
G02*
X138455113Y-89700000I-2620000J0D01*
G01*
X138455113Y-89700000D02*
G75*
G02*
X143695113Y-89700000I2620000J0D01*
G01*
%TO.C,R16*%
X176990000Y-94830000D02*
X176990000Y-95160000D01*
X176990000Y-97570000D02*
X176990000Y-97240000D01*
X183530000Y-94830000D02*
X176990000Y-94830000D01*
X183530000Y-95160000D02*
X183530000Y-94830000D01*
X183530000Y-97240000D02*
X183530000Y-97570000D01*
X183530000Y-97570000D02*
X176990000Y-97570000D01*
%TO.C,R11*%
X157250000Y-86430000D02*
X157250000Y-92970000D01*
X157250000Y-92970000D02*
X157580000Y-92970000D01*
X157580000Y-86430000D02*
X157250000Y-86430000D01*
X159660000Y-86430000D02*
X159990000Y-86430000D01*
X159990000Y-86430000D02*
X159990000Y-92970000D01*
X159990000Y-92970000D02*
X159660000Y-92970000D01*
%TO.C,R12*%
X151990000Y-94830000D02*
X151990000Y-95160000D01*
X151990000Y-97570000D02*
X151990000Y-97240000D01*
X158530000Y-94830000D02*
X151990000Y-94830000D01*
X158530000Y-95160000D02*
X158530000Y-94830000D01*
X158530000Y-97240000D02*
X158530000Y-97570000D01*
X158530000Y-97570000D02*
X151990000Y-97570000D01*
D12*
%TO.C,J5*%
X137900000Y-98200000D02*
X149900000Y-98200000D01*
X137900000Y-109200000D02*
X137900000Y-98200000D01*
X149900000Y-98200000D02*
X149900000Y-109200000D01*
X149900000Y-109200000D02*
X137900000Y-109200000D01*
X139400000Y-105700000D02*
G75*
G02*
X138400000Y-105700000I-500000J0D01*
G01*
X138400000Y-105700000D02*
G75*
G02*
X139400000Y-105700000I500000J0D01*
G01*
X139400000Y-108200000D02*
G75*
G02*
X138400000Y-108200000I-500000J0D01*
G01*
X138400000Y-108200000D02*
G75*
G02*
X139400000Y-108200000I500000J0D01*
G01*
X144400000Y-100700000D02*
G75*
G02*
X143400000Y-100700000I-500000J0D01*
G01*
X143400000Y-100700000D02*
G75*
G02*
X144400000Y-100700000I500000J0D01*
G01*
X149400000Y-105700000D02*
G75*
G02*
X148400000Y-105700000I-500000J0D01*
G01*
X148400000Y-105700000D02*
G75*
G02*
X149400000Y-105700000I500000J0D01*
G01*
X149400000Y-108200000D02*
G75*
G02*
X148400000Y-108200000I-500000J0D01*
G01*
X148400000Y-108200000D02*
G75*
G02*
X149400000Y-108200000I500000J0D01*
G01*
D11*
%TO.C,R9*%
X144750000Y-86430000D02*
X144750000Y-92970000D01*
X144750000Y-92970000D02*
X145080000Y-92970000D01*
X145080000Y-86430000D02*
X144750000Y-86430000D01*
X147160000Y-86430000D02*
X147490000Y-86430000D01*
X147490000Y-86430000D02*
X147490000Y-92970000D01*
X147490000Y-92970000D02*
X147160000Y-92970000D01*
%TO.C,R18*%
X189490000Y-94830000D02*
X189490000Y-95160000D01*
X189490000Y-97570000D02*
X189490000Y-97240000D01*
X196030000Y-94830000D02*
X189490000Y-94830000D01*
X196030000Y-95160000D02*
X196030000Y-94830000D01*
X196030000Y-97240000D02*
X196030000Y-97570000D01*
X196030000Y-97570000D02*
X189490000Y-97570000D01*
D12*
%TO.C,J9*%
X187900000Y-98200000D02*
X199900000Y-98200000D01*
X187900000Y-109200000D02*
X187900000Y-98200000D01*
X199900000Y-98200000D02*
X199900000Y-109200000D01*
X199900000Y-109200000D02*
X187900000Y-109200000D01*
X189400000Y-105700000D02*
G75*
G02*
X188400000Y-105700000I-500000J0D01*
G01*
X188400000Y-105700000D02*
G75*
G02*
X189400000Y-105700000I500000J0D01*
G01*
X189400000Y-108200000D02*
G75*
G02*
X188400000Y-108200000I-500000J0D01*
G01*
X188400000Y-108200000D02*
G75*
G02*
X189400000Y-108200000I500000J0D01*
G01*
X194400000Y-100700000D02*
G75*
G02*
X193400000Y-100700000I-500000J0D01*
G01*
X193400000Y-100700000D02*
G75*
G02*
X194400000Y-100700000I500000J0D01*
G01*
X199400000Y-105700000D02*
G75*
G02*
X198400000Y-105700000I-500000J0D01*
G01*
X198400000Y-105700000D02*
G75*
G02*
X199400000Y-105700000I500000J0D01*
G01*
X199400000Y-108200000D02*
G75*
G02*
X198400000Y-108200000I-500000J0D01*
G01*
X198400000Y-108200000D02*
G75*
G02*
X199400000Y-108200000I500000J0D01*
G01*
D11*
%TO.C,R14*%
X164490000Y-94830000D02*
X164490000Y-95160000D01*
X164490000Y-97570000D02*
X164490000Y-97240000D01*
X171030000Y-94830000D02*
X164490000Y-94830000D01*
X171030000Y-95160000D02*
X171030000Y-94830000D01*
X171030000Y-97240000D02*
X171030000Y-97570000D01*
X171030000Y-97570000D02*
X164490000Y-97570000D01*
%TO.C,C4*%
X126020000Y-89983000D02*
X126020000Y-89417000D01*
X126060000Y-90217000D02*
X126060000Y-89183000D01*
X126100000Y-90377000D02*
X126100000Y-89023000D01*
X126140000Y-90505000D02*
X126140000Y-88895000D01*
X126180000Y-90614000D02*
X126180000Y-88786000D01*
X126220000Y-90711000D02*
X126220000Y-88689000D01*
X126260000Y-90798000D02*
X126260000Y-88602000D01*
X126300000Y-90877000D02*
X126300000Y-88523000D01*
X126340000Y-90951000D02*
X126340000Y-88449000D01*
X126380000Y-91019000D02*
X126380000Y-88381000D01*
X126420000Y-91083000D02*
X126420000Y-88317000D01*
X126460000Y-91143000D02*
X126460000Y-88257000D01*
X126500000Y-91199000D02*
X126500000Y-88201000D01*
X126540000Y-91253000D02*
X126540000Y-88147000D01*
X126580000Y-91304000D02*
X126580000Y-88096000D01*
X126620000Y-88660000D02*
X126620000Y-88048000D01*
X126620000Y-91352000D02*
X126620000Y-90740000D01*
X126660000Y-88660000D02*
X126660000Y-88001000D01*
X126660000Y-91399000D02*
X126660000Y-90740000D01*
X126700000Y-88660000D02*
X126700000Y-87957000D01*
X126700000Y-91443000D02*
X126700000Y-90740000D01*
X126740000Y-88660000D02*
X126740000Y-87915000D01*
X126740000Y-91485000D02*
X126740000Y-90740000D01*
X126780000Y-88660000D02*
X126780000Y-87875000D01*
X126780000Y-91525000D02*
X126780000Y-90740000D01*
X126820000Y-88660000D02*
X126820000Y-87836000D01*
X126820000Y-91564000D02*
X126820000Y-90740000D01*
X126860000Y-88660000D02*
X126860000Y-87799000D01*
X126860000Y-91601000D02*
X126860000Y-90740000D01*
X126900000Y-88660000D02*
X126900000Y-87764000D01*
X126900000Y-91636000D02*
X126900000Y-90740000D01*
X126940000Y-88660000D02*
X126940000Y-87730000D01*
X126940000Y-91670000D02*
X126940000Y-90740000D01*
X126980000Y-88660000D02*
X126980000Y-87697000D01*
X126980000Y-91703000D02*
X126980000Y-90740000D01*
X127020000Y-88660000D02*
X127020000Y-87665000D01*
X127020000Y-91735000D02*
X127020000Y-90740000D01*
X127060000Y-88660000D02*
X127060000Y-87635000D01*
X127060000Y-91765000D02*
X127060000Y-90740000D01*
X127100000Y-88660000D02*
X127100000Y-87606000D01*
X127100000Y-91794000D02*
X127100000Y-90740000D01*
X127140000Y-88660000D02*
X127140000Y-87578000D01*
X127140000Y-91822000D02*
X127140000Y-90740000D01*
X127180000Y-88660000D02*
X127180000Y-87551000D01*
X127180000Y-91849000D02*
X127180000Y-90740000D01*
X127220000Y-88660000D02*
X127220000Y-87525000D01*
X127220000Y-91875000D02*
X127220000Y-90740000D01*
X127260000Y-88660000D02*
X127260000Y-87501000D01*
X127260000Y-91899000D02*
X127260000Y-90740000D01*
X127300000Y-88660000D02*
X127300000Y-87477000D01*
X127300000Y-91923000D02*
X127300000Y-90740000D01*
X127340000Y-88660000D02*
X127340000Y-87454000D01*
X127340000Y-91946000D02*
X127340000Y-90740000D01*
X127380000Y-88660000D02*
X127380000Y-87432000D01*
X127380000Y-91968000D02*
X127380000Y-90740000D01*
X127420000Y-88660000D02*
X127420000Y-87411000D01*
X127420000Y-91989000D02*
X127420000Y-90740000D01*
X127460000Y-88660000D02*
X127460000Y-87391000D01*
X127460000Y-92009000D02*
X127460000Y-90740000D01*
X127500000Y-88660000D02*
X127500000Y-87371000D01*
X127500000Y-92029000D02*
X127500000Y-90740000D01*
X127540000Y-88660000D02*
X127540000Y-87353000D01*
X127540000Y-92047000D02*
X127540000Y-90740000D01*
X127580000Y-88660000D02*
X127580000Y-87335000D01*
X127580000Y-92065000D02*
X127580000Y-90740000D01*
X127620000Y-88660000D02*
X127620000Y-87318000D01*
X127620000Y-92082000D02*
X127620000Y-90740000D01*
X127660000Y-88660000D02*
X127660000Y-87302000D01*
X127660000Y-92098000D02*
X127660000Y-90740000D01*
X127700000Y-88660000D02*
X127700000Y-87287000D01*
X127700000Y-92113000D02*
X127700000Y-90740000D01*
X127740000Y-88660000D02*
X127740000Y-87272000D01*
X127740000Y-92128000D02*
X127740000Y-90740000D01*
X127780000Y-88660000D02*
X127780000Y-87258000D01*
X127780000Y-92142000D02*
X127780000Y-90740000D01*
X127820000Y-88660000D02*
X127820000Y-87245000D01*
X127820000Y-92155000D02*
X127820000Y-90740000D01*
X127860000Y-88660000D02*
X127860000Y-87233000D01*
X127860000Y-92167000D02*
X127860000Y-90740000D01*
X127900000Y-88660000D02*
X127900000Y-87221000D01*
X127900000Y-92179000D02*
X127900000Y-90740000D01*
X127940000Y-88660000D02*
X127940000Y-87210000D01*
X127940000Y-92190000D02*
X127940000Y-90740000D01*
X127980000Y-88660000D02*
X127980000Y-87199000D01*
X127980000Y-92201000D02*
X127980000Y-90740000D01*
X128020000Y-88660000D02*
X128020000Y-87190000D01*
X128020000Y-92210000D02*
X128020000Y-90740000D01*
X128060000Y-88660000D02*
X128060000Y-87181000D01*
X128060000Y-92219000D02*
X128060000Y-90740000D01*
X128100000Y-88660000D02*
X128100000Y-87172000D01*
X128100000Y-92228000D02*
X128100000Y-90740000D01*
X128140000Y-88660000D02*
X128140000Y-87164000D01*
X128140000Y-92236000D02*
X128140000Y-90740000D01*
X128180000Y-88660000D02*
X128180000Y-87157000D01*
X128180000Y-92243000D02*
X128180000Y-90740000D01*
X128220000Y-88660000D02*
X128220000Y-87151000D01*
X128220000Y-92249000D02*
X128220000Y-90740000D01*
X128260000Y-88660000D02*
X128260000Y-87145000D01*
X128260000Y-92255000D02*
X128260000Y-90740000D01*
X128300000Y-88660000D02*
X128300000Y-87140000D01*
X128300000Y-92260000D02*
X128300000Y-90740000D01*
X128340000Y-88660000D02*
X128340000Y-87135000D01*
X128340000Y-92265000D02*
X128340000Y-90740000D01*
X128380000Y-88660000D02*
X128380000Y-87131000D01*
X128380000Y-92269000D02*
X128380000Y-90740000D01*
X128420000Y-88660000D02*
X128420000Y-87128000D01*
X128420000Y-92272000D02*
X128420000Y-90740000D01*
X128460000Y-88660000D02*
X128460000Y-87125000D01*
X128460000Y-92275000D02*
X128460000Y-90740000D01*
X128500000Y-88660000D02*
X128500000Y-87123000D01*
X128500000Y-92277000D02*
X128500000Y-90740000D01*
X128540000Y-88660000D02*
X128540000Y-87121000D01*
X128540000Y-92279000D02*
X128540000Y-90740000D01*
X128580000Y-88660000D02*
X128580000Y-87120000D01*
X128580000Y-92280000D02*
X128580000Y-90740000D01*
X128620000Y-88660000D02*
X128620000Y-87120000D01*
X128620000Y-92280000D02*
X128620000Y-90740000D01*
X131174775Y-91425000D02*
X131174775Y-90925000D01*
X131424775Y-91175000D02*
X130924775Y-91175000D01*
X131240000Y-89700000D02*
G75*
G02*
X126000000Y-89700000I-2620000J0D01*
G01*
X126000000Y-89700000D02*
G75*
G02*
X131240000Y-89700000I2620000J0D01*
G01*
%TO.C,C1*%
X88520000Y-89983000D02*
X88520000Y-89417000D01*
X88560000Y-90217000D02*
X88560000Y-89183000D01*
X88600000Y-90377000D02*
X88600000Y-89023000D01*
X88640000Y-90505000D02*
X88640000Y-88895000D01*
X88680000Y-90614000D02*
X88680000Y-88786000D01*
X88720000Y-90711000D02*
X88720000Y-88689000D01*
X88760000Y-90798000D02*
X88760000Y-88602000D01*
X88800000Y-90877000D02*
X88800000Y-88523000D01*
X88840000Y-90951000D02*
X88840000Y-88449000D01*
X88880000Y-91019000D02*
X88880000Y-88381000D01*
X88920000Y-91083000D02*
X88920000Y-88317000D01*
X88960000Y-91143000D02*
X88960000Y-88257000D01*
X89000000Y-91199000D02*
X89000000Y-88201000D01*
X89040000Y-91253000D02*
X89040000Y-88147000D01*
X89080000Y-91304000D02*
X89080000Y-88096000D01*
X89120000Y-88660000D02*
X89120000Y-88048000D01*
X89120000Y-91352000D02*
X89120000Y-90740000D01*
X89160000Y-88660000D02*
X89160000Y-88001000D01*
X89160000Y-91399000D02*
X89160000Y-90740000D01*
X89200000Y-88660000D02*
X89200000Y-87957000D01*
X89200000Y-91443000D02*
X89200000Y-90740000D01*
X89240000Y-88660000D02*
X89240000Y-87915000D01*
X89240000Y-91485000D02*
X89240000Y-90740000D01*
X89280000Y-88660000D02*
X89280000Y-87875000D01*
X89280000Y-91525000D02*
X89280000Y-90740000D01*
X89320000Y-88660000D02*
X89320000Y-87836000D01*
X89320000Y-91564000D02*
X89320000Y-90740000D01*
X89360000Y-88660000D02*
X89360000Y-87799000D01*
X89360000Y-91601000D02*
X89360000Y-90740000D01*
X89400000Y-88660000D02*
X89400000Y-87764000D01*
X89400000Y-91636000D02*
X89400000Y-90740000D01*
X89440000Y-88660000D02*
X89440000Y-87730000D01*
X89440000Y-91670000D02*
X89440000Y-90740000D01*
X89480000Y-88660000D02*
X89480000Y-87697000D01*
X89480000Y-91703000D02*
X89480000Y-90740000D01*
X89520000Y-88660000D02*
X89520000Y-87665000D01*
X89520000Y-91735000D02*
X89520000Y-90740000D01*
X89560000Y-88660000D02*
X89560000Y-87635000D01*
X89560000Y-91765000D02*
X89560000Y-90740000D01*
X89600000Y-88660000D02*
X89600000Y-87606000D01*
X89600000Y-91794000D02*
X89600000Y-90740000D01*
X89640000Y-88660000D02*
X89640000Y-87578000D01*
X89640000Y-91822000D02*
X89640000Y-90740000D01*
X89680000Y-88660000D02*
X89680000Y-87551000D01*
X89680000Y-91849000D02*
X89680000Y-90740000D01*
X89720000Y-88660000D02*
X89720000Y-87525000D01*
X89720000Y-91875000D02*
X89720000Y-90740000D01*
X89760000Y-88660000D02*
X89760000Y-87501000D01*
X89760000Y-91899000D02*
X89760000Y-90740000D01*
X89800000Y-88660000D02*
X89800000Y-87477000D01*
X89800000Y-91923000D02*
X89800000Y-90740000D01*
X89840000Y-88660000D02*
X89840000Y-87454000D01*
X89840000Y-91946000D02*
X89840000Y-90740000D01*
X89880000Y-88660000D02*
X89880000Y-87432000D01*
X89880000Y-91968000D02*
X89880000Y-90740000D01*
X89920000Y-88660000D02*
X89920000Y-87411000D01*
X89920000Y-91989000D02*
X89920000Y-90740000D01*
X89960000Y-88660000D02*
X89960000Y-87391000D01*
X89960000Y-92009000D02*
X89960000Y-90740000D01*
X90000000Y-88660000D02*
X90000000Y-87371000D01*
X90000000Y-92029000D02*
X90000000Y-90740000D01*
X90040000Y-88660000D02*
X90040000Y-87353000D01*
X90040000Y-92047000D02*
X90040000Y-90740000D01*
X90080000Y-88660000D02*
X90080000Y-87335000D01*
X90080000Y-92065000D02*
X90080000Y-90740000D01*
X90120000Y-88660000D02*
X90120000Y-87318000D01*
X90120000Y-92082000D02*
X90120000Y-90740000D01*
X90160000Y-88660000D02*
X90160000Y-87302000D01*
X90160000Y-92098000D02*
X90160000Y-90740000D01*
X90200000Y-88660000D02*
X90200000Y-87287000D01*
X90200000Y-92113000D02*
X90200000Y-90740000D01*
X90240000Y-88660000D02*
X90240000Y-87272000D01*
X90240000Y-92128000D02*
X90240000Y-90740000D01*
X90280000Y-88660000D02*
X90280000Y-87258000D01*
X90280000Y-92142000D02*
X90280000Y-90740000D01*
X90320000Y-88660000D02*
X90320000Y-87245000D01*
X90320000Y-92155000D02*
X90320000Y-90740000D01*
X90360000Y-88660000D02*
X90360000Y-87233000D01*
X90360000Y-92167000D02*
X90360000Y-90740000D01*
X90400000Y-88660000D02*
X90400000Y-87221000D01*
X90400000Y-92179000D02*
X90400000Y-90740000D01*
X90440000Y-88660000D02*
X90440000Y-87210000D01*
X90440000Y-92190000D02*
X90440000Y-90740000D01*
X90480000Y-88660000D02*
X90480000Y-87199000D01*
X90480000Y-92201000D02*
X90480000Y-90740000D01*
X90520000Y-88660000D02*
X90520000Y-87190000D01*
X90520000Y-92210000D02*
X90520000Y-90740000D01*
X90560000Y-88660000D02*
X90560000Y-87181000D01*
X90560000Y-92219000D02*
X90560000Y-90740000D01*
X90600000Y-88660000D02*
X90600000Y-87172000D01*
X90600000Y-92228000D02*
X90600000Y-90740000D01*
X90640000Y-88660000D02*
X90640000Y-87164000D01*
X90640000Y-92236000D02*
X90640000Y-90740000D01*
X90680000Y-88660000D02*
X90680000Y-87157000D01*
X90680000Y-92243000D02*
X90680000Y-90740000D01*
X90720000Y-88660000D02*
X90720000Y-87151000D01*
X90720000Y-92249000D02*
X90720000Y-90740000D01*
X90760000Y-88660000D02*
X90760000Y-87145000D01*
X90760000Y-92255000D02*
X90760000Y-90740000D01*
X90800000Y-88660000D02*
X90800000Y-87140000D01*
X90800000Y-92260000D02*
X90800000Y-90740000D01*
X90840000Y-88660000D02*
X90840000Y-87135000D01*
X90840000Y-92265000D02*
X90840000Y-90740000D01*
X90880000Y-88660000D02*
X90880000Y-87131000D01*
X90880000Y-92269000D02*
X90880000Y-90740000D01*
X90920000Y-88660000D02*
X90920000Y-87128000D01*
X90920000Y-92272000D02*
X90920000Y-90740000D01*
X90960000Y-88660000D02*
X90960000Y-87125000D01*
X90960000Y-92275000D02*
X90960000Y-90740000D01*
X91000000Y-88660000D02*
X91000000Y-87123000D01*
X91000000Y-92277000D02*
X91000000Y-90740000D01*
X91040000Y-88660000D02*
X91040000Y-87121000D01*
X91040000Y-92279000D02*
X91040000Y-90740000D01*
X91080000Y-88660000D02*
X91080000Y-87120000D01*
X91080000Y-92280000D02*
X91080000Y-90740000D01*
X91120000Y-88660000D02*
X91120000Y-87120000D01*
X91120000Y-92280000D02*
X91120000Y-90740000D01*
X93674775Y-91425000D02*
X93674775Y-90925000D01*
X93924775Y-91175000D02*
X93424775Y-91175000D01*
X93740000Y-89700000D02*
G75*
G02*
X88500000Y-89700000I-2620000J0D01*
G01*
X88500000Y-89700000D02*
G75*
G02*
X93740000Y-89700000I2620000J0D01*
G01*
%TO.C,R1*%
X94750000Y-86430000D02*
X94750000Y-92970000D01*
X94750000Y-92970000D02*
X95080000Y-92970000D01*
X95080000Y-86430000D02*
X94750000Y-86430000D01*
X97160000Y-86430000D02*
X97490000Y-86430000D01*
X97490000Y-86430000D02*
X97490000Y-92970000D01*
X97490000Y-92970000D02*
X97160000Y-92970000D01*
%TO.C,C10*%
X200975113Y-89983000D02*
X200975113Y-89417000D01*
X201015113Y-90217000D02*
X201015113Y-89183000D01*
X201055113Y-90377000D02*
X201055113Y-89023000D01*
X201095113Y-90505000D02*
X201095113Y-88895000D01*
X201135113Y-90614000D02*
X201135113Y-88786000D01*
X201175113Y-90711000D02*
X201175113Y-88689000D01*
X201215113Y-90798000D02*
X201215113Y-88602000D01*
X201255113Y-90877000D02*
X201255113Y-88523000D01*
X201295113Y-90951000D02*
X201295113Y-88449000D01*
X201335113Y-91019000D02*
X201335113Y-88381000D01*
X201375113Y-91083000D02*
X201375113Y-88317000D01*
X201415113Y-91143000D02*
X201415113Y-88257000D01*
X201455113Y-91199000D02*
X201455113Y-88201000D01*
X201495113Y-91253000D02*
X201495113Y-88147000D01*
X201535113Y-91304000D02*
X201535113Y-88096000D01*
X201575113Y-88660000D02*
X201575113Y-88048000D01*
X201575113Y-91352000D02*
X201575113Y-90740000D01*
X201615113Y-88660000D02*
X201615113Y-88001000D01*
X201615113Y-91399000D02*
X201615113Y-90740000D01*
X201655113Y-88660000D02*
X201655113Y-87957000D01*
X201655113Y-91443000D02*
X201655113Y-90740000D01*
X201695113Y-88660000D02*
X201695113Y-87915000D01*
X201695113Y-91485000D02*
X201695113Y-90740000D01*
X201735113Y-88660000D02*
X201735113Y-87875000D01*
X201735113Y-91525000D02*
X201735113Y-90740000D01*
X201775113Y-88660000D02*
X201775113Y-87836000D01*
X201775113Y-91564000D02*
X201775113Y-90740000D01*
X201815113Y-88660000D02*
X201815113Y-87799000D01*
X201815113Y-91601000D02*
X201815113Y-90740000D01*
X201855113Y-88660000D02*
X201855113Y-87764000D01*
X201855113Y-91636000D02*
X201855113Y-90740000D01*
X201895113Y-88660000D02*
X201895113Y-87730000D01*
X201895113Y-91670000D02*
X201895113Y-90740000D01*
X201935113Y-88660000D02*
X201935113Y-87697000D01*
X201935113Y-91703000D02*
X201935113Y-90740000D01*
X201975113Y-88660000D02*
X201975113Y-87665000D01*
X201975113Y-91735000D02*
X201975113Y-90740000D01*
X202015113Y-88660000D02*
X202015113Y-87635000D01*
X202015113Y-91765000D02*
X202015113Y-90740000D01*
X202055113Y-88660000D02*
X202055113Y-87606000D01*
X202055113Y-91794000D02*
X202055113Y-90740000D01*
X202095113Y-88660000D02*
X202095113Y-87578000D01*
X202095113Y-91822000D02*
X202095113Y-90740000D01*
X202135113Y-88660000D02*
X202135113Y-87551000D01*
X202135113Y-91849000D02*
X202135113Y-90740000D01*
X202175113Y-88660000D02*
X202175113Y-87525000D01*
X202175113Y-91875000D02*
X202175113Y-90740000D01*
X202215113Y-88660000D02*
X202215113Y-87501000D01*
X202215113Y-91899000D02*
X202215113Y-90740000D01*
X202255113Y-88660000D02*
X202255113Y-87477000D01*
X202255113Y-91923000D02*
X202255113Y-90740000D01*
X202295113Y-88660000D02*
X202295113Y-87454000D01*
X202295113Y-91946000D02*
X202295113Y-90740000D01*
X202335113Y-88660000D02*
X202335113Y-87432000D01*
X202335113Y-91968000D02*
X202335113Y-90740000D01*
X202375113Y-88660000D02*
X202375113Y-87411000D01*
X202375113Y-91989000D02*
X202375113Y-90740000D01*
X202415113Y-88660000D02*
X202415113Y-87391000D01*
X202415113Y-92009000D02*
X202415113Y-90740000D01*
X202455113Y-88660000D02*
X202455113Y-87371000D01*
X202455113Y-92029000D02*
X202455113Y-90740000D01*
X202495113Y-88660000D02*
X202495113Y-87353000D01*
X202495113Y-92047000D02*
X202495113Y-90740000D01*
X202535113Y-88660000D02*
X202535113Y-87335000D01*
X202535113Y-92065000D02*
X202535113Y-90740000D01*
X202575113Y-88660000D02*
X202575113Y-87318000D01*
X202575113Y-92082000D02*
X202575113Y-90740000D01*
X202615113Y-88660000D02*
X202615113Y-87302000D01*
X202615113Y-92098000D02*
X202615113Y-90740000D01*
X202655113Y-88660000D02*
X202655113Y-87287000D01*
X202655113Y-92113000D02*
X202655113Y-90740000D01*
X202695113Y-88660000D02*
X202695113Y-87272000D01*
X202695113Y-92128000D02*
X202695113Y-90740000D01*
X202735113Y-88660000D02*
X202735113Y-87258000D01*
X202735113Y-92142000D02*
X202735113Y-90740000D01*
X202775113Y-88660000D02*
X202775113Y-87245000D01*
X202775113Y-92155000D02*
X202775113Y-90740000D01*
X202815113Y-88660000D02*
X202815113Y-87233000D01*
X202815113Y-92167000D02*
X202815113Y-90740000D01*
X202855113Y-88660000D02*
X202855113Y-87221000D01*
X202855113Y-92179000D02*
X202855113Y-90740000D01*
X202895113Y-88660000D02*
X202895113Y-87210000D01*
X202895113Y-92190000D02*
X202895113Y-90740000D01*
X202935113Y-88660000D02*
X202935113Y-87199000D01*
X202935113Y-92201000D02*
X202935113Y-90740000D01*
X202975113Y-88660000D02*
X202975113Y-87190000D01*
X202975113Y-92210000D02*
X202975113Y-90740000D01*
X203015113Y-88660000D02*
X203015113Y-87181000D01*
X203015113Y-92219000D02*
X203015113Y-90740000D01*
X203055113Y-88660000D02*
X203055113Y-87172000D01*
X203055113Y-92228000D02*
X203055113Y-90740000D01*
X203095113Y-88660000D02*
X203095113Y-87164000D01*
X203095113Y-92236000D02*
X203095113Y-90740000D01*
X203135113Y-88660000D02*
X203135113Y-87157000D01*
X203135113Y-92243000D02*
X203135113Y-90740000D01*
X203175113Y-88660000D02*
X203175113Y-87151000D01*
X203175113Y-92249000D02*
X203175113Y-90740000D01*
X203215113Y-88660000D02*
X203215113Y-87145000D01*
X203215113Y-92255000D02*
X203215113Y-90740000D01*
X203255113Y-88660000D02*
X203255113Y-87140000D01*
X203255113Y-92260000D02*
X203255113Y-90740000D01*
X203295113Y-88660000D02*
X203295113Y-87135000D01*
X203295113Y-92265000D02*
X203295113Y-90740000D01*
X203335113Y-88660000D02*
X203335113Y-87131000D01*
X203335113Y-92269000D02*
X203335113Y-90740000D01*
X203375113Y-88660000D02*
X203375113Y-87128000D01*
X203375113Y-92272000D02*
X203375113Y-90740000D01*
X203415113Y-88660000D02*
X203415113Y-87125000D01*
X203415113Y-92275000D02*
X203415113Y-90740000D01*
X203455113Y-88660000D02*
X203455113Y-87123000D01*
X203455113Y-92277000D02*
X203455113Y-90740000D01*
X203495113Y-88660000D02*
X203495113Y-87121000D01*
X203495113Y-92279000D02*
X203495113Y-90740000D01*
X203535113Y-88660000D02*
X203535113Y-87120000D01*
X203535113Y-92280000D02*
X203535113Y-90740000D01*
X203575113Y-88660000D02*
X203575113Y-87120000D01*
X203575113Y-92280000D02*
X203575113Y-90740000D01*
X206129888Y-91425000D02*
X206129888Y-90925000D01*
X206379888Y-91175000D02*
X205879888Y-91175000D01*
X206195113Y-89700000D02*
G75*
G02*
X200955113Y-89700000I-2620000J0D01*
G01*
X200955113Y-89700000D02*
G75*
G02*
X206195113Y-89700000I2620000J0D01*
G01*
%TO.C,R2*%
X89490000Y-94830000D02*
X89490000Y-95160000D01*
X89490000Y-97570000D02*
X89490000Y-97240000D01*
X96030000Y-94830000D02*
X89490000Y-94830000D01*
X96030000Y-95160000D02*
X96030000Y-94830000D01*
X96030000Y-97240000D02*
X96030000Y-97570000D01*
X96030000Y-97570000D02*
X89490000Y-97570000D01*
%TO.C,U2*%
X169870000Y-76550000D02*
X169870000Y-81850000D01*
X169870000Y-81850000D02*
X190310000Y-81850000D01*
X190310000Y-76550000D02*
X169870000Y-76550000D01*
X190310000Y-78200000D02*
X190310000Y-76550000D01*
X190310000Y-81850000D02*
X190310000Y-80200000D01*
X190370000Y-74060000D02*
X169810000Y-74060000D01*
X169810000Y-84340000D01*
X190370000Y-84340000D01*
X190370000Y-74060000D01*
X190310000Y-80200000D02*
G75*
G02*
X190310000Y-78200000I0J1000000D01*
G01*
%TO.C,R20*%
X201990000Y-94830000D02*
X201990000Y-95160000D01*
X201990000Y-97570000D02*
X201990000Y-97240000D01*
X208530000Y-94830000D02*
X201990000Y-94830000D01*
X208530000Y-95160000D02*
X208530000Y-94830000D01*
X208530000Y-97240000D02*
X208530000Y-97570000D01*
X208530000Y-97570000D02*
X201990000Y-97570000D01*
%TO.C,R4*%
X101990000Y-94830000D02*
X101990000Y-95160000D01*
X101990000Y-97570000D02*
X101990000Y-97240000D01*
X108530000Y-94830000D02*
X101990000Y-94830000D01*
X108530000Y-95160000D02*
X108530000Y-94830000D01*
X108530000Y-97240000D02*
X108530000Y-97570000D01*
X108530000Y-97570000D02*
X101990000Y-97570000D01*
%TO.C,C6*%
X151020000Y-89983000D02*
X151020000Y-89417000D01*
X151060000Y-90217000D02*
X151060000Y-89183000D01*
X151100000Y-90377000D02*
X151100000Y-89023000D01*
X151140000Y-90505000D02*
X151140000Y-88895000D01*
X151180000Y-90614000D02*
X151180000Y-88786000D01*
X151220000Y-90711000D02*
X151220000Y-88689000D01*
X151260000Y-90798000D02*
X151260000Y-88602000D01*
X151300000Y-90877000D02*
X151300000Y-88523000D01*
X151340000Y-90951000D02*
X151340000Y-88449000D01*
X151380000Y-91019000D02*
X151380000Y-88381000D01*
X151420000Y-91083000D02*
X151420000Y-88317000D01*
X151460000Y-91143000D02*
X151460000Y-88257000D01*
X151500000Y-91199000D02*
X151500000Y-88201000D01*
X151540000Y-91253000D02*
X151540000Y-88147000D01*
X151580000Y-91304000D02*
X151580000Y-88096000D01*
X151620000Y-88660000D02*
X151620000Y-88048000D01*
X151620000Y-91352000D02*
X151620000Y-90740000D01*
X151660000Y-88660000D02*
X151660000Y-88001000D01*
X151660000Y-91399000D02*
X151660000Y-90740000D01*
X151700000Y-88660000D02*
X151700000Y-87957000D01*
X151700000Y-91443000D02*
X151700000Y-90740000D01*
X151740000Y-88660000D02*
X151740000Y-87915000D01*
X151740000Y-91485000D02*
X151740000Y-90740000D01*
X151780000Y-88660000D02*
X151780000Y-87875000D01*
X151780000Y-91525000D02*
X151780000Y-90740000D01*
X151820000Y-88660000D02*
X151820000Y-87836000D01*
X151820000Y-91564000D02*
X151820000Y-90740000D01*
X151860000Y-88660000D02*
X151860000Y-87799000D01*
X151860000Y-91601000D02*
X151860000Y-90740000D01*
X151900000Y-88660000D02*
X151900000Y-87764000D01*
X151900000Y-91636000D02*
X151900000Y-90740000D01*
X151940000Y-88660000D02*
X151940000Y-87730000D01*
X151940000Y-91670000D02*
X151940000Y-90740000D01*
X151980000Y-88660000D02*
X151980000Y-87697000D01*
X151980000Y-91703000D02*
X151980000Y-90740000D01*
X152020000Y-88660000D02*
X152020000Y-87665000D01*
X152020000Y-91735000D02*
X152020000Y-90740000D01*
X152060000Y-88660000D02*
X152060000Y-87635000D01*
X152060000Y-91765000D02*
X152060000Y-90740000D01*
X152100000Y-88660000D02*
X152100000Y-87606000D01*
X152100000Y-91794000D02*
X152100000Y-90740000D01*
X152140000Y-88660000D02*
X152140000Y-87578000D01*
X152140000Y-91822000D02*
X152140000Y-90740000D01*
X152180000Y-88660000D02*
X152180000Y-87551000D01*
X152180000Y-91849000D02*
X152180000Y-90740000D01*
X152220000Y-88660000D02*
X152220000Y-87525000D01*
X152220000Y-91875000D02*
X152220000Y-90740000D01*
X152260000Y-88660000D02*
X152260000Y-87501000D01*
X152260000Y-91899000D02*
X152260000Y-90740000D01*
X152300000Y-88660000D02*
X152300000Y-87477000D01*
X152300000Y-91923000D02*
X152300000Y-90740000D01*
X152340000Y-88660000D02*
X152340000Y-87454000D01*
X152340000Y-91946000D02*
X152340000Y-90740000D01*
X152380000Y-88660000D02*
X152380000Y-87432000D01*
X152380000Y-91968000D02*
X152380000Y-90740000D01*
X152420000Y-88660000D02*
X152420000Y-87411000D01*
X152420000Y-91989000D02*
X152420000Y-90740000D01*
X152460000Y-88660000D02*
X152460000Y-87391000D01*
X152460000Y-92009000D02*
X152460000Y-90740000D01*
X152500000Y-88660000D02*
X152500000Y-87371000D01*
X152500000Y-92029000D02*
X152500000Y-90740000D01*
X152540000Y-88660000D02*
X152540000Y-87353000D01*
X152540000Y-92047000D02*
X152540000Y-90740000D01*
X152580000Y-88660000D02*
X152580000Y-87335000D01*
X152580000Y-92065000D02*
X152580000Y-90740000D01*
X152620000Y-88660000D02*
X152620000Y-87318000D01*
X152620000Y-92082000D02*
X152620000Y-90740000D01*
X152660000Y-88660000D02*
X152660000Y-87302000D01*
X152660000Y-92098000D02*
X152660000Y-90740000D01*
X152700000Y-88660000D02*
X152700000Y-87287000D01*
X152700000Y-92113000D02*
X152700000Y-90740000D01*
X152740000Y-88660000D02*
X152740000Y-87272000D01*
X152740000Y-92128000D02*
X152740000Y-90740000D01*
X152780000Y-88660000D02*
X152780000Y-87258000D01*
X152780000Y-92142000D02*
X152780000Y-90740000D01*
X152820000Y-88660000D02*
X152820000Y-87245000D01*
X152820000Y-92155000D02*
X152820000Y-90740000D01*
X152860000Y-88660000D02*
X152860000Y-87233000D01*
X152860000Y-92167000D02*
X152860000Y-90740000D01*
X152900000Y-88660000D02*
X152900000Y-87221000D01*
X152900000Y-92179000D02*
X152900000Y-90740000D01*
X152940000Y-88660000D02*
X152940000Y-87210000D01*
X152940000Y-92190000D02*
X152940000Y-90740000D01*
X152980000Y-88660000D02*
X152980000Y-87199000D01*
X152980000Y-92201000D02*
X152980000Y-90740000D01*
X153020000Y-88660000D02*
X153020000Y-87190000D01*
X153020000Y-92210000D02*
X153020000Y-90740000D01*
X153060000Y-88660000D02*
X153060000Y-87181000D01*
X153060000Y-92219000D02*
X153060000Y-90740000D01*
X153100000Y-88660000D02*
X153100000Y-87172000D01*
X153100000Y-92228000D02*
X153100000Y-90740000D01*
X153140000Y-88660000D02*
X153140000Y-87164000D01*
X153140000Y-92236000D02*
X153140000Y-90740000D01*
X153180000Y-88660000D02*
X153180000Y-87157000D01*
X153180000Y-92243000D02*
X153180000Y-90740000D01*
X153220000Y-88660000D02*
X153220000Y-87151000D01*
X153220000Y-92249000D02*
X153220000Y-90740000D01*
X153260000Y-88660000D02*
X153260000Y-87145000D01*
X153260000Y-92255000D02*
X153260000Y-90740000D01*
X153300000Y-88660000D02*
X153300000Y-87140000D01*
X153300000Y-92260000D02*
X153300000Y-90740000D01*
X153340000Y-88660000D02*
X153340000Y-87135000D01*
X153340000Y-92265000D02*
X153340000Y-90740000D01*
X153380000Y-88660000D02*
X153380000Y-87131000D01*
X153380000Y-92269000D02*
X153380000Y-90740000D01*
X153420000Y-88660000D02*
X153420000Y-87128000D01*
X153420000Y-92272000D02*
X153420000Y-90740000D01*
X153460000Y-88660000D02*
X153460000Y-87125000D01*
X153460000Y-92275000D02*
X153460000Y-90740000D01*
X153500000Y-88660000D02*
X153500000Y-87123000D01*
X153500000Y-92277000D02*
X153500000Y-90740000D01*
X153540000Y-88660000D02*
X153540000Y-87121000D01*
X153540000Y-92279000D02*
X153540000Y-90740000D01*
X153580000Y-88660000D02*
X153580000Y-87120000D01*
X153580000Y-92280000D02*
X153580000Y-90740000D01*
X153620000Y-88660000D02*
X153620000Y-87120000D01*
X153620000Y-92280000D02*
X153620000Y-90740000D01*
X156174775Y-91425000D02*
X156174775Y-90925000D01*
X156424775Y-91175000D02*
X155924775Y-91175000D01*
X156240000Y-89700000D02*
G75*
G02*
X151000000Y-89700000I-2620000J0D01*
G01*
X151000000Y-89700000D02*
G75*
G02*
X156240000Y-89700000I2620000J0D01*
G01*
D12*
%TO.C,J8*%
X175400000Y-98200000D02*
X187400000Y-98200000D01*
X175400000Y-109200000D02*
X175400000Y-98200000D01*
X187400000Y-98200000D02*
X187400000Y-109200000D01*
X187400000Y-109200000D02*
X175400000Y-109200000D01*
X176900000Y-105700000D02*
G75*
G02*
X175900000Y-105700000I-500000J0D01*
G01*
X175900000Y-105700000D02*
G75*
G02*
X176900000Y-105700000I500000J0D01*
G01*
X176900000Y-108200000D02*
G75*
G02*
X175900000Y-108200000I-500000J0D01*
G01*
X175900000Y-108200000D02*
G75*
G02*
X176900000Y-108200000I500000J0D01*
G01*
X181900000Y-100700000D02*
G75*
G02*
X180900000Y-100700000I-500000J0D01*
G01*
X180900000Y-100700000D02*
G75*
G02*
X181900000Y-100700000I500000J0D01*
G01*
X186900000Y-105700000D02*
G75*
G02*
X185900000Y-105700000I-500000J0D01*
G01*
X185900000Y-105700000D02*
G75*
G02*
X186900000Y-105700000I500000J0D01*
G01*
X186900000Y-108200000D02*
G75*
G02*
X185900000Y-108200000I-500000J0D01*
G01*
X185900000Y-108200000D02*
G75*
G02*
X186900000Y-108200000I500000J0D01*
G01*
D11*
%TO.C,C11*%
X161095225Y-76225000D02*
X161595225Y-76225000D01*
X161345225Y-75975000D02*
X161345225Y-76475000D01*
X163900000Y-75120000D02*
X163900000Y-76660000D01*
X163900000Y-78740000D02*
X163900000Y-80280000D01*
X163940000Y-75120000D02*
X163940000Y-76660000D01*
X163940000Y-78740000D02*
X163940000Y-80280000D01*
X163980000Y-75121000D02*
X163980000Y-76660000D01*
X163980000Y-78740000D02*
X163980000Y-80279000D01*
X164020000Y-75123000D02*
X164020000Y-76660000D01*
X164020000Y-78740000D02*
X164020000Y-80277000D01*
X164060000Y-75125000D02*
X164060000Y-76660000D01*
X164060000Y-78740000D02*
X164060000Y-80275000D01*
X164100000Y-75128000D02*
X164100000Y-76660000D01*
X164100000Y-78740000D02*
X164100000Y-80272000D01*
X164140000Y-75131000D02*
X164140000Y-76660000D01*
X164140000Y-78740000D02*
X164140000Y-80269000D01*
X164180000Y-75135000D02*
X164180000Y-76660000D01*
X164180000Y-78740000D02*
X164180000Y-80265000D01*
X164220000Y-75140000D02*
X164220000Y-76660000D01*
X164220000Y-78740000D02*
X164220000Y-80260000D01*
X164260000Y-75145000D02*
X164260000Y-76660000D01*
X164260000Y-78740000D02*
X164260000Y-80255000D01*
X164300000Y-75151000D02*
X164300000Y-76660000D01*
X164300000Y-78740000D02*
X164300000Y-80249000D01*
X164340000Y-75157000D02*
X164340000Y-76660000D01*
X164340000Y-78740000D02*
X164340000Y-80243000D01*
X164380000Y-75164000D02*
X164380000Y-76660000D01*
X164380000Y-78740000D02*
X164380000Y-80236000D01*
X164420000Y-75172000D02*
X164420000Y-76660000D01*
X164420000Y-78740000D02*
X164420000Y-80228000D01*
X164460000Y-75181000D02*
X164460000Y-76660000D01*
X164460000Y-78740000D02*
X164460000Y-80219000D01*
X164500000Y-75190000D02*
X164500000Y-76660000D01*
X164500000Y-78740000D02*
X164500000Y-80210000D01*
X164540000Y-75199000D02*
X164540000Y-76660000D01*
X164540000Y-78740000D02*
X164540000Y-80201000D01*
X164580000Y-75210000D02*
X164580000Y-76660000D01*
X164580000Y-78740000D02*
X164580000Y-80190000D01*
X164620000Y-75221000D02*
X164620000Y-76660000D01*
X164620000Y-78740000D02*
X164620000Y-80179000D01*
X164660000Y-75233000D02*
X164660000Y-76660000D01*
X164660000Y-78740000D02*
X164660000Y-80167000D01*
X164700000Y-75245000D02*
X164700000Y-76660000D01*
X164700000Y-78740000D02*
X164700000Y-80155000D01*
X164740000Y-75258000D02*
X164740000Y-76660000D01*
X164740000Y-78740000D02*
X164740000Y-80142000D01*
X164780000Y-75272000D02*
X164780000Y-76660000D01*
X164780000Y-78740000D02*
X164780000Y-80128000D01*
X164820000Y-75287000D02*
X164820000Y-76660000D01*
X164820000Y-78740000D02*
X164820000Y-80113000D01*
X164860000Y-75302000D02*
X164860000Y-76660000D01*
X164860000Y-78740000D02*
X164860000Y-80098000D01*
X164900000Y-75318000D02*
X164900000Y-76660000D01*
X164900000Y-78740000D02*
X164900000Y-80082000D01*
X164940000Y-75335000D02*
X164940000Y-76660000D01*
X164940000Y-78740000D02*
X164940000Y-80065000D01*
X164980000Y-75353000D02*
X164980000Y-76660000D01*
X164980000Y-78740000D02*
X164980000Y-80047000D01*
X165020000Y-75371000D02*
X165020000Y-76660000D01*
X165020000Y-78740000D02*
X165020000Y-80029000D01*
X165060000Y-75391000D02*
X165060000Y-76660000D01*
X165060000Y-78740000D02*
X165060000Y-80009000D01*
X165100000Y-75411000D02*
X165100000Y-76660000D01*
X165100000Y-78740000D02*
X165100000Y-79989000D01*
X165140000Y-75432000D02*
X165140000Y-76660000D01*
X165140000Y-78740000D02*
X165140000Y-79968000D01*
X165180000Y-75454000D02*
X165180000Y-76660000D01*
X165180000Y-78740000D02*
X165180000Y-79946000D01*
X165220000Y-75477000D02*
X165220000Y-76660000D01*
X165220000Y-78740000D02*
X165220000Y-79923000D01*
X165260000Y-75501000D02*
X165260000Y-76660000D01*
X165260000Y-78740000D02*
X165260000Y-79899000D01*
X165300000Y-75525000D02*
X165300000Y-76660000D01*
X165300000Y-78740000D02*
X165300000Y-79875000D01*
X165340000Y-75551000D02*
X165340000Y-76660000D01*
X165340000Y-78740000D02*
X165340000Y-79849000D01*
X165380000Y-75578000D02*
X165380000Y-76660000D01*
X165380000Y-78740000D02*
X165380000Y-79822000D01*
X165420000Y-75606000D02*
X165420000Y-76660000D01*
X165420000Y-78740000D02*
X165420000Y-79794000D01*
X165460000Y-75635000D02*
X165460000Y-76660000D01*
X165460000Y-78740000D02*
X165460000Y-79765000D01*
X165500000Y-75665000D02*
X165500000Y-76660000D01*
X165500000Y-78740000D02*
X165500000Y-79735000D01*
X165540000Y-75697000D02*
X165540000Y-76660000D01*
X165540000Y-78740000D02*
X165540000Y-79703000D01*
X165580000Y-75730000D02*
X165580000Y-76660000D01*
X165580000Y-78740000D02*
X165580000Y-79670000D01*
X165620000Y-75764000D02*
X165620000Y-76660000D01*
X165620000Y-78740000D02*
X165620000Y-79636000D01*
X165660000Y-75799000D02*
X165660000Y-76660000D01*
X165660000Y-78740000D02*
X165660000Y-79601000D01*
X165700000Y-75836000D02*
X165700000Y-76660000D01*
X165700000Y-78740000D02*
X165700000Y-79564000D01*
X165740000Y-75875000D02*
X165740000Y-76660000D01*
X165740000Y-78740000D02*
X165740000Y-79525000D01*
X165780000Y-75915000D02*
X165780000Y-76660000D01*
X165780000Y-78740000D02*
X165780000Y-79485000D01*
X165820000Y-75957000D02*
X165820000Y-76660000D01*
X165820000Y-78740000D02*
X165820000Y-79443000D01*
X165860000Y-76001000D02*
X165860000Y-76660000D01*
X165860000Y-78740000D02*
X165860000Y-79399000D01*
X165900000Y-76048000D02*
X165900000Y-76660000D01*
X165900000Y-78740000D02*
X165900000Y-79352000D01*
X165940000Y-76096000D02*
X165940000Y-79304000D01*
X165980000Y-76147000D02*
X165980000Y-79253000D01*
X166020000Y-76201000D02*
X166020000Y-79199000D01*
X166060000Y-76257000D02*
X166060000Y-79143000D01*
X166100000Y-76317000D02*
X166100000Y-79083000D01*
X166140000Y-76381000D02*
X166140000Y-79019000D01*
X166180000Y-76449000D02*
X166180000Y-78951000D01*
X166220000Y-76523000D02*
X166220000Y-78877000D01*
X166260000Y-76602000D02*
X166260000Y-78798000D01*
X166300000Y-76689000D02*
X166300000Y-78711000D01*
X166340000Y-76786000D02*
X166340000Y-78614000D01*
X166380000Y-76895000D02*
X166380000Y-78505000D01*
X166420000Y-77023000D02*
X166420000Y-78377000D01*
X166460000Y-77183000D02*
X166460000Y-78217000D01*
X166500000Y-77417000D02*
X166500000Y-77983000D01*
X166520000Y-77700000D02*
G75*
G02*
X161280000Y-77700000I-2620000J0D01*
G01*
X161280000Y-77700000D02*
G75*
G02*
X166520000Y-77700000I2620000J0D01*
G01*
%TO.C,C3*%
X113520000Y-89983000D02*
X113520000Y-89417000D01*
X113560000Y-90217000D02*
X113560000Y-89183000D01*
X113600000Y-90377000D02*
X113600000Y-89023000D01*
X113640000Y-90505000D02*
X113640000Y-88895000D01*
X113680000Y-90614000D02*
X113680000Y-88786000D01*
X113720000Y-90711000D02*
X113720000Y-88689000D01*
X113760000Y-90798000D02*
X113760000Y-88602000D01*
X113800000Y-90877000D02*
X113800000Y-88523000D01*
X113840000Y-90951000D02*
X113840000Y-88449000D01*
X113880000Y-91019000D02*
X113880000Y-88381000D01*
X113920000Y-91083000D02*
X113920000Y-88317000D01*
X113960000Y-91143000D02*
X113960000Y-88257000D01*
X114000000Y-91199000D02*
X114000000Y-88201000D01*
X114040000Y-91253000D02*
X114040000Y-88147000D01*
X114080000Y-91304000D02*
X114080000Y-88096000D01*
X114120000Y-88660000D02*
X114120000Y-88048000D01*
X114120000Y-91352000D02*
X114120000Y-90740000D01*
X114160000Y-88660000D02*
X114160000Y-88001000D01*
X114160000Y-91399000D02*
X114160000Y-90740000D01*
X114200000Y-88660000D02*
X114200000Y-87957000D01*
X114200000Y-91443000D02*
X114200000Y-90740000D01*
X114240000Y-88660000D02*
X114240000Y-87915000D01*
X114240000Y-91485000D02*
X114240000Y-90740000D01*
X114280000Y-88660000D02*
X114280000Y-87875000D01*
X114280000Y-91525000D02*
X114280000Y-90740000D01*
X114320000Y-88660000D02*
X114320000Y-87836000D01*
X114320000Y-91564000D02*
X114320000Y-90740000D01*
X114360000Y-88660000D02*
X114360000Y-87799000D01*
X114360000Y-91601000D02*
X114360000Y-90740000D01*
X114400000Y-88660000D02*
X114400000Y-87764000D01*
X114400000Y-91636000D02*
X114400000Y-90740000D01*
X114440000Y-88660000D02*
X114440000Y-87730000D01*
X114440000Y-91670000D02*
X114440000Y-90740000D01*
X114480000Y-88660000D02*
X114480000Y-87697000D01*
X114480000Y-91703000D02*
X114480000Y-90740000D01*
X114520000Y-88660000D02*
X114520000Y-87665000D01*
X114520000Y-91735000D02*
X114520000Y-90740000D01*
X114560000Y-88660000D02*
X114560000Y-87635000D01*
X114560000Y-91765000D02*
X114560000Y-90740000D01*
X114600000Y-88660000D02*
X114600000Y-87606000D01*
X114600000Y-91794000D02*
X114600000Y-90740000D01*
X114640000Y-88660000D02*
X114640000Y-87578000D01*
X114640000Y-91822000D02*
X114640000Y-90740000D01*
X114680000Y-88660000D02*
X114680000Y-87551000D01*
X114680000Y-91849000D02*
X114680000Y-90740000D01*
X114720000Y-88660000D02*
X114720000Y-87525000D01*
X114720000Y-91875000D02*
X114720000Y-90740000D01*
X114760000Y-88660000D02*
X114760000Y-87501000D01*
X114760000Y-91899000D02*
X114760000Y-90740000D01*
X114800000Y-88660000D02*
X114800000Y-87477000D01*
X114800000Y-91923000D02*
X114800000Y-90740000D01*
X114840000Y-88660000D02*
X114840000Y-87454000D01*
X114840000Y-91946000D02*
X114840000Y-90740000D01*
X114880000Y-88660000D02*
X114880000Y-87432000D01*
X114880000Y-91968000D02*
X114880000Y-90740000D01*
X114920000Y-88660000D02*
X114920000Y-87411000D01*
X114920000Y-91989000D02*
X114920000Y-90740000D01*
X114960000Y-88660000D02*
X114960000Y-87391000D01*
X114960000Y-92009000D02*
X114960000Y-90740000D01*
X115000000Y-88660000D02*
X115000000Y-87371000D01*
X115000000Y-92029000D02*
X115000000Y-90740000D01*
X115040000Y-88660000D02*
X115040000Y-87353000D01*
X115040000Y-92047000D02*
X115040000Y-90740000D01*
X115080000Y-88660000D02*
X115080000Y-87335000D01*
X115080000Y-92065000D02*
X115080000Y-90740000D01*
X115120000Y-88660000D02*
X115120000Y-87318000D01*
X115120000Y-92082000D02*
X115120000Y-90740000D01*
X115160000Y-88660000D02*
X115160000Y-87302000D01*
X115160000Y-92098000D02*
X115160000Y-90740000D01*
X115200000Y-88660000D02*
X115200000Y-87287000D01*
X115200000Y-92113000D02*
X115200000Y-90740000D01*
X115240000Y-88660000D02*
X115240000Y-87272000D01*
X115240000Y-92128000D02*
X115240000Y-90740000D01*
X115280000Y-88660000D02*
X115280000Y-87258000D01*
X115280000Y-92142000D02*
X115280000Y-90740000D01*
X115320000Y-88660000D02*
X115320000Y-87245000D01*
X115320000Y-92155000D02*
X115320000Y-90740000D01*
X115360000Y-88660000D02*
X115360000Y-87233000D01*
X115360000Y-92167000D02*
X115360000Y-90740000D01*
X115400000Y-88660000D02*
X115400000Y-87221000D01*
X115400000Y-92179000D02*
X115400000Y-90740000D01*
X115440000Y-88660000D02*
X115440000Y-87210000D01*
X115440000Y-92190000D02*
X115440000Y-90740000D01*
X115480000Y-88660000D02*
X115480000Y-87199000D01*
X115480000Y-92201000D02*
X115480000Y-90740000D01*
X115520000Y-88660000D02*
X115520000Y-87190000D01*
X115520000Y-92210000D02*
X115520000Y-90740000D01*
X115560000Y-88660000D02*
X115560000Y-87181000D01*
X115560000Y-92219000D02*
X115560000Y-90740000D01*
X115600000Y-88660000D02*
X115600000Y-87172000D01*
X115600000Y-92228000D02*
X115600000Y-90740000D01*
X115640000Y-88660000D02*
X115640000Y-87164000D01*
X115640000Y-92236000D02*
X115640000Y-90740000D01*
X115680000Y-88660000D02*
X115680000Y-87157000D01*
X115680000Y-92243000D02*
X115680000Y-90740000D01*
X115720000Y-88660000D02*
X115720000Y-87151000D01*
X115720000Y-92249000D02*
X115720000Y-90740000D01*
X115760000Y-88660000D02*
X115760000Y-87145000D01*
X115760000Y-92255000D02*
X115760000Y-90740000D01*
X115800000Y-88660000D02*
X115800000Y-87140000D01*
X115800000Y-92260000D02*
X115800000Y-90740000D01*
X115840000Y-88660000D02*
X115840000Y-87135000D01*
X115840000Y-92265000D02*
X115840000Y-90740000D01*
X115880000Y-88660000D02*
X115880000Y-87131000D01*
X115880000Y-92269000D02*
X115880000Y-90740000D01*
X115920000Y-88660000D02*
X115920000Y-87128000D01*
X115920000Y-92272000D02*
X115920000Y-90740000D01*
X115960000Y-88660000D02*
X115960000Y-87125000D01*
X115960000Y-92275000D02*
X115960000Y-90740000D01*
X116000000Y-88660000D02*
X116000000Y-87123000D01*
X116000000Y-92277000D02*
X116000000Y-90740000D01*
X116040000Y-88660000D02*
X116040000Y-87121000D01*
X116040000Y-92279000D02*
X116040000Y-90740000D01*
X116080000Y-88660000D02*
X116080000Y-87120000D01*
X116080000Y-92280000D02*
X116080000Y-90740000D01*
X116120000Y-88660000D02*
X116120000Y-87120000D01*
X116120000Y-92280000D02*
X116120000Y-90740000D01*
X118674775Y-91425000D02*
X118674775Y-90925000D01*
X118924775Y-91175000D02*
X118424775Y-91175000D01*
X118740000Y-89700000D02*
G75*
G02*
X113500000Y-89700000I-2620000J0D01*
G01*
X113500000Y-89700000D02*
G75*
G02*
X118740000Y-89700000I2620000J0D01*
G01*
%TO.C,R3*%
X107250000Y-86430000D02*
X107250000Y-92970000D01*
X107250000Y-92970000D02*
X107580000Y-92970000D01*
X107580000Y-86430000D02*
X107250000Y-86430000D01*
X109660000Y-86430000D02*
X109990000Y-86430000D01*
X109990000Y-86430000D02*
X109990000Y-92970000D01*
X109990000Y-92970000D02*
X109660000Y-92970000D01*
D12*
%TO.C,J6*%
X150400000Y-98200000D02*
X162400000Y-98200000D01*
X150400000Y-109200000D02*
X150400000Y-98200000D01*
X162400000Y-98200000D02*
X162400000Y-109200000D01*
X162400000Y-109200000D02*
X150400000Y-109200000D01*
X151900000Y-105700000D02*
G75*
G02*
X150900000Y-105700000I-500000J0D01*
G01*
X150900000Y-105700000D02*
G75*
G02*
X151900000Y-105700000I500000J0D01*
G01*
X151900000Y-108200000D02*
G75*
G02*
X150900000Y-108200000I-500000J0D01*
G01*
X150900000Y-108200000D02*
G75*
G02*
X151900000Y-108200000I500000J0D01*
G01*
X156900000Y-100700000D02*
G75*
G02*
X155900000Y-100700000I-500000J0D01*
G01*
X155900000Y-100700000D02*
G75*
G02*
X156900000Y-100700000I500000J0D01*
G01*
X161900000Y-105700000D02*
G75*
G02*
X160900000Y-105700000I-500000J0D01*
G01*
X160900000Y-105700000D02*
G75*
G02*
X161900000Y-105700000I500000J0D01*
G01*
X161900000Y-108200000D02*
G75*
G02*
X160900000Y-108200000I-500000J0D01*
G01*
X160900000Y-108200000D02*
G75*
G02*
X161900000Y-108200000I500000J0D01*
G01*
D11*
%TO.C,R8*%
X126990000Y-94830000D02*
X126990000Y-95160000D01*
X126990000Y-97570000D02*
X126990000Y-97240000D01*
X133530000Y-94830000D02*
X126990000Y-94830000D01*
X133530000Y-95160000D02*
X133530000Y-94830000D01*
X133530000Y-97240000D02*
X133530000Y-97570000D01*
X133530000Y-97570000D02*
X126990000Y-97570000D01*
%TO.C,U1*%
X107370000Y-76550000D02*
X107370000Y-81850000D01*
X107370000Y-81850000D02*
X127810000Y-81850000D01*
X127810000Y-76550000D02*
X107370000Y-76550000D01*
X127810000Y-78200000D02*
X127810000Y-76550000D01*
X127810000Y-81850000D02*
X127810000Y-80200000D01*
X127870000Y-74060000D02*
X107310000Y-74060000D01*
X107310000Y-84340000D01*
X127870000Y-84340000D01*
X127870000Y-74060000D01*
X127810000Y-80200000D02*
G75*
G02*
X127810000Y-78200000I0J1000000D01*
G01*
%TO.C,C12*%
X128640000Y-81660000D02*
X133880000Y-81660000D01*
X128640000Y-84400000D02*
X128640000Y-81660000D01*
X133880000Y-81660000D02*
X133880000Y-84400000D01*
X133880000Y-84400000D02*
X128640000Y-84400000D01*
%TO.C,J11*%
X140340000Y-74260000D02*
X140340000Y-80230000D01*
X140340000Y-80230000D02*
X160460000Y-80230000D01*
X140350000Y-77970000D02*
X141100000Y-77970000D01*
X140350000Y-79470000D02*
X140350000Y-80220000D01*
X140350000Y-80220000D02*
X142150000Y-80220000D01*
X141100000Y-75020000D02*
X150400000Y-75020000D01*
X141100000Y-77970000D02*
X141100000Y-75020000D01*
X142150000Y-79470000D02*
X140350000Y-79470000D01*
X142150000Y-80220000D02*
X142150000Y-79470000D01*
X143650000Y-79470000D02*
X143650000Y-80220000D01*
X143650000Y-80220000D02*
X157150000Y-80220000D01*
X157150000Y-79470000D02*
X143650000Y-79470000D01*
X157150000Y-80220000D02*
X157150000Y-79470000D01*
X158650000Y-79470000D02*
X158650000Y-80220000D01*
X158650000Y-80220000D02*
X160450000Y-80220000D01*
X159500000Y-80520000D02*
X160750000Y-80520000D01*
X159700000Y-75020000D02*
X150400000Y-75020000D01*
X159700000Y-77970000D02*
X159700000Y-75020000D01*
X160450000Y-77970000D02*
X159700000Y-77970000D01*
X160450000Y-79470000D02*
X158650000Y-79470000D01*
X160450000Y-80220000D02*
X160450000Y-79470000D01*
X160460000Y-74260000D02*
X140340000Y-74260000D01*
X160460000Y-80230000D02*
X160460000Y-74260000D01*
X160750000Y-80520000D02*
X160750000Y-79270000D01*
D12*
%TO.C,J3*%
X112900000Y-98200000D02*
X124900000Y-98200000D01*
X112900000Y-109200000D02*
X112900000Y-98200000D01*
X124900000Y-98200000D02*
X124900000Y-109200000D01*
X124900000Y-109200000D02*
X112900000Y-109200000D01*
X114400000Y-105700000D02*
G75*
G02*
X113400000Y-105700000I-500000J0D01*
G01*
X113400000Y-105700000D02*
G75*
G02*
X114400000Y-105700000I500000J0D01*
G01*
X114400000Y-108200000D02*
G75*
G02*
X113400000Y-108200000I-500000J0D01*
G01*
X113400000Y-108200000D02*
G75*
G02*
X114400000Y-108200000I500000J0D01*
G01*
X119400000Y-100700000D02*
G75*
G02*
X118400000Y-100700000I-500000J0D01*
G01*
X118400000Y-100700000D02*
G75*
G02*
X119400000Y-100700000I500000J0D01*
G01*
X124400000Y-105700000D02*
G75*
G02*
X123400000Y-105700000I-500000J0D01*
G01*
X123400000Y-105700000D02*
G75*
G02*
X124400000Y-105700000I500000J0D01*
G01*
X124400000Y-108200000D02*
G75*
G02*
X123400000Y-108200000I-500000J0D01*
G01*
X123400000Y-108200000D02*
G75*
G02*
X124400000Y-108200000I500000J0D01*
G01*
%TO.C,J4*%
X125400000Y-98200000D02*
X137400000Y-98200000D01*
X125400000Y-109200000D02*
X125400000Y-98200000D01*
X137400000Y-98200000D02*
X137400000Y-109200000D01*
X137400000Y-109200000D02*
X125400000Y-109200000D01*
X126900000Y-105700000D02*
G75*
G02*
X125900000Y-105700000I-500000J0D01*
G01*
X125900000Y-105700000D02*
G75*
G02*
X126900000Y-105700000I500000J0D01*
G01*
X126900000Y-108200000D02*
G75*
G02*
X125900000Y-108200000I-500000J0D01*
G01*
X125900000Y-108200000D02*
G75*
G02*
X126900000Y-108200000I500000J0D01*
G01*
X131900000Y-100700000D02*
G75*
G02*
X130900000Y-100700000I-500000J0D01*
G01*
X130900000Y-100700000D02*
G75*
G02*
X131900000Y-100700000I500000J0D01*
G01*
X136900000Y-105700000D02*
G75*
G02*
X135900000Y-105700000I-500000J0D01*
G01*
X135900000Y-105700000D02*
G75*
G02*
X136900000Y-105700000I500000J0D01*
G01*
X136900000Y-108200000D02*
G75*
G02*
X135900000Y-108200000I-500000J0D01*
G01*
X135900000Y-108200000D02*
G75*
G02*
X136900000Y-108200000I500000J0D01*
G01*
D11*
%TO.C,R7*%
X132250000Y-86430000D02*
X132250000Y-92970000D01*
X132250000Y-92970000D02*
X132580000Y-92970000D01*
X132580000Y-86430000D02*
X132250000Y-86430000D01*
X134660000Y-86430000D02*
X134990000Y-86430000D01*
X134990000Y-86430000D02*
X134990000Y-92970000D01*
X134990000Y-92970000D02*
X134660000Y-92970000D01*
%TO.C,R17*%
X194750000Y-86430000D02*
X194750000Y-92970000D01*
X194750000Y-92970000D02*
X195080000Y-92970000D01*
X195080000Y-86430000D02*
X194750000Y-86430000D01*
X197160000Y-86430000D02*
X197490000Y-86430000D01*
X197490000Y-86430000D02*
X197490000Y-92970000D01*
X197490000Y-92970000D02*
X197160000Y-92970000D01*
%TO.C,C9*%
X188520000Y-89983000D02*
X188520000Y-89417000D01*
X188560000Y-90217000D02*
X188560000Y-89183000D01*
X188600000Y-90377000D02*
X188600000Y-89023000D01*
X188640000Y-90505000D02*
X188640000Y-88895000D01*
X188680000Y-90614000D02*
X188680000Y-88786000D01*
X188720000Y-90711000D02*
X188720000Y-88689000D01*
X188760000Y-90798000D02*
X188760000Y-88602000D01*
X188800000Y-90877000D02*
X188800000Y-88523000D01*
X188840000Y-90951000D02*
X188840000Y-88449000D01*
X188880000Y-91019000D02*
X188880000Y-88381000D01*
X188920000Y-91083000D02*
X188920000Y-88317000D01*
X188960000Y-91143000D02*
X188960000Y-88257000D01*
X189000000Y-91199000D02*
X189000000Y-88201000D01*
X189040000Y-91253000D02*
X189040000Y-88147000D01*
X189080000Y-91304000D02*
X189080000Y-88096000D01*
X189120000Y-88660000D02*
X189120000Y-88048000D01*
X189120000Y-91352000D02*
X189120000Y-90740000D01*
X189160000Y-88660000D02*
X189160000Y-88001000D01*
X189160000Y-91399000D02*
X189160000Y-90740000D01*
X189200000Y-88660000D02*
X189200000Y-87957000D01*
X189200000Y-91443000D02*
X189200000Y-90740000D01*
X189240000Y-88660000D02*
X189240000Y-87915000D01*
X189240000Y-91485000D02*
X189240000Y-90740000D01*
X189280000Y-88660000D02*
X189280000Y-87875000D01*
X189280000Y-91525000D02*
X189280000Y-90740000D01*
X189320000Y-88660000D02*
X189320000Y-87836000D01*
X189320000Y-91564000D02*
X189320000Y-90740000D01*
X189360000Y-88660000D02*
X189360000Y-87799000D01*
X189360000Y-91601000D02*
X189360000Y-90740000D01*
X189400000Y-88660000D02*
X189400000Y-87764000D01*
X189400000Y-91636000D02*
X189400000Y-90740000D01*
X189440000Y-88660000D02*
X189440000Y-87730000D01*
X189440000Y-91670000D02*
X189440000Y-90740000D01*
X189480000Y-88660000D02*
X189480000Y-87697000D01*
X189480000Y-91703000D02*
X189480000Y-90740000D01*
X189520000Y-88660000D02*
X189520000Y-87665000D01*
X189520000Y-91735000D02*
X189520000Y-90740000D01*
X189560000Y-88660000D02*
X189560000Y-87635000D01*
X189560000Y-91765000D02*
X189560000Y-90740000D01*
X189600000Y-88660000D02*
X189600000Y-87606000D01*
X189600000Y-91794000D02*
X189600000Y-90740000D01*
X189640000Y-88660000D02*
X189640000Y-87578000D01*
X189640000Y-91822000D02*
X189640000Y-90740000D01*
X189680000Y-88660000D02*
X189680000Y-87551000D01*
X189680000Y-91849000D02*
X189680000Y-90740000D01*
X189720000Y-88660000D02*
X189720000Y-87525000D01*
X189720000Y-91875000D02*
X189720000Y-90740000D01*
X189760000Y-88660000D02*
X189760000Y-87501000D01*
X189760000Y-91899000D02*
X189760000Y-90740000D01*
X189800000Y-88660000D02*
X189800000Y-87477000D01*
X189800000Y-91923000D02*
X189800000Y-90740000D01*
X189840000Y-88660000D02*
X189840000Y-87454000D01*
X189840000Y-91946000D02*
X189840000Y-90740000D01*
X189880000Y-88660000D02*
X189880000Y-87432000D01*
X189880000Y-91968000D02*
X189880000Y-90740000D01*
X189920000Y-88660000D02*
X189920000Y-87411000D01*
X189920000Y-91989000D02*
X189920000Y-90740000D01*
X189960000Y-88660000D02*
X189960000Y-87391000D01*
X189960000Y-92009000D02*
X189960000Y-90740000D01*
X190000000Y-88660000D02*
X190000000Y-87371000D01*
X190000000Y-92029000D02*
X190000000Y-90740000D01*
X190040000Y-88660000D02*
X190040000Y-87353000D01*
X190040000Y-92047000D02*
X190040000Y-90740000D01*
X190080000Y-88660000D02*
X190080000Y-87335000D01*
X190080000Y-92065000D02*
X190080000Y-90740000D01*
X190120000Y-88660000D02*
X190120000Y-87318000D01*
X190120000Y-92082000D02*
X190120000Y-90740000D01*
X190160000Y-88660000D02*
X190160000Y-87302000D01*
X190160000Y-92098000D02*
X190160000Y-90740000D01*
X190200000Y-88660000D02*
X190200000Y-87287000D01*
X190200000Y-92113000D02*
X190200000Y-90740000D01*
X190240000Y-88660000D02*
X190240000Y-87272000D01*
X190240000Y-92128000D02*
X190240000Y-90740000D01*
X190280000Y-88660000D02*
X190280000Y-87258000D01*
X190280000Y-92142000D02*
X190280000Y-90740000D01*
X190320000Y-88660000D02*
X190320000Y-87245000D01*
X190320000Y-92155000D02*
X190320000Y-90740000D01*
X190360000Y-88660000D02*
X190360000Y-87233000D01*
X190360000Y-92167000D02*
X190360000Y-90740000D01*
X190400000Y-88660000D02*
X190400000Y-87221000D01*
X190400000Y-92179000D02*
X190400000Y-90740000D01*
X190440000Y-88660000D02*
X190440000Y-87210000D01*
X190440000Y-92190000D02*
X190440000Y-90740000D01*
X190480000Y-88660000D02*
X190480000Y-87199000D01*
X190480000Y-92201000D02*
X190480000Y-90740000D01*
X190520000Y-88660000D02*
X190520000Y-87190000D01*
X190520000Y-92210000D02*
X190520000Y-90740000D01*
X190560000Y-88660000D02*
X190560000Y-87181000D01*
X190560000Y-92219000D02*
X190560000Y-90740000D01*
X190600000Y-88660000D02*
X190600000Y-87172000D01*
X190600000Y-92228000D02*
X190600000Y-90740000D01*
X190640000Y-88660000D02*
X190640000Y-87164000D01*
X190640000Y-92236000D02*
X190640000Y-90740000D01*
X190680000Y-88660000D02*
X190680000Y-87157000D01*
X190680000Y-92243000D02*
X190680000Y-90740000D01*
X190720000Y-88660000D02*
X190720000Y-87151000D01*
X190720000Y-92249000D02*
X190720000Y-90740000D01*
X190760000Y-88660000D02*
X190760000Y-87145000D01*
X190760000Y-92255000D02*
X190760000Y-90740000D01*
X190800000Y-88660000D02*
X190800000Y-87140000D01*
X190800000Y-92260000D02*
X190800000Y-90740000D01*
X190840000Y-88660000D02*
X190840000Y-87135000D01*
X190840000Y-92265000D02*
X190840000Y-90740000D01*
X190880000Y-88660000D02*
X190880000Y-87131000D01*
X190880000Y-92269000D02*
X190880000Y-90740000D01*
X190920000Y-88660000D02*
X190920000Y-87128000D01*
X190920000Y-92272000D02*
X190920000Y-90740000D01*
X190960000Y-88660000D02*
X190960000Y-87125000D01*
X190960000Y-92275000D02*
X190960000Y-90740000D01*
X191000000Y-88660000D02*
X191000000Y-87123000D01*
X191000000Y-92277000D02*
X191000000Y-90740000D01*
X191040000Y-88660000D02*
X191040000Y-87121000D01*
X191040000Y-92279000D02*
X191040000Y-90740000D01*
X191080000Y-88660000D02*
X191080000Y-87120000D01*
X191080000Y-92280000D02*
X191080000Y-90740000D01*
X191120000Y-88660000D02*
X191120000Y-87120000D01*
X191120000Y-92280000D02*
X191120000Y-90740000D01*
X193674775Y-91425000D02*
X193674775Y-90925000D01*
X193924775Y-91175000D02*
X193424775Y-91175000D01*
X193740000Y-89700000D02*
G75*
G02*
X188500000Y-89700000I-2620000J0D01*
G01*
X188500000Y-89700000D02*
G75*
G02*
X193740000Y-89700000I2620000J0D01*
G01*
%TO.C,R19*%
X207250000Y-86430000D02*
X207250000Y-92970000D01*
X207250000Y-92970000D02*
X207580000Y-92970000D01*
X207580000Y-86430000D02*
X207250000Y-86430000D01*
X209660000Y-86430000D02*
X209990000Y-86430000D01*
X209990000Y-86430000D02*
X209990000Y-92970000D01*
X209990000Y-92970000D02*
X209660000Y-92970000D01*
D12*
%TO.C,J7*%
X162900000Y-98200000D02*
X174900000Y-98200000D01*
X162900000Y-109200000D02*
X162900000Y-98200000D01*
X174900000Y-98200000D02*
X174900000Y-109200000D01*
X174900000Y-109200000D02*
X162900000Y-109200000D01*
X164400000Y-105700000D02*
G75*
G02*
X163400000Y-105700000I-500000J0D01*
G01*
X163400000Y-105700000D02*
G75*
G02*
X164400000Y-105700000I500000J0D01*
G01*
X164400000Y-108200000D02*
G75*
G02*
X163400000Y-108200000I-500000J0D01*
G01*
X163400000Y-108200000D02*
G75*
G02*
X164400000Y-108200000I500000J0D01*
G01*
X169400000Y-100700000D02*
G75*
G02*
X168400000Y-100700000I-500000J0D01*
G01*
X168400000Y-100700000D02*
G75*
G02*
X169400000Y-100700000I500000J0D01*
G01*
X174400000Y-105700000D02*
G75*
G02*
X173400000Y-105700000I-500000J0D01*
G01*
X173400000Y-105700000D02*
G75*
G02*
X174400000Y-105700000I500000J0D01*
G01*
X174400000Y-108200000D02*
G75*
G02*
X173400000Y-108200000I-500000J0D01*
G01*
X173400000Y-108200000D02*
G75*
G02*
X174400000Y-108200000I500000J0D01*
G01*
%TO.C,J10*%
X200400000Y-98200000D02*
X212400000Y-98200000D01*
X200400000Y-109200000D02*
X200400000Y-98200000D01*
X212400000Y-98200000D02*
X212400000Y-109200000D01*
X212400000Y-109200000D02*
X200400000Y-109200000D01*
X201900000Y-105700000D02*
G75*
G02*
X200900000Y-105700000I-500000J0D01*
G01*
X200900000Y-105700000D02*
G75*
G02*
X201900000Y-105700000I500000J0D01*
G01*
X201900000Y-108200000D02*
G75*
G02*
X200900000Y-108200000I-500000J0D01*
G01*
X200900000Y-108200000D02*
G75*
G02*
X201900000Y-108200000I500000J0D01*
G01*
X206900000Y-100700000D02*
G75*
G02*
X205900000Y-100700000I-500000J0D01*
G01*
X205900000Y-100700000D02*
G75*
G02*
X206900000Y-100700000I500000J0D01*
G01*
X211900000Y-105700000D02*
G75*
G02*
X210900000Y-105700000I-500000J0D01*
G01*
X210900000Y-105700000D02*
G75*
G02*
X211900000Y-105700000I500000J0D01*
G01*
X211900000Y-108200000D02*
G75*
G02*
X210900000Y-108200000I-500000J0D01*
G01*
X210900000Y-108200000D02*
G75*
G02*
X211900000Y-108200000I500000J0D01*
G01*
%TO.C,J1*%
X87900000Y-98200000D02*
X99900000Y-98200000D01*
X87900000Y-109200000D02*
X87900000Y-98200000D01*
X99900000Y-98200000D02*
X99900000Y-109200000D01*
X99900000Y-109200000D02*
X87900000Y-109200000D01*
X89400000Y-105700000D02*
G75*
G02*
X88400000Y-105700000I-500000J0D01*
G01*
X88400000Y-105700000D02*
G75*
G02*
X89400000Y-105700000I500000J0D01*
G01*
X89400000Y-108200000D02*
G75*
G02*
X88400000Y-108200000I-500000J0D01*
G01*
X88400000Y-108200000D02*
G75*
G02*
X89400000Y-108200000I500000J0D01*
G01*
X94400000Y-100700000D02*
G75*
G02*
X93400000Y-100700000I-500000J0D01*
G01*
X93400000Y-100700000D02*
G75*
G02*
X94400000Y-100700000I500000J0D01*
G01*
X99400000Y-105700000D02*
G75*
G02*
X98400000Y-105700000I-500000J0D01*
G01*
X98400000Y-105700000D02*
G75*
G02*
X99400000Y-105700000I500000J0D01*
G01*
X99400000Y-108200000D02*
G75*
G02*
X98400000Y-108200000I-500000J0D01*
G01*
X98400000Y-108200000D02*
G75*
G02*
X99400000Y-108200000I500000J0D01*
G01*
D11*
%TO.C,C13*%
X191210000Y-81660000D02*
X196450000Y-81660000D01*
X191210000Y-84400000D02*
X191210000Y-81660000D01*
X196450000Y-81660000D02*
X196450000Y-84400000D01*
X196450000Y-84400000D02*
X191210000Y-84400000D01*
%TO.C,C2*%
X101020000Y-89983000D02*
X101020000Y-89417000D01*
X101060000Y-90217000D02*
X101060000Y-89183000D01*
X101100000Y-90377000D02*
X101100000Y-89023000D01*
X101140000Y-90505000D02*
X101140000Y-88895000D01*
X101180000Y-90614000D02*
X101180000Y-88786000D01*
X101220000Y-90711000D02*
X101220000Y-88689000D01*
X101260000Y-90798000D02*
X101260000Y-88602000D01*
X101300000Y-90877000D02*
X101300000Y-88523000D01*
X101340000Y-90951000D02*
X101340000Y-88449000D01*
X101380000Y-91019000D02*
X101380000Y-88381000D01*
X101420000Y-91083000D02*
X101420000Y-88317000D01*
X101460000Y-91143000D02*
X101460000Y-88257000D01*
X101500000Y-91199000D02*
X101500000Y-88201000D01*
X101540000Y-91253000D02*
X101540000Y-88147000D01*
X101580000Y-91304000D02*
X101580000Y-88096000D01*
X101620000Y-88660000D02*
X101620000Y-88048000D01*
X101620000Y-91352000D02*
X101620000Y-90740000D01*
X101660000Y-88660000D02*
X101660000Y-88001000D01*
X101660000Y-91399000D02*
X101660000Y-90740000D01*
X101700000Y-88660000D02*
X101700000Y-87957000D01*
X101700000Y-91443000D02*
X101700000Y-90740000D01*
X101740000Y-88660000D02*
X101740000Y-87915000D01*
X101740000Y-91485000D02*
X101740000Y-90740000D01*
X101780000Y-88660000D02*
X101780000Y-87875000D01*
X101780000Y-91525000D02*
X101780000Y-90740000D01*
X101820000Y-88660000D02*
X101820000Y-87836000D01*
X101820000Y-91564000D02*
X101820000Y-90740000D01*
X101860000Y-88660000D02*
X101860000Y-87799000D01*
X101860000Y-91601000D02*
X101860000Y-90740000D01*
X101900000Y-88660000D02*
X101900000Y-87764000D01*
X101900000Y-91636000D02*
X101900000Y-90740000D01*
X101940000Y-88660000D02*
X101940000Y-87730000D01*
X101940000Y-91670000D02*
X101940000Y-90740000D01*
X101980000Y-88660000D02*
X101980000Y-87697000D01*
X101980000Y-91703000D02*
X101980000Y-90740000D01*
X102020000Y-88660000D02*
X102020000Y-87665000D01*
X102020000Y-91735000D02*
X102020000Y-90740000D01*
X102060000Y-88660000D02*
X102060000Y-87635000D01*
X102060000Y-91765000D02*
X102060000Y-90740000D01*
X102100000Y-88660000D02*
X102100000Y-87606000D01*
X102100000Y-91794000D02*
X102100000Y-90740000D01*
X102140000Y-88660000D02*
X102140000Y-87578000D01*
X102140000Y-91822000D02*
X102140000Y-90740000D01*
X102180000Y-88660000D02*
X102180000Y-87551000D01*
X102180000Y-91849000D02*
X102180000Y-90740000D01*
X102220000Y-88660000D02*
X102220000Y-87525000D01*
X102220000Y-91875000D02*
X102220000Y-90740000D01*
X102260000Y-88660000D02*
X102260000Y-87501000D01*
X102260000Y-91899000D02*
X102260000Y-90740000D01*
X102300000Y-88660000D02*
X102300000Y-87477000D01*
X102300000Y-91923000D02*
X102300000Y-90740000D01*
X102340000Y-88660000D02*
X102340000Y-87454000D01*
X102340000Y-91946000D02*
X102340000Y-90740000D01*
X102380000Y-88660000D02*
X102380000Y-87432000D01*
X102380000Y-91968000D02*
X102380000Y-90740000D01*
X102420000Y-88660000D02*
X102420000Y-87411000D01*
X102420000Y-91989000D02*
X102420000Y-90740000D01*
X102460000Y-88660000D02*
X102460000Y-87391000D01*
X102460000Y-92009000D02*
X102460000Y-90740000D01*
X102500000Y-88660000D02*
X102500000Y-87371000D01*
X102500000Y-92029000D02*
X102500000Y-90740000D01*
X102540000Y-88660000D02*
X102540000Y-87353000D01*
X102540000Y-92047000D02*
X102540000Y-90740000D01*
X102580000Y-88660000D02*
X102580000Y-87335000D01*
X102580000Y-92065000D02*
X102580000Y-90740000D01*
X102620000Y-88660000D02*
X102620000Y-87318000D01*
X102620000Y-92082000D02*
X102620000Y-90740000D01*
X102660000Y-88660000D02*
X102660000Y-87302000D01*
X102660000Y-92098000D02*
X102660000Y-90740000D01*
X102700000Y-88660000D02*
X102700000Y-87287000D01*
X102700000Y-92113000D02*
X102700000Y-90740000D01*
X102740000Y-88660000D02*
X102740000Y-87272000D01*
X102740000Y-92128000D02*
X102740000Y-90740000D01*
X102780000Y-88660000D02*
X102780000Y-87258000D01*
X102780000Y-92142000D02*
X102780000Y-90740000D01*
X102820000Y-88660000D02*
X102820000Y-87245000D01*
X102820000Y-92155000D02*
X102820000Y-90740000D01*
X102860000Y-88660000D02*
X102860000Y-87233000D01*
X102860000Y-92167000D02*
X102860000Y-90740000D01*
X102900000Y-88660000D02*
X102900000Y-87221000D01*
X102900000Y-92179000D02*
X102900000Y-90740000D01*
X102940000Y-88660000D02*
X102940000Y-87210000D01*
X102940000Y-92190000D02*
X102940000Y-90740000D01*
X102980000Y-88660000D02*
X102980000Y-87199000D01*
X102980000Y-92201000D02*
X102980000Y-90740000D01*
X103020000Y-88660000D02*
X103020000Y-87190000D01*
X103020000Y-92210000D02*
X103020000Y-90740000D01*
X103060000Y-88660000D02*
X103060000Y-87181000D01*
X103060000Y-92219000D02*
X103060000Y-90740000D01*
X103100000Y-88660000D02*
X103100000Y-87172000D01*
X103100000Y-92228000D02*
X103100000Y-90740000D01*
X103140000Y-88660000D02*
X103140000Y-87164000D01*
X103140000Y-92236000D02*
X103140000Y-90740000D01*
X103180000Y-88660000D02*
X103180000Y-87157000D01*
X103180000Y-92243000D02*
X103180000Y-90740000D01*
X103220000Y-88660000D02*
X103220000Y-87151000D01*
X103220000Y-92249000D02*
X103220000Y-90740000D01*
X103260000Y-88660000D02*
X103260000Y-87145000D01*
X103260000Y-92255000D02*
X103260000Y-90740000D01*
X103300000Y-88660000D02*
X103300000Y-87140000D01*
X103300000Y-92260000D02*
X103300000Y-90740000D01*
X103340000Y-88660000D02*
X103340000Y-87135000D01*
X103340000Y-92265000D02*
X103340000Y-90740000D01*
X103380000Y-88660000D02*
X103380000Y-87131000D01*
X103380000Y-92269000D02*
X103380000Y-90740000D01*
X103420000Y-88660000D02*
X103420000Y-87128000D01*
X103420000Y-92272000D02*
X103420000Y-90740000D01*
X103460000Y-88660000D02*
X103460000Y-87125000D01*
X103460000Y-92275000D02*
X103460000Y-90740000D01*
X103500000Y-88660000D02*
X103500000Y-87123000D01*
X103500000Y-92277000D02*
X103500000Y-90740000D01*
X103540000Y-88660000D02*
X103540000Y-87121000D01*
X103540000Y-92279000D02*
X103540000Y-90740000D01*
X103580000Y-88660000D02*
X103580000Y-87120000D01*
X103580000Y-92280000D02*
X103580000Y-90740000D01*
X103620000Y-88660000D02*
X103620000Y-87120000D01*
X103620000Y-92280000D02*
X103620000Y-90740000D01*
X106174775Y-91425000D02*
X106174775Y-90925000D01*
X106424775Y-91175000D02*
X105924775Y-91175000D01*
X106240000Y-89700000D02*
G75*
G02*
X101000000Y-89700000I-2620000J0D01*
G01*
X101000000Y-89700000D02*
G75*
G02*
X106240000Y-89700000I2620000J0D01*
G01*
%TO.C,R5*%
X119750000Y-86430000D02*
X119750000Y-92970000D01*
X119750000Y-92970000D02*
X120080000Y-92970000D01*
X120080000Y-86430000D02*
X119750000Y-86430000D01*
X122160000Y-86430000D02*
X122490000Y-86430000D01*
X122490000Y-86430000D02*
X122490000Y-92970000D01*
X122490000Y-92970000D02*
X122160000Y-92970000D01*
%TO.C,R13*%
X169750000Y-86430000D02*
X169750000Y-92970000D01*
X169750000Y-92970000D02*
X170080000Y-92970000D01*
X170080000Y-86430000D02*
X169750000Y-86430000D01*
X172160000Y-86430000D02*
X172490000Y-86430000D01*
X172490000Y-86430000D02*
X172490000Y-92970000D01*
X172490000Y-92970000D02*
X172160000Y-92970000D01*
%TO.C,C8*%
X175975113Y-89983000D02*
X175975113Y-89417000D01*
X176015113Y-90217000D02*
X176015113Y-89183000D01*
X176055113Y-90377000D02*
X176055113Y-89023000D01*
X176095113Y-90505000D02*
X176095113Y-88895000D01*
X176135113Y-90614000D02*
X176135113Y-88786000D01*
X176175113Y-90711000D02*
X176175113Y-88689000D01*
X176215113Y-90798000D02*
X176215113Y-88602000D01*
X176255113Y-90877000D02*
X176255113Y-88523000D01*
X176295113Y-90951000D02*
X176295113Y-88449000D01*
X176335113Y-91019000D02*
X176335113Y-88381000D01*
X176375113Y-91083000D02*
X176375113Y-88317000D01*
X176415113Y-91143000D02*
X176415113Y-88257000D01*
X176455113Y-91199000D02*
X176455113Y-88201000D01*
X176495113Y-91253000D02*
X176495113Y-88147000D01*
X176535113Y-91304000D02*
X176535113Y-88096000D01*
X176575113Y-88660000D02*
X176575113Y-88048000D01*
X176575113Y-91352000D02*
X176575113Y-90740000D01*
X176615113Y-88660000D02*
X176615113Y-88001000D01*
X176615113Y-91399000D02*
X176615113Y-90740000D01*
X176655113Y-88660000D02*
X176655113Y-87957000D01*
X176655113Y-91443000D02*
X176655113Y-90740000D01*
X176695113Y-88660000D02*
X176695113Y-87915000D01*
X176695113Y-91485000D02*
X176695113Y-90740000D01*
X176735113Y-88660000D02*
X176735113Y-87875000D01*
X176735113Y-91525000D02*
X176735113Y-90740000D01*
X176775113Y-88660000D02*
X176775113Y-87836000D01*
X176775113Y-91564000D02*
X176775113Y-90740000D01*
X176815113Y-88660000D02*
X176815113Y-87799000D01*
X176815113Y-91601000D02*
X176815113Y-90740000D01*
X176855113Y-88660000D02*
X176855113Y-87764000D01*
X176855113Y-91636000D02*
X176855113Y-90740000D01*
X176895113Y-88660000D02*
X176895113Y-87730000D01*
X176895113Y-91670000D02*
X176895113Y-90740000D01*
X176935113Y-88660000D02*
X176935113Y-87697000D01*
X176935113Y-91703000D02*
X176935113Y-90740000D01*
X176975113Y-88660000D02*
X176975113Y-87665000D01*
X176975113Y-91735000D02*
X176975113Y-90740000D01*
X177015113Y-88660000D02*
X177015113Y-87635000D01*
X177015113Y-91765000D02*
X177015113Y-90740000D01*
X177055113Y-88660000D02*
X177055113Y-87606000D01*
X177055113Y-91794000D02*
X177055113Y-90740000D01*
X177095113Y-88660000D02*
X177095113Y-87578000D01*
X177095113Y-91822000D02*
X177095113Y-90740000D01*
X177135113Y-88660000D02*
X177135113Y-87551000D01*
X177135113Y-91849000D02*
X177135113Y-90740000D01*
X177175113Y-88660000D02*
X177175113Y-87525000D01*
X177175113Y-91875000D02*
X177175113Y-90740000D01*
X177215113Y-88660000D02*
X177215113Y-87501000D01*
X177215113Y-91899000D02*
X177215113Y-90740000D01*
X177255113Y-88660000D02*
X177255113Y-87477000D01*
X177255113Y-91923000D02*
X177255113Y-90740000D01*
X177295113Y-88660000D02*
X177295113Y-87454000D01*
X177295113Y-91946000D02*
X177295113Y-90740000D01*
X177335113Y-88660000D02*
X177335113Y-87432000D01*
X177335113Y-91968000D02*
X177335113Y-90740000D01*
X177375113Y-88660000D02*
X177375113Y-87411000D01*
X177375113Y-91989000D02*
X177375113Y-90740000D01*
X177415113Y-88660000D02*
X177415113Y-87391000D01*
X177415113Y-92009000D02*
X177415113Y-90740000D01*
X177455113Y-88660000D02*
X177455113Y-87371000D01*
X177455113Y-92029000D02*
X177455113Y-90740000D01*
X177495113Y-88660000D02*
X177495113Y-87353000D01*
X177495113Y-92047000D02*
X177495113Y-90740000D01*
X177535113Y-88660000D02*
X177535113Y-87335000D01*
X177535113Y-92065000D02*
X177535113Y-90740000D01*
X177575113Y-88660000D02*
X177575113Y-87318000D01*
X177575113Y-92082000D02*
X177575113Y-90740000D01*
X177615113Y-88660000D02*
X177615113Y-87302000D01*
X177615113Y-92098000D02*
X177615113Y-90740000D01*
X177655113Y-88660000D02*
X177655113Y-87287000D01*
X177655113Y-92113000D02*
X177655113Y-90740000D01*
X177695113Y-88660000D02*
X177695113Y-87272000D01*
X177695113Y-92128000D02*
X177695113Y-90740000D01*
X177735113Y-88660000D02*
X177735113Y-87258000D01*
X177735113Y-92142000D02*
X177735113Y-90740000D01*
X177775113Y-88660000D02*
X177775113Y-87245000D01*
X177775113Y-92155000D02*
X177775113Y-90740000D01*
X177815113Y-88660000D02*
X177815113Y-87233000D01*
X177815113Y-92167000D02*
X177815113Y-90740000D01*
X177855113Y-88660000D02*
X177855113Y-87221000D01*
X177855113Y-92179000D02*
X177855113Y-90740000D01*
X177895113Y-88660000D02*
X177895113Y-87210000D01*
X177895113Y-92190000D02*
X177895113Y-90740000D01*
X177935113Y-88660000D02*
X177935113Y-87199000D01*
X177935113Y-92201000D02*
X177935113Y-90740000D01*
X177975113Y-88660000D02*
X177975113Y-87190000D01*
X177975113Y-92210000D02*
X177975113Y-90740000D01*
X178015113Y-88660000D02*
X178015113Y-87181000D01*
X178015113Y-92219000D02*
X178015113Y-90740000D01*
X178055113Y-88660000D02*
X178055113Y-87172000D01*
X178055113Y-92228000D02*
X178055113Y-90740000D01*
X178095113Y-88660000D02*
X178095113Y-87164000D01*
X178095113Y-92236000D02*
X178095113Y-90740000D01*
X178135113Y-88660000D02*
X178135113Y-87157000D01*
X178135113Y-92243000D02*
X178135113Y-90740000D01*
X178175113Y-88660000D02*
X178175113Y-87151000D01*
X178175113Y-92249000D02*
X178175113Y-90740000D01*
X178215113Y-88660000D02*
X178215113Y-87145000D01*
X178215113Y-92255000D02*
X178215113Y-90740000D01*
X178255113Y-88660000D02*
X178255113Y-87140000D01*
X178255113Y-92260000D02*
X178255113Y-90740000D01*
X178295113Y-88660000D02*
X178295113Y-87135000D01*
X178295113Y-92265000D02*
X178295113Y-90740000D01*
X178335113Y-88660000D02*
X178335113Y-87131000D01*
X178335113Y-92269000D02*
X178335113Y-90740000D01*
X178375113Y-88660000D02*
X178375113Y-87128000D01*
X178375113Y-92272000D02*
X178375113Y-90740000D01*
X178415113Y-88660000D02*
X178415113Y-87125000D01*
X178415113Y-92275000D02*
X178415113Y-90740000D01*
X178455113Y-88660000D02*
X178455113Y-87123000D01*
X178455113Y-92277000D02*
X178455113Y-90740000D01*
X178495113Y-88660000D02*
X178495113Y-87121000D01*
X178495113Y-92279000D02*
X178495113Y-90740000D01*
X178535113Y-88660000D02*
X178535113Y-87120000D01*
X178535113Y-92280000D02*
X178535113Y-90740000D01*
X178575113Y-88660000D02*
X178575113Y-87120000D01*
X178575113Y-92280000D02*
X178575113Y-90740000D01*
X181129888Y-91425000D02*
X181129888Y-90925000D01*
X181379888Y-91175000D02*
X180879888Y-91175000D01*
X181195113Y-89700000D02*
G75*
G02*
X175955113Y-89700000I-2620000J0D01*
G01*
X175955113Y-89700000D02*
G75*
G02*
X181195113Y-89700000I2620000J0D01*
G01*
%TO.C,R15*%
X182250000Y-86430000D02*
X182250000Y-92970000D01*
X182250000Y-92970000D02*
X182580000Y-92970000D01*
X182580000Y-86430000D02*
X182250000Y-86430000D01*
X184660000Y-86430000D02*
X184990000Y-86430000D01*
X184990000Y-86430000D02*
X184990000Y-92970000D01*
X184990000Y-92970000D02*
X184660000Y-92970000D01*
D12*
%TO.C,J2*%
X100390000Y-98200000D02*
X112390000Y-98200000D01*
X100390000Y-109200000D02*
X100390000Y-98200000D01*
X112390000Y-98200000D02*
X112390000Y-109200000D01*
X112390000Y-109200000D02*
X100390000Y-109200000D01*
X101890000Y-105700000D02*
G75*
G02*
X100890000Y-105700000I-500000J0D01*
G01*
X100890000Y-105700000D02*
G75*
G02*
X101890000Y-105700000I500000J0D01*
G01*
X101890000Y-108200000D02*
G75*
G02*
X100890000Y-108200000I-500000J0D01*
G01*
X100890000Y-108200000D02*
G75*
G02*
X101890000Y-108200000I500000J0D01*
G01*
X106890000Y-100700000D02*
G75*
G02*
X105890000Y-100700000I-500000J0D01*
G01*
X105890000Y-100700000D02*
G75*
G02*
X106890000Y-100700000I500000J0D01*
G01*
X111890000Y-105700000D02*
G75*
G02*
X110890000Y-105700000I-500000J0D01*
G01*
X110890000Y-105700000D02*
G75*
G02*
X111890000Y-105700000I500000J0D01*
G01*
X111890000Y-108200000D02*
G75*
G02*
X110890000Y-108200000I-500000J0D01*
G01*
X110890000Y-108200000D02*
G75*
G02*
X111890000Y-108200000I500000J0D01*
G01*
D11*
%TO.C,C7*%
X163520000Y-89983000D02*
X163520000Y-89417000D01*
X163560000Y-90217000D02*
X163560000Y-89183000D01*
X163600000Y-90377000D02*
X163600000Y-89023000D01*
X163640000Y-90505000D02*
X163640000Y-88895000D01*
X163680000Y-90614000D02*
X163680000Y-88786000D01*
X163720000Y-90711000D02*
X163720000Y-88689000D01*
X163760000Y-90798000D02*
X163760000Y-88602000D01*
X163800000Y-90877000D02*
X163800000Y-88523000D01*
X163840000Y-90951000D02*
X163840000Y-88449000D01*
X163880000Y-91019000D02*
X163880000Y-88381000D01*
X163920000Y-91083000D02*
X163920000Y-88317000D01*
X163960000Y-91143000D02*
X163960000Y-88257000D01*
X164000000Y-91199000D02*
X164000000Y-88201000D01*
X164040000Y-91253000D02*
X164040000Y-88147000D01*
X164080000Y-91304000D02*
X164080000Y-88096000D01*
X164120000Y-88660000D02*
X164120000Y-88048000D01*
X164120000Y-91352000D02*
X164120000Y-90740000D01*
X164160000Y-88660000D02*
X164160000Y-88001000D01*
X164160000Y-91399000D02*
X164160000Y-90740000D01*
X164200000Y-88660000D02*
X164200000Y-87957000D01*
X164200000Y-91443000D02*
X164200000Y-90740000D01*
X164240000Y-88660000D02*
X164240000Y-87915000D01*
X164240000Y-91485000D02*
X164240000Y-90740000D01*
X164280000Y-88660000D02*
X164280000Y-87875000D01*
X164280000Y-91525000D02*
X164280000Y-90740000D01*
X164320000Y-88660000D02*
X164320000Y-87836000D01*
X164320000Y-91564000D02*
X164320000Y-90740000D01*
X164360000Y-88660000D02*
X164360000Y-87799000D01*
X164360000Y-91601000D02*
X164360000Y-90740000D01*
X164400000Y-88660000D02*
X164400000Y-87764000D01*
X164400000Y-91636000D02*
X164400000Y-90740000D01*
X164440000Y-88660000D02*
X164440000Y-87730000D01*
X164440000Y-91670000D02*
X164440000Y-90740000D01*
X164480000Y-88660000D02*
X164480000Y-87697000D01*
X164480000Y-91703000D02*
X164480000Y-90740000D01*
X164520000Y-88660000D02*
X164520000Y-87665000D01*
X164520000Y-91735000D02*
X164520000Y-90740000D01*
X164560000Y-88660000D02*
X164560000Y-87635000D01*
X164560000Y-91765000D02*
X164560000Y-90740000D01*
X164600000Y-88660000D02*
X164600000Y-87606000D01*
X164600000Y-91794000D02*
X164600000Y-90740000D01*
X164640000Y-88660000D02*
X164640000Y-87578000D01*
X164640000Y-91822000D02*
X164640000Y-90740000D01*
X164680000Y-88660000D02*
X164680000Y-87551000D01*
X164680000Y-91849000D02*
X164680000Y-90740000D01*
X164720000Y-88660000D02*
X164720000Y-87525000D01*
X164720000Y-91875000D02*
X164720000Y-90740000D01*
X164760000Y-88660000D02*
X164760000Y-87501000D01*
X164760000Y-91899000D02*
X164760000Y-90740000D01*
X164800000Y-88660000D02*
X164800000Y-87477000D01*
X164800000Y-91923000D02*
X164800000Y-90740000D01*
X164840000Y-88660000D02*
X164840000Y-87454000D01*
X164840000Y-91946000D02*
X164840000Y-90740000D01*
X164880000Y-88660000D02*
X164880000Y-87432000D01*
X164880000Y-91968000D02*
X164880000Y-90740000D01*
X164920000Y-88660000D02*
X164920000Y-87411000D01*
X164920000Y-91989000D02*
X164920000Y-90740000D01*
X164960000Y-88660000D02*
X164960000Y-87391000D01*
X164960000Y-92009000D02*
X164960000Y-90740000D01*
X165000000Y-88660000D02*
X165000000Y-87371000D01*
X165000000Y-92029000D02*
X165000000Y-90740000D01*
X165040000Y-88660000D02*
X165040000Y-87353000D01*
X165040000Y-92047000D02*
X165040000Y-90740000D01*
X165080000Y-88660000D02*
X165080000Y-87335000D01*
X165080000Y-92065000D02*
X165080000Y-90740000D01*
X165120000Y-88660000D02*
X165120000Y-87318000D01*
X165120000Y-92082000D02*
X165120000Y-90740000D01*
X165160000Y-88660000D02*
X165160000Y-87302000D01*
X165160000Y-92098000D02*
X165160000Y-90740000D01*
X165200000Y-88660000D02*
X165200000Y-87287000D01*
X165200000Y-92113000D02*
X165200000Y-90740000D01*
X165240000Y-88660000D02*
X165240000Y-87272000D01*
X165240000Y-92128000D02*
X165240000Y-90740000D01*
X165280000Y-88660000D02*
X165280000Y-87258000D01*
X165280000Y-92142000D02*
X165280000Y-90740000D01*
X165320000Y-88660000D02*
X165320000Y-87245000D01*
X165320000Y-92155000D02*
X165320000Y-90740000D01*
X165360000Y-88660000D02*
X165360000Y-87233000D01*
X165360000Y-92167000D02*
X165360000Y-90740000D01*
X165400000Y-88660000D02*
X165400000Y-87221000D01*
X165400000Y-92179000D02*
X165400000Y-90740000D01*
X165440000Y-88660000D02*
X165440000Y-87210000D01*
X165440000Y-92190000D02*
X165440000Y-90740000D01*
X165480000Y-88660000D02*
X165480000Y-87199000D01*
X165480000Y-92201000D02*
X165480000Y-90740000D01*
X165520000Y-88660000D02*
X165520000Y-87190000D01*
X165520000Y-92210000D02*
X165520000Y-90740000D01*
X165560000Y-88660000D02*
X165560000Y-87181000D01*
X165560000Y-92219000D02*
X165560000Y-90740000D01*
X165600000Y-88660000D02*
X165600000Y-87172000D01*
X165600000Y-92228000D02*
X165600000Y-90740000D01*
X165640000Y-88660000D02*
X165640000Y-87164000D01*
X165640000Y-92236000D02*
X165640000Y-90740000D01*
X165680000Y-88660000D02*
X165680000Y-87157000D01*
X165680000Y-92243000D02*
X165680000Y-90740000D01*
X165720000Y-88660000D02*
X165720000Y-87151000D01*
X165720000Y-92249000D02*
X165720000Y-90740000D01*
X165760000Y-88660000D02*
X165760000Y-87145000D01*
X165760000Y-92255000D02*
X165760000Y-90740000D01*
X165800000Y-88660000D02*
X165800000Y-87140000D01*
X165800000Y-92260000D02*
X165800000Y-90740000D01*
X165840000Y-88660000D02*
X165840000Y-87135000D01*
X165840000Y-92265000D02*
X165840000Y-90740000D01*
X165880000Y-88660000D02*
X165880000Y-87131000D01*
X165880000Y-92269000D02*
X165880000Y-90740000D01*
X165920000Y-88660000D02*
X165920000Y-87128000D01*
X165920000Y-92272000D02*
X165920000Y-90740000D01*
X165960000Y-88660000D02*
X165960000Y-87125000D01*
X165960000Y-92275000D02*
X165960000Y-90740000D01*
X166000000Y-88660000D02*
X166000000Y-87123000D01*
X166000000Y-92277000D02*
X166000000Y-90740000D01*
X166040000Y-88660000D02*
X166040000Y-87121000D01*
X166040000Y-92279000D02*
X166040000Y-90740000D01*
X166080000Y-88660000D02*
X166080000Y-87120000D01*
X166080000Y-92280000D02*
X166080000Y-90740000D01*
X166120000Y-88660000D02*
X166120000Y-87120000D01*
X166120000Y-92280000D02*
X166120000Y-90740000D01*
X168674775Y-91425000D02*
X168674775Y-90925000D01*
X168924775Y-91175000D02*
X168424775Y-91175000D01*
X168740000Y-89700000D02*
G75*
G02*
X163500000Y-89700000I-2620000J0D01*
G01*
X163500000Y-89700000D02*
G75*
G02*
X168740000Y-89700000I2620000J0D01*
G01*
%TO.C,R6*%
X114490000Y-94830000D02*
X114490000Y-95160000D01*
X114490000Y-97570000D02*
X114490000Y-97240000D01*
X121030000Y-94830000D02*
X114490000Y-94830000D01*
X121030000Y-95160000D02*
X121030000Y-94830000D01*
X121030000Y-97240000D02*
X121030000Y-97570000D01*
X121030000Y-97570000D02*
X114490000Y-97570000D01*
%TD*%
M02*
