M48
; DRILL file {KiCad 9.0.3} date 2025-09-24T16:15:30+0200
; FORMAT={-:-/ absolute / metric / decimal}
; #@! TF.CreationDate,2025-09-24T16:15:30+02:00
; #@! TF.GenerationSoftware,Kicad,Pcbnew,9.0.3
; #@! TF.FileFunction,Plated,1,2,PTH
FMAT,2
METRIC
; #@! TA.AperFunction,Plated,PTH,ViaDrill
T1C0.300
; #@! TA.AperFunction,Plated,PTH,ViaDrill
T2C0.500
; #@! TA.AperFunction,Plated,PTH,ComponentDrill
T3C0.600
; #@! TA.AperFunction,Plated,PTH,ComponentDrill
T4C0.800
; #@! TA.AperFunction,Plated,PTH,ComponentDrill
T5C0.900
; #@! TA.AperFunction,Plated,PTH,ComponentDrill
T6C0.950
; #@! TA.AperFunction,Plated,PTH,ComponentDrill
T7C1.000
; #@! TA.AperFunction,Plated,PTH,ComponentDrill
T8C1.300
%
G90
G05
T1
X122.45Y-58.75
X122.45Y-75.45
X122.45Y-92.15
X122.45Y-108.85
X122.45Y-125.55
X122.45Y-142.25
X122.45Y-158.95
X134.2Y-50.6
X134.2Y-54.1
X136.6Y-109.7
X136.6Y-155.3
X138.0Y-103.9
X141.3Y-116.55
X141.3Y-117.55
X141.3Y-118.45
X141.3Y-119.35
X145.9Y-129.95
X145.9Y-132.2
X146.6Y-130.45
X146.6Y-138.05
X147.4Y-130.95
X147.4Y-144.2
T2
X139.4Y-78.2
T3
X115.307Y-54.38
X115.307Y-71.08
X115.307Y-87.78
X115.307Y-104.48
X115.307Y-137.88
X115.307Y-154.58
X115.31Y-37.68
X115.31Y-121.18
X116.578Y-54.38
X116.578Y-71.08
X116.578Y-87.78
X116.578Y-104.48
X116.578Y-137.88
X116.578Y-154.58
X116.58Y-37.68
X116.58Y-121.18
X117.847Y-54.38
X117.847Y-71.08
X117.847Y-87.78
X117.847Y-104.48
X117.847Y-137.88
X117.847Y-154.58
X117.85Y-37.68
X117.85Y-121.18
X148.89Y-156.26
X148.89Y-157.53
X148.89Y-158.8
T4
X115.147Y-58.29
X115.147Y-65.91
X115.147Y-74.99
X115.147Y-82.61
X115.147Y-91.69
X115.147Y-99.31
X115.147Y-108.39
X115.147Y-116.01
X115.147Y-141.79
X115.147Y-149.41
X115.147Y-158.49
X115.147Y-166.11
X115.15Y-41.59
X115.15Y-49.21
X115.15Y-125.09
X115.15Y-132.71
X117.837Y-58.74
X117.837Y-62.9
X117.837Y-65.44
X117.837Y-75.44
X117.837Y-79.6
X117.837Y-82.14
X117.837Y-92.14
X117.837Y-96.3
X117.837Y-98.84
X117.837Y-108.84
X117.837Y-113.0
X117.837Y-115.54
X117.837Y-142.24
X117.837Y-146.4
X117.837Y-148.94
X117.837Y-158.94
X117.837Y-163.1
X117.837Y-165.64
X117.84Y-42.04
X117.84Y-46.2
X117.84Y-48.74
X117.84Y-125.54
X117.84Y-129.7
X117.84Y-132.24
X125.457Y-58.74
X125.457Y-62.9
X125.457Y-65.44
X125.457Y-75.44
X125.457Y-79.6
X125.457Y-82.14
X125.457Y-92.14
X125.457Y-96.3
X125.457Y-98.84
X125.457Y-108.84
X125.457Y-113.0
X125.457Y-115.54
X125.457Y-142.24
X125.457Y-146.4
X125.457Y-148.94
X125.457Y-158.94
X125.457Y-163.1
X125.457Y-165.64
X125.46Y-42.04
X125.46Y-46.2
X125.46Y-48.74
X125.46Y-125.54
X125.46Y-129.7
X125.46Y-132.24
X127.837Y-65.46
X127.837Y-82.16
X127.837Y-98.86
X127.837Y-115.56
X127.837Y-148.96
X127.837Y-165.66
X127.84Y-48.76
X127.84Y-132.26
X135.457Y-65.46
X135.457Y-82.16
X135.457Y-98.86
X135.457Y-115.56
X135.457Y-148.96
X135.457Y-165.66
X135.46Y-48.76
X135.46Y-132.26
X137.79Y-156.3
X137.79Y-159.5
X139.265Y-150.415
X139.265Y-152.915
X142.46Y-111.9
X142.46Y-114.4
X142.48Y-90.61
X142.48Y-93.15
X142.48Y-95.69
X142.48Y-98.23
X142.48Y-100.77
X142.48Y-103.31
X142.48Y-105.85
X142.48Y-108.39
X142.48Y-129.96
X142.48Y-132.5
X142.48Y-135.04
X142.48Y-137.58
X142.48Y-140.12
X142.48Y-142.66
X142.48Y-145.2
X142.48Y-147.74
X142.48Y-150.28
X142.48Y-152.82
X145.055Y-50.0
X145.41Y-156.3
X145.41Y-159.5
X147.055Y-50.0
X147.7Y-78.0
X147.7Y-80.0
X150.1Y-90.61
X150.1Y-93.15
X150.1Y-95.69
X150.1Y-98.23
X150.1Y-100.77
X150.1Y-103.31
X150.1Y-105.85
X150.1Y-108.39
X150.1Y-129.96
X150.1Y-132.5
X150.1Y-135.04
X150.1Y-137.58
X150.1Y-140.12
X150.1Y-142.66
X150.1Y-145.2
X150.1Y-147.74
X150.1Y-150.28
X150.1Y-152.82
T5
X128.737Y-60.45
X128.737Y-77.15
X128.737Y-93.85
X128.737Y-110.55
X128.737Y-143.95
X128.737Y-160.65
X128.74Y-43.75
X128.74Y-127.25
X131.278Y-60.45
X131.278Y-77.15
X131.278Y-93.85
X131.278Y-110.55
X131.278Y-143.95
X131.278Y-160.65
X131.28Y-43.75
X131.28Y-127.25
T6
X147.72Y-62.5
X147.72Y-65.0
X147.72Y-67.5
X147.72Y-70.0
X147.72Y-72.5
T7
X110.147Y-53.55
X110.147Y-65.55
X110.147Y-70.25
X110.147Y-82.25
X110.147Y-86.95
X110.147Y-98.95
X110.147Y-103.65
X110.147Y-115.65
X110.147Y-137.05
X110.147Y-149.05
X110.147Y-153.75
X110.147Y-165.75
X110.15Y-36.85
X110.15Y-48.85
X110.15Y-120.35
X110.15Y-132.35
T8
X87.575Y-54.6
X87.575Y-59.6
X87.575Y-64.6
X87.575Y-71.3
X87.575Y-76.3
X87.575Y-81.3
X87.575Y-88.0
X87.575Y-93.0
X87.575Y-98.0
X87.575Y-104.7
X87.575Y-109.7
X87.575Y-114.7
X87.575Y-138.1
X87.575Y-143.1
X87.575Y-148.1
X87.575Y-154.8
X87.575Y-159.8
X87.575Y-164.8
X87.578Y-37.9
X87.578Y-42.9
X87.578Y-47.9
X87.578Y-121.4
X87.578Y-126.4
X87.578Y-131.4
X97.897Y-65.6
X97.897Y-82.3
X97.897Y-99.0
X97.897Y-115.7
X97.897Y-149.1
X97.897Y-165.8
X97.9Y-48.9
X97.9Y-132.4
X97.947Y-53.55
X97.947Y-70.25
X97.947Y-86.95
X97.947Y-103.65
X97.947Y-137.05
X97.947Y-153.75
X97.95Y-36.85
X97.95Y-120.35
X112.097Y-59.6
X112.097Y-76.3
X112.097Y-93.0
X112.097Y-109.7
X112.097Y-143.1
X112.097Y-159.8
X112.1Y-42.9
X112.1Y-126.4
X143.62Y-40.315
X148.62Y-40.315
M30
