%TF.GenerationSoftware,KiCad,Pcbnew,9.0.3*%
%TF.CreationDate,2025-09-24T16:15:22+02:00*%
%TF.ProjectId,SunCommander-RelayModule,53756e43-6f6d-46d6-916e-6465722d5265,rev?*%
%TF.SameCoordinates,Original*%
%TF.FileFunction,Copper,L1,Top*%
%TF.FilePolarity,Positive*%
%FSLAX46Y46*%
G04 Gerber Fmt 4.6, Leading zero omitted, Abs format (unit mm)*
G04 Created by KiCad (PCBNEW 9.0.3) date 2025-09-24 16:15:22*
%MOMM*%
%LPD*%
G01*
G04 APERTURE LIST*
G04 Aperture macros list*
%AMRoundRect*
0 Rectangle with rounded corners*
0 $1 Rounding radius*
0 $2 $3 $4 $5 $6 $7 $8 $9 X,Y pos of 4 corners*
0 Add a 4 corners polygon primitive as box body*
4,1,4,$2,$3,$4,$5,$6,$7,$8,$9,$2,$3,0*
0 Add four circle primitives for the rounded corners*
1,1,$1+$1,$2,$3*
1,1,$1+$1,$4,$5*
1,1,$1+$1,$6,$7*
1,1,$1+$1,$8,$9*
0 Add four rect primitives between the rounded corners*
20,1,$1+$1,$2,$3,$4,$5,0*
20,1,$1+$1,$4,$5,$6,$7,0*
20,1,$1+$1,$6,$7,$8,$9,0*
20,1,$1+$1,$8,$9,$2,$3,0*%
G04 Aperture macros list end*
%TA.AperFunction,ComponentPad*%
%ADD10C,1.600000*%
%TD*%
%TA.AperFunction,ComponentPad*%
%ADD11RoundRect,0.250000X-1.050000X1.050000X-1.050000X-1.050000X1.050000X-1.050000X1.050000X1.050000X0*%
%TD*%
%TA.AperFunction,ComponentPad*%
%ADD12C,2.600000*%
%TD*%
%TA.AperFunction,ComponentPad*%
%ADD13R,1.800000X1.800000*%
%TD*%
%TA.AperFunction,ComponentPad*%
%ADD14C,1.800000*%
%TD*%
%TA.AperFunction,ComponentPad*%
%ADD15RoundRect,0.250000X0.550000X0.550000X-0.550000X0.550000X-0.550000X-0.550000X0.550000X-0.550000X0*%
%TD*%
%TA.AperFunction,ComponentPad*%
%ADD16RoundRect,0.250000X0.550000X-0.550000X0.550000X0.550000X-0.550000X0.550000X-0.550000X-0.550000X0*%
%TD*%
%TA.AperFunction,ComponentPad*%
%ADD17C,3.000000*%
%TD*%
%TA.AperFunction,ComponentPad*%
%ADD18C,2.500000*%
%TD*%
%TA.AperFunction,ComponentPad*%
%ADD19R,1.100000X1.500000*%
%TD*%
%TA.AperFunction,ComponentPad*%
%ADD20O,1.100000X1.500000*%
%TD*%
%TA.AperFunction,ComponentPad*%
%ADD21RoundRect,0.250000X1.050000X1.050000X-1.050000X1.050000X-1.050000X-1.050000X1.050000X-1.050000X0*%
%TD*%
%TA.AperFunction,ComponentPad*%
%ADD22R,1.500000X1.100000*%
%TD*%
%TA.AperFunction,ComponentPad*%
%ADD23O,1.500000X1.100000*%
%TD*%
%TA.AperFunction,ComponentPad*%
%ADD24RoundRect,0.250000X0.725000X-0.600000X0.725000X0.600000X-0.725000X0.600000X-0.725000X-0.600000X0*%
%TD*%
%TA.AperFunction,ComponentPad*%
%ADD25O,1.950000X1.700000*%
%TD*%
%TA.AperFunction,ComponentPad*%
%ADD26RoundRect,0.250000X-0.550000X0.550000X-0.550000X-0.550000X0.550000X-0.550000X0.550000X0.550000X0*%
%TD*%
%TA.AperFunction,ViaPad*%
%ADD27C,0.600000*%
%TD*%
%TA.AperFunction,ViaPad*%
%ADD28C,0.800000*%
%TD*%
%TA.AperFunction,Conductor*%
%ADD29C,0.400000*%
%TD*%
%TA.AperFunction,Conductor*%
%ADD30C,0.600000*%
%TD*%
%TA.AperFunction,Conductor*%
%ADD31C,1.000000*%
%TD*%
%TA.AperFunction,Conductor*%
%ADD32C,0.200000*%
%TD*%
G04 APERTURE END LIST*
D10*
%TO.P,R18,1*%
%TO.N,/BUFF-enable*%
X137790000Y-159500000D03*
%TO.P,R18,2*%
%TO.N,Net-(Q9-B)*%
X145410000Y-159500000D03*
%TD*%
%TO.P,R1,1*%
%TO.N,+5V*%
X135457500Y-165660000D03*
%TO.P,R1,2*%
%TO.N,Net-(R1-Pad2)*%
X127837500Y-165660000D03*
%TD*%
%TO.P,R10,1*%
%TO.N,Net-(R10-Pad1)*%
X125457500Y-92140000D03*
%TO.P,R10,2*%
%TO.N,Net-(Q5-B)*%
X117837500Y-92140000D03*
%TD*%
D11*
%TO.P,J7,1,Pin_1*%
%TO.N,/R7-NO*%
X87575000Y-54600000D03*
D12*
%TO.P,J7,2,Pin_2*%
%TO.N,/R7-COM*%
X87575000Y-59600000D03*
%TO.P,J7,3,Pin_3*%
%TO.N,/R7-NC*%
X87575000Y-64600000D03*
%TD*%
D13*
%TO.P,D5,1,K*%
%TO.N,/BUFF-out-2*%
X131280000Y-127250000D03*
D14*
%TO.P,D5,2,A*%
%TO.N,Net-(D5-A)*%
X128740000Y-127250000D03*
%TD*%
D10*
%TO.P,R3,1*%
%TO.N,+5V*%
X135457500Y-148960000D03*
%TO.P,R3,2*%
%TO.N,Net-(R3-Pad2)*%
X127837500Y-148960000D03*
%TD*%
%TO.P,C1,1*%
%TO.N,+5V*%
X142460000Y-111900000D03*
%TO.P,C1,2*%
%TO.N,GND*%
X142460000Y-114400000D03*
%TD*%
%TO.P,R16,1*%
%TO.N,Net-(R16-Pad1)*%
X125460000Y-42040000D03*
%TO.P,R16,2*%
%TO.N,Net-(Q8-B)*%
X117840000Y-42040000D03*
%TD*%
D15*
%TO.P,U5,1*%
%TO.N,Net-(R5-Pad2)*%
X125460000Y-132240000D03*
D10*
%TO.P,U5,2*%
%TO.N,Net-(D5-A)*%
X125460000Y-129700000D03*
%TO.P,U5,3*%
%TO.N,Net-(R6-Pad1)*%
X117840000Y-129700000D03*
%TO.P,U5,4*%
%TO.N,+5V-RELAYS*%
X117840000Y-132240000D03*
%TD*%
D13*
%TO.P,D13,1,K*%
%TO.N,/BUFF-out-6*%
X131277500Y-60450000D03*
D14*
%TO.P,D13,2,A*%
%TO.N,Net-(D13-A)*%
X128737500Y-60450000D03*
%TD*%
D10*
%TO.P,R6,1*%
%TO.N,Net-(R6-Pad1)*%
X125460000Y-125540000D03*
%TO.P,R6,2*%
%TO.N,Net-(Q3-B)*%
X117840000Y-125540000D03*
%TD*%
%TO.P,R2,1*%
%TO.N,Net-(R2-Pad1)*%
X125457500Y-158940000D03*
%TO.P,R2,2*%
%TO.N,Net-(Q1-B)*%
X117837500Y-158940000D03*
%TD*%
D13*
%TO.P,D15,1,K*%
%TO.N,/BUFF-out-7*%
X131280000Y-43750000D03*
D14*
%TO.P,D15,2,A*%
%TO.N,Net-(D15-A)*%
X128740000Y-43750000D03*
%TD*%
D16*
%TO.P,D10,1,K*%
%TO.N,+5V-RELAYS*%
X115147500Y-99310000D03*
D10*
%TO.P,D10,2,A*%
%TO.N,Net-(D10-A)*%
X115147500Y-91690000D03*
%TD*%
%TO.P,C2,1*%
%TO.N,+5V*%
X139265000Y-152915000D03*
%TO.P,C2,2*%
%TO.N,GND*%
X139265000Y-150415000D03*
%TD*%
D16*
%TO.P,D16,1,K*%
%TO.N,+5V-RELAYS*%
X115150000Y-49210000D03*
D10*
%TO.P,D16,2,A*%
%TO.N,Net-(D16-A)*%
X115150000Y-41590000D03*
%TD*%
D16*
%TO.P,D12,1,K*%
%TO.N,+5V-RELAYS*%
X115147500Y-82610000D03*
D10*
%TO.P,D12,2,A*%
%TO.N,Net-(D12-A)*%
X115147500Y-74990000D03*
%TD*%
D11*
%TO.P,J1,1,Pin_1*%
%TO.N,/R1-NO*%
X87575000Y-154800000D03*
D12*
%TO.P,J1,2,Pin_2*%
%TO.N,/R1-COM*%
X87575000Y-159800000D03*
%TO.P,J1,3,Pin_3*%
%TO.N,/R1-NC*%
X87575000Y-164800000D03*
%TD*%
D17*
%TO.P,K3,1*%
%TO.N,/R3-COM*%
X112100000Y-126400000D03*
D18*
%TO.P,K3,2*%
%TO.N,Net-(D6-A)*%
X110150000Y-120350000D03*
D17*
%TO.P,K3,3*%
%TO.N,/R3-NO*%
X97950000Y-120350000D03*
%TO.P,K3,4*%
%TO.N,/R3-NC*%
X97900000Y-132400000D03*
D18*
%TO.P,K3,5*%
%TO.N,+5V-RELAYS*%
X110150000Y-132350000D03*
%TD*%
D11*
%TO.P,J8,1,Pin_1*%
%TO.N,/R8-NO*%
X87577500Y-37900000D03*
D12*
%TO.P,J8,2,Pin_2*%
%TO.N,/R8-COM*%
X87577500Y-42900000D03*
%TO.P,J8,3,Pin_3*%
%TO.N,/R8-NC*%
X87577500Y-47900000D03*
%TD*%
D10*
%TO.P,R8,1*%
%TO.N,Net-(R8-Pad1)*%
X125457500Y-108840000D03*
%TO.P,R8,2*%
%TO.N,Net-(Q4-B)*%
X117837500Y-108840000D03*
%TD*%
D11*
%TO.P,J5,1,Pin_1*%
%TO.N,/R5-NO*%
X87575000Y-88000000D03*
D12*
%TO.P,J5,2,Pin_2*%
%TO.N,/R5-COM*%
X87575000Y-93000000D03*
%TO.P,J5,3,Pin_3*%
%TO.N,/R5-NC*%
X87575000Y-98000000D03*
%TD*%
D10*
%TO.P,R17,1*%
%TO.N,+5V*%
X137790000Y-156300000D03*
%TO.P,R17,2*%
%TO.N,Net-(Q9-C)*%
X145410000Y-156300000D03*
%TD*%
D19*
%TO.P,Q4,1,C*%
%TO.N,Net-(D8-A)*%
X115307500Y-104480000D03*
D20*
%TO.P,Q4,2,B*%
%TO.N,Net-(Q4-B)*%
X116577500Y-104480000D03*
%TO.P,Q4,3,E*%
%TO.N,GND-RELAYS*%
X117847500Y-104480000D03*
%TD*%
D19*
%TO.P,Q2,1,C*%
%TO.N,Net-(D4-A)*%
X115307500Y-137880000D03*
D20*
%TO.P,Q2,2,B*%
%TO.N,Net-(Q2-B)*%
X116577500Y-137880000D03*
%TO.P,Q2,3,E*%
%TO.N,GND-RELAYS*%
X117847500Y-137880000D03*
%TD*%
D17*
%TO.P,K6,1*%
%TO.N,/R6-COM*%
X112097500Y-76300000D03*
D18*
%TO.P,K6,2*%
%TO.N,Net-(D12-A)*%
X110147500Y-70250000D03*
D17*
%TO.P,K6,3*%
%TO.N,/R6-NO*%
X97947500Y-70250000D03*
%TO.P,K6,4*%
%TO.N,/R6-NC*%
X97897500Y-82300000D03*
D18*
%TO.P,K6,5*%
%TO.N,+5V-RELAYS*%
X110147500Y-82250000D03*
%TD*%
D15*
%TO.P,U4,1*%
%TO.N,Net-(R3-Pad2)*%
X125457500Y-148940000D03*
D10*
%TO.P,U4,2*%
%TO.N,Net-(D3-A)*%
X125457500Y-146400000D03*
%TO.P,U4,3*%
%TO.N,Net-(R4-Pad1)*%
X117837500Y-146400000D03*
%TO.P,U4,4*%
%TO.N,+5V-RELAYS*%
X117837500Y-148940000D03*
%TD*%
%TO.P,R9,1*%
%TO.N,+5V*%
X135457500Y-98860000D03*
%TO.P,R9,2*%
%TO.N,Net-(R9-Pad2)*%
X127837500Y-98860000D03*
%TD*%
D17*
%TO.P,K5,1*%
%TO.N,/R5-COM*%
X112097500Y-93000000D03*
D18*
%TO.P,K5,2*%
%TO.N,Net-(D10-A)*%
X110147500Y-86950000D03*
D17*
%TO.P,K5,3*%
%TO.N,/R5-NO*%
X97947500Y-86950000D03*
%TO.P,K5,4*%
%TO.N,/R5-NC*%
X97897500Y-99000000D03*
D18*
%TO.P,K5,5*%
%TO.N,+5V-RELAYS*%
X110147500Y-98950000D03*
%TD*%
D15*
%TO.P,U7,1*%
%TO.N,Net-(R9-Pad2)*%
X125457500Y-98840000D03*
D10*
%TO.P,U7,2*%
%TO.N,Net-(D9-A)*%
X125457500Y-96300000D03*
%TO.P,U7,3*%
%TO.N,Net-(R10-Pad1)*%
X117837500Y-96300000D03*
%TO.P,U7,4*%
%TO.N,+5V-RELAYS*%
X117837500Y-98840000D03*
%TD*%
D19*
%TO.P,Q8,1,C*%
%TO.N,Net-(D16-A)*%
X115310000Y-37680000D03*
D20*
%TO.P,Q8,2,B*%
%TO.N,Net-(Q8-B)*%
X116580000Y-37680000D03*
%TO.P,Q8,3,E*%
%TO.N,GND-RELAYS*%
X117850000Y-37680000D03*
%TD*%
D21*
%TO.P,J10,1,Pin_1*%
%TO.N,+5V-RELAYS*%
X148620000Y-40315000D03*
D12*
%TO.P,J10,2,Pin_2*%
%TO.N,GND-RELAYS*%
X143620000Y-40315000D03*
%TD*%
D15*
%TO.P,U1,1,A0*%
%TO.N,GND*%
X150100000Y-108390000D03*
D10*
%TO.P,U1,2,A1*%
X150100000Y-105850000D03*
%TO.P,U1,3,A2*%
X150100000Y-103310000D03*
%TO.P,U1,4,P0*%
%TO.N,/PCF-out-0*%
X150100000Y-100770000D03*
%TO.P,U1,5,P1*%
%TO.N,/PCF-out-1*%
X150100000Y-98230000D03*
%TO.P,U1,6,P2*%
%TO.N,/PCF-out-2*%
X150100000Y-95690000D03*
%TO.P,U1,7,P3*%
%TO.N,/PCF-out-3*%
X150100000Y-93150000D03*
%TO.P,U1,8,GND*%
%TO.N,GND*%
X150100000Y-90610000D03*
%TO.P,U1,9,P4*%
%TO.N,/PCF-out-4*%
X142480000Y-90610000D03*
%TO.P,U1,10,P5*%
%TO.N,/PCF-out-5*%
X142480000Y-93150000D03*
%TO.P,U1,11,P6*%
%TO.N,/PCF-out-6*%
X142480000Y-95690000D03*
%TO.P,U1,12,P7*%
%TO.N,/PCF-out-7*%
X142480000Y-98230000D03*
%TO.P,U1,13,~{INT}*%
%TO.N,unconnected-(U1-~{INT}-Pad13)*%
X142480000Y-100770000D03*
%TO.P,U1,14,SCL*%
%TO.N,/I2C-SCL*%
X142480000Y-103310000D03*
%TO.P,U1,15,SDA*%
%TO.N,/I2C-SDA*%
X142480000Y-105850000D03*
%TO.P,U1,16,VDD*%
%TO.N,+5V*%
X142480000Y-108390000D03*
%TD*%
D22*
%TO.P,Q9,1,C*%
%TO.N,Net-(Q9-C)*%
X148890000Y-156260000D03*
D23*
%TO.P,Q9,2,B*%
%TO.N,Net-(Q9-B)*%
X148890000Y-157530000D03*
%TO.P,Q9,3,E*%
%TO.N,GND*%
X148890000Y-158800000D03*
%TD*%
D15*
%TO.P,C4,1*%
%TO.N,+5V-RELAYS*%
X147055113Y-50000000D03*
D10*
%TO.P,C4,2*%
%TO.N,GND-RELAYS*%
X145055113Y-50000000D03*
%TD*%
D15*
%TO.P,U8,1*%
%TO.N,Net-(R11-Pad2)*%
X125457500Y-82140000D03*
D10*
%TO.P,U8,2*%
%TO.N,Net-(D11-A)*%
X125457500Y-79600000D03*
%TO.P,U8,3*%
%TO.N,Net-(R12-Pad1)*%
X117837500Y-79600000D03*
%TO.P,U8,4*%
%TO.N,+5V-RELAYS*%
X117837500Y-82140000D03*
%TD*%
D17*
%TO.P,K4,1*%
%TO.N,/R4-COM*%
X112097500Y-109700000D03*
D18*
%TO.P,K4,2*%
%TO.N,Net-(D8-A)*%
X110147500Y-103650000D03*
D17*
%TO.P,K4,3*%
%TO.N,/R4-NO*%
X97947500Y-103650000D03*
%TO.P,K4,4*%
%TO.N,/R4-NC*%
X97897500Y-115700000D03*
D18*
%TO.P,K4,5*%
%TO.N,+5V-RELAYS*%
X110147500Y-115650000D03*
%TD*%
D16*
%TO.P,D2,1,K*%
%TO.N,+5V-RELAYS*%
X115147500Y-166110000D03*
D10*
%TO.P,D2,2,A*%
%TO.N,Net-(D2-A)*%
X115147500Y-158490000D03*
%TD*%
D11*
%TO.P,J2,1,Pin_1*%
%TO.N,/R2-NO*%
X87575000Y-138100000D03*
D12*
%TO.P,J2,2,Pin_2*%
%TO.N,/R2-COM*%
X87575000Y-143100000D03*
%TO.P,J2,3,Pin_3*%
%TO.N,/R2-NC*%
X87575000Y-148100000D03*
%TD*%
D19*
%TO.P,Q5,1,C*%
%TO.N,Net-(D10-A)*%
X115307500Y-87780000D03*
D20*
%TO.P,Q5,2,B*%
%TO.N,Net-(Q5-B)*%
X116577500Y-87780000D03*
%TO.P,Q5,3,E*%
%TO.N,GND-RELAYS*%
X117847500Y-87780000D03*
%TD*%
D16*
%TO.P,D8,1,K*%
%TO.N,+5V-RELAYS*%
X115147500Y-116010000D03*
D10*
%TO.P,D8,2,A*%
%TO.N,Net-(D8-A)*%
X115147500Y-108390000D03*
%TD*%
D17*
%TO.P,K2,1*%
%TO.N,/R2-COM*%
X112097500Y-143100000D03*
D18*
%TO.P,K2,2*%
%TO.N,Net-(D4-A)*%
X110147500Y-137050000D03*
D17*
%TO.P,K2,3*%
%TO.N,/R2-NO*%
X97947500Y-137050000D03*
%TO.P,K2,4*%
%TO.N,/R2-NC*%
X97897500Y-149100000D03*
D18*
%TO.P,K2,5*%
%TO.N,+5V-RELAYS*%
X110147500Y-149050000D03*
%TD*%
D15*
%TO.P,U6,1*%
%TO.N,Net-(R7-Pad2)*%
X125457500Y-115540000D03*
D10*
%TO.P,U6,2*%
%TO.N,Net-(D7-A)*%
X125457500Y-113000000D03*
%TO.P,U6,3*%
%TO.N,Net-(R8-Pad1)*%
X117837500Y-113000000D03*
%TO.P,U6,4*%
%TO.N,+5V-RELAYS*%
X117837500Y-115540000D03*
%TD*%
D17*
%TO.P,K1,1*%
%TO.N,/R1-COM*%
X112097500Y-159800000D03*
D18*
%TO.P,K1,2*%
%TO.N,Net-(D2-A)*%
X110147500Y-153750000D03*
D17*
%TO.P,K1,3*%
%TO.N,/R1-NO*%
X97947500Y-153750000D03*
%TO.P,K1,4*%
%TO.N,/R1-NC*%
X97897500Y-165800000D03*
D18*
%TO.P,K1,5*%
%TO.N,+5V-RELAYS*%
X110147500Y-165750000D03*
%TD*%
D10*
%TO.P,R5,1*%
%TO.N,+5V*%
X135460000Y-132260000D03*
%TO.P,R5,2*%
%TO.N,Net-(R5-Pad2)*%
X127840000Y-132260000D03*
%TD*%
D13*
%TO.P,D11,1,K*%
%TO.N,/BUFF-out-5*%
X131277500Y-77150000D03*
D14*
%TO.P,D11,2,A*%
%TO.N,Net-(D11-A)*%
X128737500Y-77150000D03*
%TD*%
D16*
%TO.P,D14,1,K*%
%TO.N,+5V-RELAYS*%
X115147500Y-65910000D03*
D10*
%TO.P,D14,2,A*%
%TO.N,Net-(D14-A)*%
X115147500Y-58290000D03*
%TD*%
%TO.P,R14,1*%
%TO.N,Net-(R14-Pad1)*%
X125457500Y-58740000D03*
%TO.P,R14,2*%
%TO.N,Net-(Q7-B)*%
X117837500Y-58740000D03*
%TD*%
D19*
%TO.P,Q3,1,C*%
%TO.N,Net-(D6-A)*%
X115310000Y-121180000D03*
D20*
%TO.P,Q3,2,B*%
%TO.N,Net-(Q3-B)*%
X116580000Y-121180000D03*
%TO.P,Q3,3,E*%
%TO.N,GND-RELAYS*%
X117850000Y-121180000D03*
%TD*%
D19*
%TO.P,Q6,1,C*%
%TO.N,Net-(D12-A)*%
X115307500Y-71080000D03*
D20*
%TO.P,Q6,2,B*%
%TO.N,Net-(Q6-B)*%
X116577500Y-71080000D03*
%TO.P,Q6,3,E*%
%TO.N,GND-RELAYS*%
X117847500Y-71080000D03*
%TD*%
D19*
%TO.P,Q1,1,C*%
%TO.N,Net-(D2-A)*%
X115307500Y-154580000D03*
D20*
%TO.P,Q1,2,B*%
%TO.N,Net-(Q1-B)*%
X116577500Y-154580000D03*
%TO.P,Q1,3,E*%
%TO.N,GND-RELAYS*%
X117847500Y-154580000D03*
%TD*%
D10*
%TO.P,R13,1*%
%TO.N,+5V*%
X135457500Y-65460000D03*
%TO.P,R13,2*%
%TO.N,Net-(R13-Pad2)*%
X127837500Y-65460000D03*
%TD*%
D13*
%TO.P,D7,1,K*%
%TO.N,/BUFF-out-3*%
X131277500Y-110550000D03*
D14*
%TO.P,D7,2,A*%
%TO.N,Net-(D7-A)*%
X128737500Y-110550000D03*
%TD*%
D15*
%TO.P,U9,1*%
%TO.N,Net-(R13-Pad2)*%
X125457500Y-65440000D03*
D10*
%TO.P,U9,2*%
%TO.N,Net-(D13-A)*%
X125457500Y-62900000D03*
%TO.P,U9,3*%
%TO.N,Net-(R14-Pad1)*%
X117837500Y-62900000D03*
%TO.P,U9,4*%
%TO.N,+5V-RELAYS*%
X117837500Y-65440000D03*
%TD*%
%TO.P,R4,1*%
%TO.N,Net-(R4-Pad1)*%
X125457500Y-142240000D03*
%TO.P,R4,2*%
%TO.N,Net-(Q2-B)*%
X117837500Y-142240000D03*
%TD*%
%TO.P,R15,1*%
%TO.N,+5V*%
X135460000Y-48760000D03*
%TO.P,R15,2*%
%TO.N,Net-(R15-Pad2)*%
X127840000Y-48760000D03*
%TD*%
D16*
%TO.P,D6,1,K*%
%TO.N,+5V-RELAYS*%
X115150000Y-132710000D03*
D10*
%TO.P,D6,2,A*%
%TO.N,Net-(D6-A)*%
X115150000Y-125090000D03*
%TD*%
D15*
%TO.P,U2,1,1OE*%
%TO.N,Net-(Q9-C)*%
X150100000Y-152820000D03*
D10*
%TO.P,U2,2,1A0*%
%TO.N,/PCF-out-0*%
X150100000Y-150280000D03*
%TO.P,U2,3,2Y0*%
%TO.N,/BUFF-out-4*%
X150100000Y-147740000D03*
%TO.P,U2,4,1A1*%
%TO.N,/PCF-out-1*%
X150100000Y-145200000D03*
%TO.P,U2,5,2Y1*%
%TO.N,/BUFF-out-5*%
X150100000Y-142660000D03*
%TO.P,U2,6,1A2*%
%TO.N,/PCF-out-2*%
X150100000Y-140120000D03*
%TO.P,U2,7,2Y2*%
%TO.N,/BUFF-out-6*%
X150100000Y-137580000D03*
%TO.P,U2,8,1A3*%
%TO.N,/PCF-out-3*%
X150100000Y-135040000D03*
%TO.P,U2,9,2Y3*%
%TO.N,/BUFF-out-7*%
X150100000Y-132500000D03*
%TO.P,U2,10,GND*%
%TO.N,GND*%
X150100000Y-129960000D03*
%TO.P,U2,11,2A3*%
%TO.N,/PCF-out-7*%
X142480000Y-129960000D03*
%TO.P,U2,12,1Y3*%
%TO.N,/BUFF-out-3*%
X142480000Y-132500000D03*
%TO.P,U2,13,2A2*%
%TO.N,/PCF-out-6*%
X142480000Y-135040000D03*
%TO.P,U2,14,1Y2*%
%TO.N,/BUFF-out-2*%
X142480000Y-137580000D03*
%TO.P,U2,15,2A1*%
%TO.N,/PCF-out-5*%
X142480000Y-140120000D03*
%TO.P,U2,16,1Y1*%
%TO.N,/BUFF-out-1*%
X142480000Y-142660000D03*
%TO.P,U2,17,2A0*%
%TO.N,/PCF-out-4*%
X142480000Y-145200000D03*
%TO.P,U2,18,1Y0*%
%TO.N,/BUFF-out-0*%
X142480000Y-147740000D03*
%TO.P,U2,19,2OE*%
%TO.N,Net-(Q9-C)*%
X142480000Y-150280000D03*
%TO.P,U2,20,VCC*%
%TO.N,+5V*%
X142480000Y-152820000D03*
%TD*%
D17*
%TO.P,K8,1*%
%TO.N,/R8-COM*%
X112100000Y-42900000D03*
D18*
%TO.P,K8,2*%
%TO.N,Net-(D16-A)*%
X110150000Y-36850000D03*
D17*
%TO.P,K8,3*%
%TO.N,/R8-NO*%
X97950000Y-36850000D03*
%TO.P,K8,4*%
%TO.N,/R8-NC*%
X97900000Y-48900000D03*
D18*
%TO.P,K8,5*%
%TO.N,+5V-RELAYS*%
X110150000Y-48850000D03*
%TD*%
D13*
%TO.P,D1,1,K*%
%TO.N,/BUFF-out-0*%
X131277500Y-160650000D03*
D14*
%TO.P,D1,2,A*%
%TO.N,Net-(D1-A)*%
X128737500Y-160650000D03*
%TD*%
D16*
%TO.P,D4,1,K*%
%TO.N,+5V-RELAYS*%
X115147500Y-149410000D03*
D10*
%TO.P,D4,2,A*%
%TO.N,Net-(D4-A)*%
X115147500Y-141790000D03*
%TD*%
D15*
%TO.P,U3,1*%
%TO.N,Net-(R1-Pad2)*%
X125457500Y-165640000D03*
D10*
%TO.P,U3,2*%
%TO.N,Net-(D1-A)*%
X125457500Y-163100000D03*
%TO.P,U3,3*%
%TO.N,Net-(R2-Pad1)*%
X117837500Y-163100000D03*
%TO.P,U3,4*%
%TO.N,+5V-RELAYS*%
X117837500Y-165640000D03*
%TD*%
%TO.P,R11,1*%
%TO.N,+5V*%
X135457500Y-82160000D03*
%TO.P,R11,2*%
%TO.N,Net-(R11-Pad2)*%
X127837500Y-82160000D03*
%TD*%
D11*
%TO.P,J3,1,Pin_1*%
%TO.N,/R3-NO*%
X87577500Y-121400000D03*
D12*
%TO.P,J3,2,Pin_2*%
%TO.N,/R3-COM*%
X87577500Y-126400000D03*
%TO.P,J3,3,Pin_3*%
%TO.N,/R3-NC*%
X87577500Y-131400000D03*
%TD*%
D10*
%TO.P,R7,1*%
%TO.N,+5V*%
X135457500Y-115560000D03*
%TO.P,R7,2*%
%TO.N,Net-(R7-Pad2)*%
X127837500Y-115560000D03*
%TD*%
D13*
%TO.P,D3,1,K*%
%TO.N,/BUFF-out-1*%
X131277500Y-143950000D03*
D14*
%TO.P,D3,2,A*%
%TO.N,Net-(D3-A)*%
X128737500Y-143950000D03*
%TD*%
D10*
%TO.P,R12,1*%
%TO.N,Net-(R12-Pad1)*%
X125457500Y-75440000D03*
%TO.P,R12,2*%
%TO.N,Net-(Q6-B)*%
X117837500Y-75440000D03*
%TD*%
D13*
%TO.P,D9,1,K*%
%TO.N,/BUFF-out-4*%
X131277500Y-93850000D03*
D14*
%TO.P,D9,2,A*%
%TO.N,Net-(D9-A)*%
X128737500Y-93850000D03*
%TD*%
D15*
%TO.P,U10,1*%
%TO.N,Net-(R15-Pad2)*%
X125460000Y-48740000D03*
D10*
%TO.P,U10,2*%
%TO.N,Net-(D15-A)*%
X125460000Y-46200000D03*
%TO.P,U10,3*%
%TO.N,Net-(R16-Pad1)*%
X117840000Y-46200000D03*
%TO.P,U10,4*%
%TO.N,+5V-RELAYS*%
X117840000Y-48740000D03*
%TD*%
D17*
%TO.P,K7,1*%
%TO.N,/R7-COM*%
X112097500Y-59600000D03*
D18*
%TO.P,K7,2*%
%TO.N,Net-(D14-A)*%
X110147500Y-53550000D03*
D17*
%TO.P,K7,3*%
%TO.N,/R7-NO*%
X97947500Y-53550000D03*
%TO.P,K7,4*%
%TO.N,/R7-NC*%
X97897500Y-65600000D03*
D18*
%TO.P,K7,5*%
%TO.N,+5V-RELAYS*%
X110147500Y-65550000D03*
%TD*%
D19*
%TO.P,Q7,1,C*%
%TO.N,Net-(D14-A)*%
X115307500Y-54380000D03*
D20*
%TO.P,Q7,2,B*%
%TO.N,Net-(Q7-B)*%
X116577500Y-54380000D03*
%TO.P,Q7,3,E*%
%TO.N,GND-RELAYS*%
X117847500Y-54380000D03*
%TD*%
D24*
%TO.P,J9,1,Pin_1*%
%TO.N,+5V*%
X147720000Y-72500000D03*
D25*
%TO.P,J9,2,Pin_2*%
%TO.N,GND*%
X147720000Y-70000000D03*
%TO.P,J9,3,Pin_3*%
%TO.N,/I2C-SCL*%
X147720000Y-67500000D03*
%TO.P,J9,4,Pin_4*%
%TO.N,/I2C-SDA*%
X147720000Y-65000000D03*
%TO.P,J9,5,Pin_5*%
%TO.N,/BUFF-enable*%
X147720000Y-62500000D03*
%TD*%
D26*
%TO.P,C3,1*%
%TO.N,+5V*%
X147700000Y-78000000D03*
D10*
%TO.P,C3,2*%
%TO.N,GND*%
X147700000Y-80000000D03*
%TD*%
D11*
%TO.P,J4,1,Pin_1*%
%TO.N,/R4-NO*%
X87575000Y-104700000D03*
D12*
%TO.P,J4,2,Pin_2*%
%TO.N,/R4-COM*%
X87575000Y-109700000D03*
%TO.P,J4,3,Pin_3*%
%TO.N,/R4-NC*%
X87575000Y-114700000D03*
%TD*%
D11*
%TO.P,J6,1,Pin_1*%
%TO.N,/R6-NO*%
X87575000Y-71300000D03*
D12*
%TO.P,J6,2,Pin_2*%
%TO.N,/R6-COM*%
X87575000Y-76300000D03*
%TO.P,J6,3,Pin_3*%
%TO.N,/R6-NC*%
X87575000Y-81300000D03*
%TD*%
D27*
%TO.N,+5V*%
X138000000Y-103900000D03*
D28*
X139400000Y-78200000D03*
D27*
%TO.N,/BUFF-out-4*%
X141300000Y-119350000D03*
%TO.N,/BUFF-out-5*%
X141300000Y-118450000D03*
%TO.N,/BUFF-out-6*%
X141300000Y-117550000D03*
%TO.N,/BUFF-out-7*%
X134200000Y-50600000D03*
X134200000Y-54100000D03*
X141300000Y-116550000D03*
%TO.N,/BUFF-enable*%
X136600000Y-155300000D03*
X136600000Y-109700000D03*
%TO.N,Net-(R2-Pad1)*%
X122450000Y-158950000D03*
%TO.N,Net-(R4-Pad1)*%
X122450000Y-142250000D03*
%TO.N,Net-(R6-Pad1)*%
X122450000Y-125550000D03*
%TO.N,Net-(R8-Pad1)*%
X122450000Y-108850000D03*
%TO.N,Net-(R14-Pad1)*%
X122450000Y-58750000D03*
%TO.N,/PCF-out-1*%
X146600000Y-138050000D03*
X146600000Y-130450000D03*
%TO.N,/PCF-out-0*%
X147400000Y-130950000D03*
X147400000Y-144200000D03*
%TO.N,/PCF-out-2*%
X145900000Y-129950000D03*
X145900000Y-132200000D03*
%TO.N,Net-(R10-Pad1)*%
X122450000Y-92150000D03*
%TO.N,Net-(R12-Pad1)*%
X122450000Y-75450000D03*
%TD*%
D29*
%TO.N,+5V*%
X138000000Y-103900000D02*
X138300000Y-104200000D01*
D30*
X139400000Y-78200000D02*
X145100000Y-72500000D01*
D29*
X138300000Y-104200000D02*
X138300000Y-104210000D01*
D30*
X147700000Y-72520000D02*
X147720000Y-72500000D01*
X145100000Y-72500000D02*
X147720000Y-72500000D01*
D29*
X138300000Y-104210000D02*
X142480000Y-108390000D01*
X142460000Y-108410000D02*
X142480000Y-108390000D01*
D30*
X147700000Y-78000000D02*
X147700000Y-72520000D01*
D29*
X142460000Y-111900000D02*
X142460000Y-108410000D01*
D30*
%TO.N,+5V-RELAYS*%
X110147500Y-65550000D02*
X114787500Y-65550000D01*
X114790000Y-132350000D02*
X115150000Y-132710000D01*
X110147500Y-115650000D02*
X114787500Y-115650000D01*
X117367500Y-116010000D02*
X117837500Y-115540000D01*
X114787500Y-149050000D02*
X115147500Y-149410000D01*
X114790000Y-48850000D02*
X115150000Y-49210000D01*
X110150000Y-48850000D02*
X114790000Y-48850000D01*
X110147500Y-149050000D02*
X114787500Y-149050000D01*
X114787500Y-165750000D02*
X115147500Y-166110000D01*
D31*
X136535000Y-52400000D02*
X128900000Y-52400000D01*
X117837500Y-148940000D02*
X123700000Y-143077500D01*
X123700000Y-92977500D02*
X123700000Y-76277500D01*
D30*
X115147500Y-99310000D02*
X117367500Y-99310000D01*
X117367500Y-99310000D02*
X117837500Y-98840000D01*
X110147500Y-82250000D02*
X114787500Y-82250000D01*
D31*
X123700000Y-54600000D02*
X123700000Y-59577500D01*
D30*
X110147500Y-165750000D02*
X114787500Y-165750000D01*
D31*
X123700000Y-143077500D02*
X123700000Y-126380000D01*
D30*
X114787500Y-115650000D02*
X115147500Y-116010000D01*
D31*
X123700000Y-59577500D02*
X117837500Y-65440000D01*
D30*
X115147500Y-149410000D02*
X117367500Y-149410000D01*
X115147500Y-65910000D02*
X117367500Y-65910000D01*
D31*
X117837500Y-82140000D02*
X123700000Y-76277500D01*
X128900000Y-52400000D02*
X123700000Y-57600000D01*
D30*
X117370000Y-132710000D02*
X117840000Y-132240000D01*
D31*
X123700000Y-76277500D02*
X123700000Y-59577500D01*
D30*
X117367500Y-82610000D02*
X117837500Y-82140000D01*
X110147500Y-98950000D02*
X114787500Y-98950000D01*
X114787500Y-65550000D02*
X115147500Y-65910000D01*
X110150000Y-132350000D02*
X114790000Y-132350000D01*
D31*
X117837500Y-115540000D02*
X123700000Y-109677500D01*
X117840000Y-132240000D02*
X123700000Y-126380000D01*
X148620000Y-40315000D02*
X148620000Y-48435113D01*
D30*
X115150000Y-132710000D02*
X117370000Y-132710000D01*
X115147500Y-116010000D02*
X117367500Y-116010000D01*
D31*
X117840000Y-48740000D02*
X123700000Y-54600000D01*
D30*
X117370000Y-49210000D02*
X117840000Y-48740000D01*
X114787500Y-98950000D02*
X115147500Y-99310000D01*
X114787500Y-82250000D02*
X115147500Y-82610000D01*
D31*
X123700000Y-57600000D02*
X123700000Y-59577500D01*
D30*
X117367500Y-65910000D02*
X117837500Y-65440000D01*
D31*
X123700000Y-159777500D02*
X123700000Y-143077500D01*
D30*
X110507500Y-99310000D02*
X110147500Y-98950000D01*
D31*
X148620000Y-48435113D02*
X147055113Y-50000000D01*
D30*
X115147500Y-82610000D02*
X117367500Y-82610000D01*
D31*
X117837500Y-165640000D02*
X123700000Y-159777500D01*
X123700000Y-126380000D02*
X123700000Y-109677500D01*
X117837500Y-98840000D02*
X123700000Y-92977500D01*
D30*
X115147500Y-166110000D02*
X117367500Y-166110000D01*
D31*
X123700000Y-109677500D02*
X123700000Y-92977500D01*
X148620000Y-40315000D02*
X136535000Y-52400000D01*
D30*
X115150000Y-49210000D02*
X117370000Y-49210000D01*
X117367500Y-166110000D02*
X117837500Y-165640000D01*
X117367500Y-149410000D02*
X117837500Y-148940000D01*
D32*
%TO.N,/BUFF-out-0*%
X139910000Y-147740000D02*
X142480000Y-147740000D01*
X131277500Y-160650000D02*
X131277500Y-156372500D01*
X131277500Y-156372500D02*
X139910000Y-147740000D01*
D29*
%TO.N,Net-(D1-A)*%
X127907500Y-160650000D02*
X128737500Y-160650000D01*
X125457500Y-163100000D02*
X127907500Y-160650000D01*
D30*
%TO.N,Net-(D2-A)*%
X115147500Y-154740000D02*
X115307500Y-154580000D01*
X114477500Y-153750000D02*
X115307500Y-154580000D01*
X110147500Y-153750000D02*
X114477500Y-153750000D01*
X115147500Y-158490000D02*
X115147500Y-154740000D01*
D29*
%TO.N,Net-(D3-A)*%
X125457500Y-146400000D02*
X127907500Y-143950000D01*
X127907500Y-143950000D02*
X128737500Y-143950000D01*
D32*
%TO.N,/BUFF-out-1*%
X141190000Y-143950000D02*
X142480000Y-142660000D01*
X131277500Y-143950000D02*
X141190000Y-143950000D01*
D30*
%TO.N,Net-(D4-A)*%
X114477500Y-137050000D02*
X115307500Y-137880000D01*
X115307500Y-137880000D02*
X115307500Y-141630000D01*
X110147500Y-137050000D02*
X114477500Y-137050000D01*
X115307500Y-141630000D02*
X115147500Y-141790000D01*
D32*
%TO.N,/BUFF-out-2*%
X131280000Y-127250000D02*
X131280000Y-132030000D01*
X131280000Y-132030000D02*
X136830000Y-137580000D01*
X136830000Y-137580000D02*
X142480000Y-137580000D01*
D29*
%TO.N,Net-(D5-A)*%
X127910000Y-127250000D02*
X128740000Y-127250000D01*
X125460000Y-129700000D02*
X127910000Y-127250000D01*
D30*
%TO.N,Net-(D6-A)*%
X115310000Y-124930000D02*
X115150000Y-125090000D01*
X114480000Y-120350000D02*
X115310000Y-121180000D01*
X115310000Y-121180000D02*
X115310000Y-124930000D01*
X110150000Y-120350000D02*
X114480000Y-120350000D01*
D32*
%TO.N,/BUFF-out-3*%
X131277500Y-121297500D02*
X142480000Y-132500000D01*
X131277500Y-110550000D02*
X131277500Y-121297500D01*
D29*
%TO.N,Net-(D7-A)*%
X127907500Y-110550000D02*
X128737500Y-110550000D01*
X125457500Y-113000000D02*
X127907500Y-110550000D01*
D30*
%TO.N,Net-(D8-A)*%
X114477500Y-103650000D02*
X115307500Y-104480000D01*
X110147500Y-103650000D02*
X114477500Y-103650000D01*
X115307500Y-108230000D02*
X115147500Y-108390000D01*
X115307500Y-104480000D02*
X115307500Y-108230000D01*
D29*
%TO.N,Net-(D9-A)*%
X125457500Y-96300000D02*
X127907500Y-93850000D01*
X127907500Y-93850000D02*
X128737500Y-93850000D01*
D32*
%TO.N,/BUFF-out-4*%
X132700000Y-95272500D02*
X131277500Y-93850000D01*
X132700000Y-110750000D02*
X132700000Y-95272500D01*
X141300000Y-119350000D02*
X132700000Y-110750000D01*
%TO.N,/BUFF-out-5*%
X133200000Y-79072500D02*
X131277500Y-77150000D01*
X133200000Y-110350000D02*
X133200000Y-79072500D01*
X141300000Y-118450000D02*
X133200000Y-110350000D01*
D30*
%TO.N,Net-(D10-A)*%
X115307500Y-87780000D02*
X115307500Y-91530000D01*
X114477500Y-86950000D02*
X115307500Y-87780000D01*
X110147500Y-86950000D02*
X114477500Y-86950000D01*
X115307500Y-91530000D02*
X115147500Y-91690000D01*
D29*
%TO.N,Net-(D11-A)*%
X125457500Y-79600000D02*
X127907500Y-77150000D01*
X127907500Y-77150000D02*
X128737500Y-77150000D01*
D32*
%TO.N,/BUFF-out-6*%
X131277500Y-62852000D02*
X131277500Y-60450000D01*
X141300000Y-117550000D02*
X133700000Y-109950000D01*
X133700000Y-65274500D02*
X131277500Y-62852000D01*
X133700000Y-109950000D02*
X133700000Y-65274500D01*
D30*
%TO.N,Net-(D12-A)*%
X114477500Y-70250000D02*
X115307500Y-71080000D01*
X115307500Y-71080000D02*
X115307500Y-74830000D01*
X115307500Y-74830000D02*
X115147500Y-74990000D01*
X110147500Y-70250000D02*
X114477500Y-70250000D01*
D32*
%TO.N,/BUFF-out-7*%
X134200000Y-109450000D02*
X141300000Y-116550000D01*
X131280000Y-46157000D02*
X131280000Y-43750000D01*
X134200000Y-49077000D02*
X131280000Y-46157000D01*
X134200000Y-50600000D02*
X134200000Y-49077000D01*
X134200000Y-54100000D02*
X134200000Y-109450000D01*
D29*
%TO.N,Net-(D13-A)*%
X125457500Y-62900000D02*
X127907500Y-60450000D01*
X127907500Y-60450000D02*
X128737500Y-60450000D01*
D30*
%TO.N,Net-(D14-A)*%
X110147500Y-53550000D02*
X114477500Y-53550000D01*
X114477500Y-53550000D02*
X115307500Y-54380000D01*
X115307500Y-54380000D02*
X115307500Y-58130000D01*
X115307500Y-58130000D02*
X115147500Y-58290000D01*
D29*
%TO.N,Net-(D15-A)*%
X125460000Y-46200000D02*
X127910000Y-43750000D01*
X127910000Y-43750000D02*
X128740000Y-43750000D01*
D30*
%TO.N,Net-(D16-A)*%
X110150000Y-36850000D02*
X114480000Y-36850000D01*
X115310000Y-37680000D02*
X115310000Y-41430000D01*
X115310000Y-41430000D02*
X115150000Y-41590000D01*
X114480000Y-36850000D02*
X115310000Y-37680000D01*
D32*
%TO.N,/I2C-SCL*%
X147720000Y-67500000D02*
X137900000Y-77320000D01*
X137900000Y-77320000D02*
X137900000Y-98730000D01*
X137900000Y-98730000D02*
X142480000Y-103310000D01*
%TO.N,/I2C-SDA*%
X137200000Y-100570000D02*
X137200000Y-75520000D01*
X137200000Y-75520000D02*
X147720000Y-65000000D01*
X142480000Y-105850000D02*
X137200000Y-100570000D01*
%TO.N,/BUFF-enable*%
X136600000Y-158310000D02*
X136600000Y-155300000D01*
X136600000Y-109700000D02*
X136600000Y-73620000D01*
X137790000Y-159500000D02*
X136600000Y-158310000D01*
X136600000Y-73620000D02*
X147720000Y-62500000D01*
D29*
%TO.N,Net-(Q1-B)*%
X116577500Y-154580000D02*
X116577500Y-157680000D01*
X116577500Y-157680000D02*
X117837500Y-158940000D01*
%TO.N,Net-(Q2-B)*%
X116577500Y-137880000D02*
X116577500Y-140980000D01*
X116577500Y-140980000D02*
X117837500Y-142240000D01*
%TO.N,Net-(Q3-B)*%
X116580000Y-124280000D02*
X117840000Y-125540000D01*
X116580000Y-121180000D02*
X116580000Y-124280000D01*
%TO.N,Net-(Q4-B)*%
X116577500Y-107580000D02*
X117837500Y-108840000D01*
X116577500Y-104480000D02*
X116577500Y-107580000D01*
%TO.N,Net-(Q5-B)*%
X116577500Y-90880000D02*
X117837500Y-92140000D01*
X116577500Y-87780000D02*
X116577500Y-90880000D01*
%TO.N,Net-(Q6-B)*%
X116577500Y-74180000D02*
X117837500Y-75440000D01*
X116577500Y-71080000D02*
X116577500Y-74180000D01*
%TO.N,Net-(Q7-B)*%
X116577500Y-57480000D02*
X117837500Y-58740000D01*
X116577500Y-54380000D02*
X116577500Y-57480000D01*
%TO.N,Net-(Q8-B)*%
X116580000Y-37680000D02*
X116580000Y-40780000D01*
X116580000Y-40780000D02*
X117840000Y-42040000D01*
D32*
%TO.N,Net-(Q9-C)*%
X145410000Y-156300000D02*
X148850000Y-156300000D01*
X150100000Y-152820000D02*
X145020000Y-152820000D01*
X150100000Y-155050000D02*
X148890000Y-156260000D01*
X145020000Y-152820000D02*
X142480000Y-150280000D01*
X148850000Y-156300000D02*
X148890000Y-156260000D01*
X150100000Y-152820000D02*
X150100000Y-155050000D01*
%TO.N,Net-(Q9-B)*%
X145410000Y-159500000D02*
X147380000Y-157530000D01*
X147380000Y-157530000D02*
X148890000Y-157530000D01*
D29*
%TO.N,Net-(R1-Pad2)*%
X127817500Y-165640000D02*
X127837500Y-165660000D01*
X125457500Y-165640000D02*
X127817500Y-165640000D01*
%TO.N,Net-(R2-Pad1)*%
X117837500Y-163100000D02*
X121987500Y-158950000D01*
X121987500Y-158950000D02*
X122500000Y-158950000D01*
%TO.N,Net-(R3-Pad2)*%
X127817500Y-148940000D02*
X127837500Y-148960000D01*
X125457500Y-148940000D02*
X127817500Y-148940000D01*
%TO.N,Net-(R4-Pad1)*%
X117837500Y-146400000D02*
X121987500Y-142250000D01*
X121987500Y-142250000D02*
X122400000Y-142250000D01*
%TO.N,Net-(R5-Pad2)*%
X125460000Y-132240000D02*
X127820000Y-132240000D01*
X127820000Y-132240000D02*
X127840000Y-132260000D01*
%TO.N,Net-(R6-Pad1)*%
X117840000Y-129700000D02*
X121990000Y-125550000D01*
X121990000Y-125550000D02*
X122300000Y-125550000D01*
%TO.N,Net-(R7-Pad2)*%
X125457500Y-115540000D02*
X127817500Y-115540000D01*
X127817500Y-115540000D02*
X127837500Y-115560000D01*
%TO.N,Net-(R8-Pad1)*%
X117837500Y-113000000D02*
X121987500Y-108850000D01*
X121987500Y-108850000D02*
X122500000Y-108850000D01*
%TO.N,Net-(R9-Pad2)*%
X127817500Y-98840000D02*
X127837500Y-98860000D01*
X125457500Y-98840000D02*
X127817500Y-98840000D01*
%TO.N,Net-(R11-Pad2)*%
X127817500Y-82140000D02*
X127837500Y-82160000D01*
X125457500Y-82140000D02*
X127817500Y-82140000D01*
%TO.N,Net-(R14-Pad1)*%
X122450000Y-58750000D02*
X121987500Y-58750000D01*
X121987500Y-58750000D02*
X117837500Y-62900000D01*
%TO.N,Net-(R16-Pad1)*%
X117840000Y-46200000D02*
X121990000Y-42050000D01*
X125450000Y-42050000D02*
X125460000Y-42040000D01*
X121990000Y-42050000D02*
X125450000Y-42050000D01*
D32*
%TO.N,/PCF-out-5*%
X142480000Y-93150000D02*
X144500000Y-95170000D01*
X144500000Y-138100000D02*
X142480000Y-140120000D01*
X144500000Y-95170000D02*
X144500000Y-138100000D01*
%TO.N,/PCF-out-6*%
X142480000Y-95690000D02*
X144100000Y-97310000D01*
X144100000Y-97310000D02*
X144100000Y-133420000D01*
X144100000Y-133420000D02*
X142480000Y-135040000D01*
%TO.N,/PCF-out-7*%
X143700000Y-128740000D02*
X142480000Y-129960000D01*
X142480000Y-98230000D02*
X143700000Y-99450000D01*
X143700000Y-99450000D02*
X143700000Y-128740000D01*
%TO.N,/PCF-out-3*%
X145300000Y-130240000D02*
X150100000Y-135040000D01*
X150100000Y-93150000D02*
X145300000Y-97950000D01*
X145300000Y-97950000D02*
X145300000Y-130240000D01*
%TO.N,/PCF-out-1*%
X146600000Y-141700000D02*
X150100000Y-145200000D01*
X146600000Y-130450000D02*
X146600000Y-101730000D01*
X146600000Y-138050000D02*
X146600000Y-141700000D01*
X146600000Y-101730000D02*
X150100000Y-98230000D01*
%TO.N,/PCF-out-4*%
X142480000Y-90610000D02*
X144900000Y-93030000D01*
X144900000Y-142780000D02*
X142480000Y-145200000D01*
X144900000Y-93030000D02*
X144900000Y-142780000D01*
%TO.N,/PCF-out-0*%
X147400000Y-144200000D02*
X147400000Y-147580000D01*
X147400000Y-103470000D02*
X150100000Y-100770000D01*
X147400000Y-147580000D02*
X150100000Y-150280000D01*
X147400000Y-130950000D02*
X147400000Y-103470000D01*
%TO.N,/PCF-out-2*%
X145900000Y-99890000D02*
X150100000Y-95690000D01*
X145900000Y-132200000D02*
X145900000Y-135920000D01*
X145900000Y-135920000D02*
X150100000Y-140120000D01*
X145900000Y-129950000D02*
X145900000Y-99890000D01*
D29*
%TO.N,Net-(R10-Pad1)*%
X121987500Y-92150000D02*
X122500000Y-92150000D01*
X117837500Y-96300000D02*
X121987500Y-92150000D01*
%TO.N,Net-(R12-Pad1)*%
X121987500Y-75450000D02*
X122350000Y-75450000D01*
X117837500Y-79600000D02*
X121987500Y-75450000D01*
%TO.N,Net-(R13-Pad2)*%
X127817500Y-65440000D02*
X127837500Y-65460000D01*
X125457500Y-65440000D02*
X127817500Y-65440000D01*
%TO.N,Net-(R15-Pad2)*%
X125460000Y-48740000D02*
X127820000Y-48740000D01*
X127820000Y-48740000D02*
X127840000Y-48760000D01*
%TD*%
M02*
